<svg xmlns="http://www.w3.org/2000/svg" xmlns:xlink="http://www.w3.org/1999/xlink" width="86" height="86" viewBox="0 0 86 86">
  <defs>
    <filter id="Ellipse_11513" x="0" y="0" width="86" height="86" filterUnits="userSpaceOnUse">
      <feOffset dy="3" input="SourceAlpha"/>
      <feGaussianBlur stdDeviation="3" result="blur"/>
      <feFlood flood-opacity="0.161"/>
      <feComposite operator="in" in2="blur"/>
      <feComposite in="SourceGraphic"/>
    </filter>
  </defs>
  <g id="Group_1144045" data-name="Group 1144045" transform="translate(-186.627 -4579)">
    <g id="Group_1143702" data-name="Group 1143702" transform="translate(-630.373 4129)">
      <g id="Group_1143465" data-name="Group 1143465" transform="translate(630 -707)">
        <g transform="matrix(1, 0, 0, 1, 187, 1157)" filter="url(#Ellipse_11513)">
          <g id="Ellipse_11513-2" data-name="Ellipse 11513" transform="translate(9 6)" fill="#f7eafc" stroke="#652180" stroke-width="3">
            <circle cx="34" cy="34" r="34" stroke="none"/>
            <circle cx="34" cy="34" r="32.5" fill="none"/>
          </g>
        </g>
      </g>
    </g>
    <g id="innovation_12143558" transform="translate(155.659 4562.995)">
      <path id="Path_905268" data-name="Path 905268" d="M72.109,88.448a5.47,5.47,0,0,0-1.418,3.735A1.515,1.515,0,0,1,69.178,93.7H59.911A1.515,1.515,0,0,1,58.4,92.183a5.47,5.47,0,0,0-1.418-3.735,10.107,10.107,0,1,1,15.129,0Zm-13.7-7.46A6.175,6.175,0,0,1,62.8,75.819a.392.392,0,0,0-.221-.752,6.956,6.956,0,0,0-4.945,5.824.39.39,0,0,0,.332.436c.019,0,.039,0,.058,0A.392.392,0,0,0,58.413,80.988Z" transform="translate(-6.954 -39.69)" fill="#ffd266" fill-rule="evenodd"/>
      <path id="Path_905269" data-name="Path 905269" d="M199.4,49.026a10.829,10.829,0,0,0-2.244-6.609l-.151-.2.19-.16a3.517,3.517,0,0,0,.74-4.509,1.156,1.156,0,0,1,.259-1.5,12.242,12.242,0,0,1,2.983-1.8,1.157,1.157,0,0,1,1.448.473,3.518,3.518,0,0,0,6.1-.111,1.16,1.16,0,0,1,1.428-.528,12.119,12.119,0,0,1,3.052,1.683,1.161,1.161,0,0,1,.314,1.491,3.518,3.518,0,0,0,3.149,5.226,1.152,1.152,0,0,1,1.171.974,12.132,12.132,0,0,1,.062,3.484,1.157,1.157,0,0,1-1.133,1.017,3.516,3.516,0,0,0-2.95,5.338,1.158,1.158,0,0,1-.259,1.5,12.3,12.3,0,0,1-1.427,1,12.113,12.113,0,0,1-1.556.792,1.157,1.157,0,0,1-1.448-.473,3.518,3.518,0,0,0-6.1.113,1.161,1.161,0,0,1-1.427.526,12.1,12.1,0,0,1-3.052-1.683,1.153,1.153,0,0,1-.453-.785l-.01-.081.039-.072a10.892,10.892,0,0,0,1.276-5.114Zm18.225,8.794a.56.56,0,0,0-.23.7,7.29,7.29,0,0,0,1.086,1.8.558.558,0,0,0,.728.124,2.315,2.315,0,0,1,3.512,1.942.558.558,0,0,0,.495.55,7.337,7.337,0,0,0,2.1-.039.558.558,0,0,0,.473-.568,2.314,2.314,0,0,1,3.437-2.071.561.561,0,0,0,.723-.153,7.288,7.288,0,0,0,1.018-1.838.561.561,0,0,0-.256-.693,2.314,2.314,0,0,1-.075-4.013.559.559,0,0,0,.23-.7,7.292,7.292,0,0,0-1.086-1.8.559.559,0,0,0-.728-.124A2.315,2.315,0,0,1,225.536,49a.559.559,0,0,0-.494-.551,7.4,7.4,0,0,0-2.1.039.558.558,0,0,0-.473.568,2.315,2.315,0,0,1-3.437,2.073.56.56,0,0,0-.723.151,7.28,7.28,0,0,0-1.018,1.838.561.561,0,0,0,.256.694,2.314,2.314,0,0,1,.075,4.013Zm6.5.883a2.984,2.984,0,1,1,.057,0Zm-19.373-8.767a4.69,4.69,0,0,0,1.128.138,4.662,4.662,0,1,0-1.128-.138Z" transform="translate(-130.917 -6.971)" fill="#fd4755" fill-rule="evenodd"/>
      <path id="Path_905270" data-name="Path 905270" d="M180.311,380.977h-29.9l.012-.272a14.953,14.953,0,0,1,29.877,0Z" transform="translate(-90.405 -296.003)" fill="#60b7ff" fill-rule="evenodd"/>
      <path id="Path_905271" data-name="Path 905271" d="M224.761,258.659a7.1,7.1,0,1,1-7.1-7.1A7.11,7.11,0,0,1,224.761,258.659Z" transform="translate(-142.703 -196.132)" fill="#f1cbbc" fill-rule="evenodd"/>
      <path id="Path_905272" data-name="Path 905272" d="M99.8,51.208a7.024,7.024,0,0,1-.982,1.772.3.3,0,0,1-.389.082,2.575,2.575,0,0,0-3.824,2.3.3.3,0,0,1-.255.3,7.084,7.084,0,0,1-2.024.038.3.3,0,0,1-.266-.3,2.578,2.578,0,0,0-3.908-2.161.3.3,0,0,1-.391-.067,7.016,7.016,0,0,1-1.047-1.734.3.3,0,0,1,.123-.379,2.575,2.575,0,0,0-.083-4.465.3.3,0,0,1-.137-.373,7.02,7.02,0,0,1,.982-1.772.3.3,0,0,1,.389-.081,2.576,2.576,0,0,0,3.824-2.306.3.3,0,0,1,.254-.305,6.986,6.986,0,0,1,1.011-.091,7.113,7.113,0,0,1,1.013.053.3.3,0,0,1,.266.3,2.576,2.576,0,0,0,3.907,2.161.3.3,0,0,1,.392.067A7.05,7.05,0,0,1,99.7,45.991a.3.3,0,0,1-.124.378,2.575,2.575,0,0,0,.083,4.466.3.3,0,0,1,.138.373Zm.492-1.516a1.271,1.271,0,0,1-.041-2.2,1.6,1.6,0,0,0,.655-2,8.335,8.335,0,0,0-1.241-2.055,1.6,1.6,0,0,0-2.075-.357,1.271,1.271,0,0,1-1.928-1.066,1.6,1.6,0,0,0-1.408-1.568,8.537,8.537,0,0,0-1.2-.064,8.4,8.4,0,0,0-1.2.108A1.6,1.6,0,0,0,90.509,42.1a1.27,1.27,0,0,1-1.887,1.138,1.6,1.6,0,0,0-2.06.433,8.346,8.346,0,0,0-1.164,2.1,1.6,1.6,0,0,0,.729,1.977,1.271,1.271,0,0,1,.041,2.2,1.6,1.6,0,0,0-.655,2,8.351,8.351,0,0,0,1.241,2.057,1.6,1.6,0,0,0,2.074.355,1.271,1.271,0,0,1,1.929,1.067,1.6,1.6,0,0,0,1.408,1.568,8.452,8.452,0,0,0,1.042.064c.052,0,.1,0,.158,0a8.414,8.414,0,0,0,1.2-.108,1.6,1.6,0,0,0,1.349-1.619A1.27,1.27,0,0,1,97.8,54.2a1.6,1.6,0,0,0,2.06-.433,8.335,8.335,0,0,0,1.164-2.1,1.6,1.6,0,0,0-.729-1.979Zm-7.046,1a1.967,1.967,0,0,0-.036-3.934h-.037a1.967,1.967,0,0,0,.073,3.933Zm-.1-5.238a3.272,3.272,0,0,0,.06,6.543h.062a3.272,3.272,0,0,0-.122-6.543ZM60.279,84.713a14.692,14.692,0,0,1,29.355,0Zm7.837-22.185a6.841,6.841,0,1,1,6.841,6.842,6.849,6.849,0,0,1-6.841-6.842Zm10.514,7.267a8.146,8.146,0,1,0-7.346,0A16.026,16.026,0,0,0,58.959,85.365a.653.653,0,0,0,.652.653H90.3a.653.653,0,0,0,.652-.653A16.026,16.026,0,0,0,78.629,69.794Zm-18.2-7.04H54.754a.653.653,0,0,1,0-1.305h5.673a.653.653,0,0,1,0,1.305Zm1.815-2.568h-9.3a.653.653,0,1,1,0-1.305h9.3a.653.653,0,0,1,0,1.305ZM51.718,41.33a.653.653,0,0,1-.647.573c-.027,0-.054,0-.081-.005a.652.652,0,0,1-.567-.728,7.22,7.22,0,0,1,5.13-6.043.653.653,0,0,1,.368,1.253A5.915,5.915,0,0,0,51.718,41.33ZM62.241,56.314a.653.653,0,0,1,0,1.305h-9.3a.653.653,0,1,1,0-1.305ZM51.7,52.493a1.254,1.254,0,0,0,1.253,1.253h9.266a1.254,1.254,0,0,0,1.253-1.253,5.731,5.731,0,0,1,1.483-3.908,9.847,9.847,0,1,0-14.739,0A5.731,5.731,0,0,1,51.7,52.493Zm15.61-18.265a3.763,3.763,0,0,1-.87,1.059,11.129,11.129,0,0,1,.991,12,.891.891,0,0,0,.352.608,11.8,11.8,0,0,0,2.986,1.647.9.9,0,0,0,1.107-.408,3.779,3.779,0,0,1,6.55-.121.9.9,0,0,0,1.123.367,11.809,11.809,0,0,0,1.522-.775,12.121,12.121,0,0,0,1.4-.982.9.9,0,0,0,.2-1.165,3.777,3.777,0,0,1,3.168-5.733.9.9,0,0,0,.879-.789,11.839,11.839,0,0,0-.06-3.409.892.892,0,0,0-.908-.755,3.779,3.779,0,0,1-3.382-5.614A.9.9,0,0,0,82.126,29a11.88,11.88,0,0,0-2.986-1.647.9.9,0,0,0-1.107.41,3.779,3.779,0,0,1-6.55.12.9.9,0,0,0-1.123-.367,11.991,11.991,0,0,0-2.919,1.759.9.9,0,0,0-.2,1.164A3.79,3.79,0,0,1,67.314,34.228Zm-5.09,20.823a2.56,2.56,0,0,0,2.558-2.558,4.4,4.4,0,0,1,1.155-3.042c.247-.277.477-.568.693-.866a2.187,2.187,0,0,0,.37.355,13.152,13.152,0,0,0,3.315,1.829,2.231,2.231,0,0,0,.787.145,2.192,2.192,0,0,0,1.922-1.144,2.473,2.473,0,0,1,4.289-.08,2.191,2.191,0,0,0,2.749.9A13.348,13.348,0,0,0,83.3,48.636a2.19,2.19,0,0,0,.491-2.85,2.473,2.473,0,0,1,2.075-3.754,2.192,2.192,0,0,0,2.15-1.929,13.138,13.138,0,0,0-.067-3.785,2.19,2.19,0,0,0-2.222-1.849,2.473,2.473,0,0,1-2.214-3.675,2.191,2.191,0,0,0-.6-2.829A13.178,13.178,0,0,0,79.6,26.136a2.192,2.192,0,0,0-2.709,1,2.473,2.473,0,0,1-4.289.078,2.192,2.192,0,0,0-2.749-.9,13.34,13.34,0,0,0-3.237,1.951,2.191,2.191,0,0,0-.492,2.85,2.47,2.47,0,0,1-.532,3.18A11.147,11.147,0,0,0,49.245,49.451,4.4,4.4,0,0,1,50.4,52.493a2.56,2.56,0,0,0,2.558,2.558Zm9.233-17.466a3.6,3.6,0,1,1,.411,2.729A3.579,3.579,0,0,1,71.457,37.585Zm2.317,5.633a4.887,4.887,0,1,1,1.191.146,4.954,4.954,0,0,1-1.191-.146Z" transform="translate(0 0)" fill-rule="evenodd"/>
    </g>
  </g>
</svg>
