<svg xmlns="http://www.w3.org/2000/svg" xmlns:xlink="http://www.w3.org/1999/xlink" width="86" height="86" viewBox="0 0 86 86">
  <defs>
    <filter id="Ellipse_11513" x="0" y="0" width="86" height="86" filterUnits="userSpaceOnUse">
      <feOffset dy="3" input="SourceAlpha"/>
      <feGaussianBlur stdDeviation="3" result="blur"/>
      <feFlood flood-opacity="0.161"/>
      <feComposite operator="in" in2="blur"/>
      <feComposite in="SourceGraphic"/>
    </filter>
  </defs>
  <g id="Group_1144046" data-name="Group 1144046" transform="translate(-816.627 -4396)">
    <g id="Group_1143703" data-name="Group 1143703" transform="translate(-0.373 3946)">
      <g id="Group_1143465" data-name="Group 1143465" transform="translate(630 -707)">
        <g transform="matrix(1, 0, 0, 1, 187, 1157)" filter="url(#Ellipse_11513)">
          <g id="Ellipse_11513-2" data-name="Ellipse 11513" transform="translate(9 6)" fill="#f7eafc" stroke="#652180" stroke-width="3">
            <circle cx="34" cy="34" r="34" stroke="none"/>
            <circle cx="34" cy="34" r="32.5" fill="none"/>
          </g>
        </g>
      </g>
    </g>
    <g id="process_11476246" transform="translate(823.795 4399.163)">
      <g id="Group_1143864" data-name="Group 1143864" transform="translate(8.895 8.897)">
        <g id="Group_1143862" data-name="Group 1143862" transform="translate(0 0)">
          <path id="Path_905261" data-name="Path 905261" d="M48.328,20.464a22.993,22.993,0,0,1,6.732,2.791l4.375-1.943,5.156,5.156-1.942,4.373a22.99,22.99,0,0,1,2.792,6.734L69.9,39.294v7.292L65.439,48.3a23,23,0,0,1-2.791,6.732l1.943,4.375-5.156,5.156-4.373-1.942a22.988,22.988,0,0,1-6.734,2.791l-1.718,4.463H39.318L37.6,65.415a22.992,22.992,0,0,1-6.732-2.791l-4.375,1.943-5.156-5.156,1.942-4.373A22.993,22.993,0,0,1,20.487,48.3l-4.463-1.718V39.294l4.464-1.718a22.991,22.991,0,0,1,2.791-6.733l-1.943-4.374,5.156-5.156,4.375,1.943A23,23,0,0,1,37.6,20.464L39.318,16h7.292Z" transform="translate(-16.024 -16)" fill="#a79ba7" fill-rule="evenodd"/>
          <path id="Path_905262" data-name="Path 905262" d="M108.331,62.624l-4.375,1.943-.674-.674,4.1-1.822Q107.852,62.359,108.331,62.624Zm17.461-42.159a22.993,22.993,0,0,1,6.732,2.791l-1.243.552a30.322,30.322,0,0,0-7.679-3.343L121.883,16h2.19Zm6.734,42.16a22.988,22.988,0,0,1-6.734,2.791l-1.718,4.463h-2.19l1.718-4.463a30.315,30.315,0,0,0,7.681-3.344ZM103.283,21.986l.674-.674,4.375,1.943q-.479.265-.947.552Zm32.1,0,1.517-.674,5.156,5.156-1.942,4.373a22.99,22.99,0,0,1,2.792,6.734l4.463,1.718v7.292L142.9,48.3a22.994,22.994,0,0,1-2.791,6.732l1.943,4.375L136.9,64.567l-1.517-.674,4.482-4.483-1.943-4.375a22.994,22.994,0,0,0,2.791-6.732l4.464-1.718V39.294l-4.463-1.718a22.99,22.99,0,0,0-2.792-6.734l1.942-4.373Z" transform="translate(-93.488 -16)" fill="#837683" fill-rule="evenodd"/>
          <circle id="Ellipse_11570" data-name="Ellipse 11570" cx="14.582" cy="14.582" r="14.582" transform="translate(6.314 26.94) rotate(-45)" fill="#eceff1"/>
          <path id="Path_905263" data-name="Path 905263" d="M140.693,126.087a14.582,14.582,0,0,0,0,29.165q.586,0,1.16-.046a14.583,14.583,0,0,1,0-29.073Q141.279,126.088,140.693,126.087Z" transform="translate(-113.754 -113.73)" fill="#d1d1d6" fill-rule="evenodd"/>
        </g>
        <g id="Group_1143863" data-name="Group 1143863" transform="translate(0 19.189)">
          <path id="Path_905264" data-name="Path 905264" d="M27.558,221.328a9.161,9.161,0,0,0,6.478-11.219l-.021-.077a.329.329,0,0,1,.086-.329l8.445-8.444a.326.326,0,0,0,.1-.255L42.494,198a.337.337,0,0,1,.353-.353l2.786.138a.337.337,0,0,0,.353-.353l-.138-2.786a.337.337,0,0,1,.353-.353l3.008.149a.326.326,0,0,0,.255-.1l.941-.941a.325.325,0,0,0,.1-.226l.21-5.87a.337.337,0,0,0-.349-.349l-5.87.21a.325.325,0,0,0-.226.1l-16.3,16.3a.329.329,0,0,1-.328.086,9.161,9.161,0,1,0-.078,17.676Z" transform="translate(-16.024 -186.953)" fill="#ffe177" fill-rule="evenodd"/>
          <path id="Path_905265" data-name="Path 905265" d="M44.5,221.328a9.161,9.161,0,0,0,6.477-11.219l-.021-.077a.329.329,0,0,1,.086-.329l8.445-8.444a.326.326,0,0,0,.1-.255L59.44,198a.337.337,0,0,1,.353-.353l2.786.138a.337.337,0,0,0,.353-.353l-.138-2.786a.337.337,0,0,1,.353-.353l3.008.149a.326.326,0,0,0,.255-.1l.941-.941a.325.325,0,0,0,.1-.226l.21-5.87a.337.337,0,0,0-.349-.349l-.8.029-.181,5.068a.324.324,0,0,1-.1.226l-.941.941a.326.326,0,0,1-.255.1l-3.008-.149a.337.337,0,0,0-.353.353l.138,2.786a.337.337,0,0,1-.353.353l-2.786-.138a.337.337,0,0,0-.353.353l.149,3.008a.326.326,0,0,1-.1.255l-8.445,8.444a.329.329,0,0,0-.086.329l.021.077a9.161,9.161,0,0,1-14.746,9.381A9.161,9.161,0,0,0,44.5,221.328Z" transform="translate(-32.969 -186.953)" fill="#ffd064" fill-rule="evenodd"/>
          <path id="Path_905266" data-name="Path 905266" d="M60.225,408.716a2.724,2.724,0,1,1,3.852,0A2.723,2.723,0,0,1,60.225,408.716Z" transform="translate(-54.555 -379.696)" fill="#eceff1" fill-rule="evenodd"/>
        </g>
      </g>
      <path id="Path_905267" data-name="Path 905267" d="M17.78,56.471a1.825,1.825,0,1,1,0-2.582A1.817,1.817,0,0,1,17.78,56.471ZM13.929,52.62a3.621,3.621,0,1,0,5.121,0A3.625,3.625,0,0,0,13.929,52.62ZM61.874,38.866V32.807l-3.887-1.5a.894.894,0,0,1-.551-.63,22.074,22.074,0,0,0-2.683-6.471.9.9,0,0,1-.056-.835l1.691-3.81-4.283-4.284-3.812,1.693a.9.9,0,0,1-.835-.056,22.076,22.076,0,0,0-6.469-2.682.9.9,0,0,1-.631-.551l-1.5-3.889H32.8l-1.5,3.889a.9.9,0,0,1-.63.551,22.063,22.063,0,0,0-6.469,2.682.9.9,0,0,1-.835.056l-3.811-1.693-4.284,4.284,1.693,3.811a.9.9,0,0,1-.057.835,22.057,22.057,0,0,0-2.682,6.47.9.9,0,0,1-.551.63l-3.888,1.5v6.058l3.888,1.5a.9.9,0,0,1,.551.63,22.131,22.131,0,0,0,.94,2.988c.095-.028.187-.058.282-.083a10.05,10.05,0,0,1,4.974-.061l1.4-1.4a15.474,15.474,0,1,1,7.406,7.406l-1.4,1.4a9.989,9.989,0,0,1-.143,5.253,22.236,22.236,0,0,0,2.988.941.9.9,0,0,1,.629.551l1.5,3.889h6.059l1.5-3.887a.9.9,0,0,1,.631-.551,22.064,22.064,0,0,0,6.47-2.682A.9.9,0,0,1,48.3,54.7l3.81,1.692,4.283-4.284L54.7,48.3a.9.9,0,0,1,.057-.835,22.073,22.073,0,0,0,2.682-6.47.9.9,0,0,1,.552-.63ZM22.147,35.837a13.676,13.676,0,1,1,8.447,12.646l5.561-5.561a.9.9,0,0,0,.262-.679L36.291,39.7l2.539.125a.9.9,0,0,0,.94-.942l-.124-2.538,2.538.126a.9.9,0,0,0,.679-.262L44,35.073a.9.9,0,0,0,.263-.6l.228-6.364a.9.9,0,0,0-.93-.929L37.2,27.4a.9.9,0,0,0-.6.262l-13.41,13.41a13.755,13.755,0,0,1-1.04-5.24ZM20.194,61.594a8.206,8.206,0,0,0,5.018-3.849,8.375,8.375,0,0,0,.529-1.091.035.035,0,0,1,0-.011.007.007,0,0,1,0-.005,8.2,8.2,0,0,0,.289-5.163c-.022-.081-.044-.161-.069-.24a.9.9,0,0,1,.226-.893l2.222-2.222.007-.007,6.18-6.18L34.449,38.8a.9.9,0,0,1,.94-.941l2.539.125L37.8,35.448a.9.9,0,0,1,.941-.942l3.131.155.609-.609.18-5.047-5.047.181-14.06,14.06-.008.008-2.221,2.22a.9.9,0,0,1-.893.225,8.263,8.263,0,1,0-.24,15.895ZM63.1,31.353,59.068,29.8a23.849,23.849,0,0,0-2.54-6.127l1.753-3.946a.9.9,0,0,0-.186-1l-5.156-5.156a.9.9,0,0,0-1-.186l-3.947,1.754a23.846,23.846,0,0,0-6.126-2.54l-1.55-4.028A.9.9,0,0,0,39.478,8H32.187a.9.9,0,0,0-.837.575L29.8,12.6a23.841,23.841,0,0,0-6.124,2.54l-3.947-1.754a.9.9,0,0,0-1,.186L13.57,18.731a.9.9,0,0,0-.185,1l1.752,3.947A23.829,23.829,0,0,0,12.6,29.8L8.571,31.353A.9.9,0,0,0,8,32.19v7.292a.9.9,0,0,0,.575.838l4.028,1.55a23.739,23.739,0,0,0,.9,2.773,10.059,10.059,0,0,0,7.157,18.686h0a10.036,10.036,0,0,0,6.36-5.165,23.856,23.856,0,0,0,2.778.906L31.349,63.1a.9.9,0,0,0,.837.576h7.292a.9.9,0,0,0,.838-.576l1.55-4.026a23.838,23.838,0,0,0,6.127-2.54l3.946,1.753a.9.9,0,0,0,1-.185l5.156-5.156a.9.9,0,0,0,.186-1L56.528,48a23.848,23.848,0,0,0,2.539-6.125l4.029-1.55a.9.9,0,0,0,.575-.838V32.191A.9.9,0,0,0,63.1,31.353Z" fill="#242222" fill-rule="evenodd"/>
    </g>
  </g>
</svg>
