<svg xmlns="http://www.w3.org/2000/svg" xmlns:xlink="http://www.w3.org/1999/xlink" width="91" height="91" viewBox="0 0 91 91">
  <defs>
    <filter id="Ellipse_11513" x="0" y="0" width="91" height="91" filterUnits="userSpaceOnUse">
      <feOffset dy="3" input="SourceAlpha"/>
      <feGaussianBlur stdDeviation="3" result="blur"/>
      <feFlood flood-opacity="0.161"/>
      <feComposite operator="in" in2="blur"/>
      <feComposite in="SourceGraphic"/>
    </filter>
  </defs>
  <g id="Group_1143813" data-name="Group 1143813" transform="translate(-912 -924)">
    <g id="Group_1143702" data-name="Group 1143702" transform="translate(920.972 930)">
      <g id="Group_1143465" data-name="Group 1143465">
        <g transform="matrix(1, 0, 0, 1, -8.97, -6)" filter="url(#Ellipse_11513)">
          <g id="Ellipse_11513-2" data-name="Ellipse 11513" transform="translate(9 6)" fill="#f7eafc" stroke="#652180" stroke-width="3">
            <circle cx="36.5" cy="36.5" r="36.5" stroke="none"/>
            <circle cx="36.5" cy="36.5" r="35" fill="none"/>
          </g>
        </g>
      </g>
    </g>
    <g id="cubes_1190779" transform="translate(929.68 939.738)">
      <path id="Path_905111" data-name="Path 905111" d="M181.673,71.822l-8.783-4.861V56.5l8.783,4.861Zm0,0" transform="translate(-154.62 -50.086)" fill="#fbcf62"/>
      <path id="Path_905112" data-name="Path 905112" d="M256,71.822l8.783-4.861V56.5L256,61.365Zm0,0" transform="translate(-228.947 -50.086)" fill="#f47f4c"/>
      <path id="Path_905113" data-name="Path 905113" d="M172.891,15.361l8.783-4.861,8.783,4.861-8.783,4.861Zm0,0" transform="translate(-154.62 -8.944)" fill="#44c4a1"/>
      <path id="Path_905114" data-name="Path 905114" d="M181.673,372.861,172.891,368V357.543l8.783,4.861Zm0,0" transform="translate(-154.62 -319.313)" fill="#fbcf62"/>
      <path id="Path_905115" data-name="Path 905115" d="M256,372.861,264.783,368V357.543L256,362.4Zm0,0" transform="translate(-228.947 -319.313)" fill="#f47f4c"/>
      <path id="Path_905116" data-name="Path 905116" d="M172.891,316.4l8.783-4.861,8.783,4.861-8.783,4.862Zm0,0" transform="translate(-154.62 -278.17)" fill="#44c4a1"/>
      <path id="Path_905117" data-name="Path 905117" d="M344.557,222.138l-8.783-4.861V206.82l8.783,4.861Zm0,0" transform="translate(-300.291 -184.517)" fill="#c4e7ea"/>
      <path id="Path_905118" data-name="Path 905118" d="M427.67,206.82l-8.783,4.861v10.456l8.783-4.861" transform="translate(-374.621 -184.518)" fill="#6cc8c3"/>
      <path id="Path_905119" data-name="Path 905119" d="M335.773,165.678l8.783-4.861,8.783,4.861-8.783,4.861Zm0,0" transform="translate(-300.29 -143.375)" fill="#44a6a7"/>
      <path id="Path_905120" data-name="Path 905120" d="M493.057,247.616a1.044,1.044,0,0,1-.206-.021,1.061,1.061,0,0,1-.541-.289,1.028,1.028,0,0,1-.131-.161,1.083,1.083,0,0,1-.157-.38,1.021,1.021,0,0,1,0-.412,1.083,1.083,0,0,1,.157-.38,1.035,1.035,0,0,1,.292-.292,1.045,1.045,0,0,1,.183-.1,1,1,0,0,1,.2-.06,1.033,1.033,0,0,1,.412,0,.992.992,0,0,1,.2.06,1.053,1.053,0,0,1,.183.1,1,1,0,0,1,.16.131.984.984,0,0,1,.131.161,1.033,1.033,0,0,1,.1.183,1.072,1.072,0,0,1,.061.2,1.07,1.07,0,0,1-.159.793,1.04,1.04,0,0,1-.475.389.99.99,0,0,1-.2.06A1.05,1.05,0,0,1,493.057,247.616Zm0,0" transform="translate(-440.008 -219.113)"/>
      <path id="Path_905121" data-name="Path 905121" d="M93.113,222.138l8.783-4.861V206.82l-8.783,4.861Zm0,0" transform="translate(-83.273 -184.517)" fill="#6cc8c3"/>
      <path id="Path_905122" data-name="Path 905122" d="M10,206.82l8.783,4.861v10.456L10,217.276" transform="translate(-8.946 -184.518)" fill="#c4e7ea"/>
      <path id="Path_905123" data-name="Path 905123" d="M27.57,165.678l-8.783-4.861L10,165.678l8.783,4.861Zm0,0" transform="translate(-8.947 -143.375)" fill="#44a6a7"/>
      <path id="Path_905124" data-name="Path 905124" d="M1.061,247.613a1.044,1.044,0,0,1-.206-.02,1.1,1.1,0,0,1-.2-.062.991.991,0,0,1-.183-.1,1.007,1.007,0,0,1-.161-.131,1.064,1.064,0,0,1-.31-.747,1.05,1.05,0,0,1,.02-.206,1.093,1.093,0,0,1,.062-.2,1.043,1.043,0,0,1,.1-.183,1.059,1.059,0,0,1,.132-.161,1,1,0,0,1,.161-.131,1.031,1.031,0,0,1,.183-.1,1.1,1.1,0,0,1,.2-.061,1.082,1.082,0,0,1,.412,0,1.085,1.085,0,0,1,.2.061,1.045,1.045,0,0,1,.183.1,1.039,1.039,0,0,1,.292.292,1.032,1.032,0,0,1,.1.183.981.981,0,0,1,.06.2,1.021,1.021,0,0,1,.021.206,1.063,1.063,0,0,1-.31.747,1.007,1.007,0,0,1-.161.131.991.991,0,0,1-.183.1,1.1,1.1,0,0,1-.2.062,1.043,1.043,0,0,1-.206.02Zm0,0" transform="translate(-0.003 -219.11)"/>
      <path id="Path_905125" data-name="Path 905125" d="M52.537,31.834l-7.214,3.993V27.787l8.238-4.56a1.086,1.086,0,0,0,.538-.8,1.143,1.143,0,0,0-.551-1.057l-8.769-4.854a1.057,1.057,0,0,0-1.024,0l-3.254,1.8a1.075,1.075,0,0,0-.173-.128l-3.434-2.046V6.418a1.112,1.112,0,0,0-.553-.929L27.565.632a1.057,1.057,0,0,0-1.024,0L17.766,5.49a1.224,1.224,0,0,0-.552.928v9.727L13.779,18.19a1.069,1.069,0,0,0-.172.128l-3.255-1.8a1.056,1.056,0,0,0-1.023,0L.559,21.371c-.147.078-.551.251-.551,1.057a.863.863,0,0,0,.537.8l8.238,4.56v8.041L1.569,31.834A1.057,1.057,0,0,0,.546,33.684l8.783,4.861a1.211,1.211,0,0,0,1.024,0l8.173-4.524L21.014,35.5l-3.249,1.8a1.039,1.039,0,0,0-.552.928V48.687a1.056,1.056,0,0,0,.545.924l8.773,4.856a1.22,1.22,0,0,0,1.042,0l8.773-4.856a1.057,1.057,0,0,0,.545-.924V38.23a1.145,1.145,0,0,0-.553-.929l-3.248-1.8,2.489-1.483,8.173,4.524.008,0a1.032,1.032,0,0,0,1.016,0l8.783-4.861a1.057,1.057,0,0,0-1.023-1.849ZM44.266,18.649l6.6,3.654-6.6,3.654-6.6-3.654ZM31.9,13.169a1.057,1.057,0,0,0-1.082,1.816l3.011,1.794L28.11,19.943V11.9l6.669-3.692v6.675Zm-4.844-10.4,6.6,3.654-6.6,3.654-6.6-3.654ZM19.327,8.211,26,11.9v8.041L20.28,16.779l3.011-1.794a1.057,1.057,0,0,0-1.082-1.816l-2.882,1.717ZM9.84,18.649l6.6,3.654-6.6,3.654L3.239,22.3ZM10.9,35.828V27.787L17.566,24.1v6.894L14.86,29.378a1.057,1.057,0,1,0-1.082,1.816l2.644,1.575Zm8.43,4.2L26,43.715v8.041l-6.669-3.692ZM28.11,51.755V43.715l6.669-3.692v8.041Zm-1.057-9.872-6.6-3.654,6.6-3.654,6.6,3.654Zm.512-9.44a1.057,1.057,0,0,0-1.024,0l-3.386,1.874-3.475-2.07V22.3a1.115,1.115,0,0,0-.545-.925l-3.409-1.887,2.452-1.46,8.355,4.625a1.02,1.02,0,0,0,1.042,0l8.355-4.625,2.452,1.46-3.409,1.887a1.161,1.161,0,0,0-.545.925v9.946l-3.475,2.07Zm13.13-2.7a1.057,1.057,0,0,0-1.449-.367L36.54,30.989V24.1l6.669,3.692v8.041l-5.526-3.059,2.644-1.575a1.057,1.057,0,0,0,.367-1.449Zm0,0" transform="translate(0)"/>
    </g>
  </g>
</svg>
