<svg xmlns="http://www.w3.org/2000/svg" xmlns:xlink="http://www.w3.org/1999/xlink" width="108" height="108" viewBox="0 0 108 108">
  <defs>
    <filter id="Path_978544" x="0" y="0" width="108" height="108" filterUnits="userSpaceOnUse">
      <feOffset dy="3" input="SourceAlpha"/>
      <feGaussianBlur stdDeviation="3" result="blur"/>
      <feFlood flood-opacity="0.161"/>
      <feComposite operator="in" in2="blur"/>
      <feComposite in="SourceGraphic"/>
    </filter>
  </defs>
  <g id="Group_1143820" data-name="Group 1143820" transform="translate(9 6)">
    <g id="Group_1143706" data-name="Group 1143706" transform="translate(0)">
      <g transform="matrix(1, 0, 0, 1, -9, -6)" filter="url(#Path_978544)">
        <g id="Path_978544-2" data-name="Path 978544" transform="translate(9 6)" fill="#edf5fb">
          <path d="M 45 88.5 C 39.12687683105469 88.5 33.43022537231445 87.35007476806641 28.06830024719238 85.08217620849609 C 22.88852500915527 82.89131164550781 18.23629951477051 79.75458526611328 14.2408504486084 75.75914764404297 C 10.24541282653809 71.76370239257812 7.108687400817871 67.11147308349609 4.917825222015381 61.93170166015625 C 2.649924993515015 56.56977462768555 1.5 50.87312316894531 1.5 45 C 1.5 39.12687683105469 2.649924993515015 33.43022537231445 4.917825222015381 28.06830024719238 C 7.108687400817871 22.88852500915527 10.24541282653809 18.23629951477051 14.2408504486084 14.2408504486084 C 18.23629951477051 10.24541282653809 22.88852500915527 7.108687400817871 28.06830024719238 4.917825222015381 C 33.43022537231445 2.649924993515015 39.12687683105469 1.5 45 1.5 C 50.87312316894531 1.5 56.56977462768555 2.649924993515015 61.93170166015625 4.917825222015381 C 67.11147308349609 7.108687400817871 71.76370239257812 10.24541282653809 75.75914764404297 14.2408504486084 C 79.75458526611328 18.23629951477051 82.89131164550781 22.88852500915527 85.08217620849609 28.06830024719238 C 87.35007476806641 33.43022537231445 88.5 39.12687683105469 88.5 45 C 88.5 50.87312316894531 87.35007476806641 56.56977462768555 85.08217620849609 61.93170166015625 C 82.89131164550781 67.11147308349609 79.75458526611328 71.76370239257812 75.75914764404297 75.75914764404297 C 71.76370239257812 79.75458526611328 67.11147308349609 82.89131164550781 61.93170166015625 85.08217620849609 C 56.56977462768555 87.35007476806641 50.87312316894531 88.5 45 88.5 Z" stroke="none"/>
          <path d="M 45 3 C 39.32871246337891 3 33.82865524291992 4.110054016113281 28.65262985229492 6.299339294433594 C 23.65165710449219 8.414573669433594 19.15968322753906 11.44334411621094 15.301513671875 15.301513671875 C 11.44334411621094 19.15968322753906 8.414573669433594 23.65165710449219 6.299339294433594 28.65262985229492 C 4.110054016113281 33.82865524291992 3 39.32871246337891 3 45 C 3 50.67128753662109 4.110054016113281 56.17134475708008 6.299339294433594 61.34737396240234 C 8.414573669433594 66.34834289550781 11.44334411621094 70.84031677246094 15.301513671875 74.698486328125 C 19.15968322753906 78.55665588378906 23.65165710449219 81.58542633056641 28.65262985229492 83.70066070556641 C 33.82865524291992 85.88994598388672 39.32871246337891 87 45 87 C 50.67128753662109 87 56.17134475708008 85.88994598388672 61.34737396240234 83.70066070556641 C 66.34834289550781 81.58542633056641 70.84031677246094 78.55665588378906 74.698486328125 74.698486328125 C 78.55665588378906 70.84031677246094 81.58542633056641 66.34834289550781 83.70066070556641 61.34737396240234 C 85.88994598388672 56.17134475708008 87 50.67128753662109 87 45 C 87 39.32871246337891 85.88994598388672 33.82865524291992 83.70066070556641 28.65262985229492 C 81.58542633056641 23.65165710449219 78.55665588378906 19.15968322753906 74.698486328125 15.301513671875 C 70.84031677246094 11.44334411621094 66.34834289550781 8.414573669433594 61.34737396240234 6.299339294433594 C 56.17134475708008 4.110054016113281 50.67128753662109 3 45 3 M 45 0 C 69.85281372070312 0 90 20.14718627929688 90 45 C 90 69.85281372070312 69.85281372070312 90 45 90 C 20.14718627929688 90 0 69.85281372070312 0 45 C 0 20.14718627929688 20.14718627929688 0 45 0 Z" stroke="none" fill="#2f5b79"/>
        </g>
      </g>
    </g>
    <g id="newbie_5029850" transform="translate(16.5 0)">
      <g id="Group_1143818" data-name="Group 1143818" transform="translate(1.182 1.182)">
        <path id="Path_905136" data-name="Path 905136" d="M78.08,255.745a11.458,11.458,0,0,0-11.458-11.458h-6.74a7.88,7.88,0,0,0-7.87-7.475h-5.13a7.88,7.88,0,0,0-7.87,7.475h-6.74a11.458,11.458,0,0,0-11.458,11.458v14.222H39v.02h20.89v-.02H78.08Z" transform="translate(-20.815 -200.673)" fill="#fff"/>
        <path id="Path_905137" data-name="Path 905137" d="M294.63,284.242h-3.152A11.458,11.458,0,0,1,302.936,295.7v23.215h3.152V295.7A11.458,11.458,0,0,0,294.63,284.242Z" transform="translate(-248.822 -240.628)" fill="#a9baca"/>
        <path id="Path_905138" data-name="Path 905138" d="M183.339,320.593l-3.584.823,1.576,7.406h3.993l1.576-7.412Z" transform="translate(-154.707 -271.251)" fill="#fff08a"/>
        <path id="Path_905139" data-name="Path 905139" d="M100.889,143.969H98.432a2.95,2.95,0,1,1,0-5.9h2.457Z" transform="translate(-83.715 -117.492)" fill="#ff9d86"/>
        <path id="Path_905140" data-name="Path 905140" d="M275.482,138.069h2.457a2.95,2.95,0,1,1,0,5.9h-2.457Z" transform="translate(-235.347 -117.492)" fill="#ff9d86"/>
        <path id="Path_905141" data-name="Path 905141" d="M171.927,242.8a14.1,14.1,0,0,1-5.705-1.136v6.713c0,3.157,5.717,5.717,5.717,5.717s5.717-2.56,5.717-5.717v-6.724A14.088,14.088,0,0,1,171.927,242.8Z" transform="translate(-143.306 -204.75)" fill="#ffcec4"/>
        <path id="Path_905142" data-name="Path 905142" d="M191,242.586v4.528c0,2.57-3.788,4.744-5.2,5.464a18.218,18.218,0,0,0,2.632,1.514s5.717-2.56,5.717-5.717v-6.724A13.071,13.071,0,0,1,191,242.586Z" transform="translate(-159.798 -204.75)" fill="#ff9d86"/>
        <path id="Path_905143" data-name="Path 905143" d="M141.24,82.25c-6.3,0-11.446-3.575-11.446-9.87V58.948a7.9,7.9,0,0,1,7.88-7.88h7.132a7.9,7.9,0,0,1,7.88,7.88V72.38C152.686,78.675,147.535,82.25,141.24,82.25Z" transform="translate(-112.619 -44.202)" fill="#ffcec4"/>
        <path id="Path_905144" data-name="Path 905144" d="M197.564,51.068h-3.152a7.9,7.9,0,0,1,7.88,7.88V72.38c0,5.76-4.314,9.241-9.87,9.791.516.051,1.041.079,1.576.079,6.3,0,11.446-3.575,11.446-9.87V58.948A7.9,7.9,0,0,0,197.564,51.068Z" transform="translate(-165.377 -44.202)" fill="#ff9d86"/>
        <path id="Path_905145" data-name="Path 905145" d="M137.312,52.969V51.127A7.9,7.9,0,0,0,129.794,59v1.851h2.16a9.431,9.431,0,0,0,6.987-3.085,7.843,7.843,0,0,1-1.629-4.8Z" transform="translate(-112.619 -44.252)" fill="#ffc472"/>
        <path id="Path_905146" data-name="Path 905146" d="M184.992,51.068H177.86c-.121,0-.242,0-.362.009v1.842a7.88,7.88,0,0,0,7.88,7.88h7.494V58.948A7.9,7.9,0,0,0,184.992,51.068Z" transform="translate(-152.805 -44.202)" fill="#fff08a"/>
        <path id="Path_905147" data-name="Path 905147" d="M208.2,51.068H205.05a7.9,7.9,0,0,1,7.88,7.88V60.8h3.152V58.948A7.9,7.9,0,0,0,208.2,51.068Z" transform="translate(-176.015 -44.202)" fill="#ffc472"/>
        <path id="Path_905148" data-name="Path 905148" d="M82.5,372.812h37.823v20.714H82.5Z" transform="translate(-72.777 -315.24)" fill="#8ce0ff"/>
        <path id="Path_905149" data-name="Path 905149" d="M302.5,372.812h3.152v20.714H302.5Z" transform="translate(-258.106 -315.24)" fill="#00acf0"/>
        <circle id="Ellipse_11562" data-name="Ellipse 11562" cx="3.56" cy="3.56" r="3.56" transform="translate(25.072 64.999)" fill="#fff"/>
        <circle id="Ellipse_11563" data-name="Ellipse 11563" cx="12.485" cy="12.485" r="12.485" transform="translate(49.12)" fill="#fff08a"/>
        <path id="Path_905150" data-name="Path 905150" d="M403.293,7.5a12.591,12.591,0,0,0-1.576.1,12.482,12.482,0,0,1,0,24.764A12.483,12.483,0,1,0,403.293,7.5Z" transform="translate(-341.688 -7.5)" fill="#ffc472"/>
        <path id="Path_905151" data-name="Path 905151" d="M99.2,18.031a4.048,4.048,0,0,1-8.1,0c0-4.048,4.048-7.623,4.048-7.623S99.2,13.983,99.2,18.031Z" transform="translate(-80.03 -9.95)" fill="#8ce0ff"/>
      </g>
      <g id="Group_1143819" data-name="Group 1143819">
        <path id="Path_905152" data-name="Path 905152" d="M60.3,43.953H54.615a9.107,9.107,0,0,0-3.334-5.546c.228-.158.452-.321.665-.493a10.2,10.2,0,0,0,3.8-8.214v-.519h1.344a4.132,4.132,0,1,0,0-8.264H55.745V16.267a9.077,9.077,0,0,0-1.947-5.6l-1.856,1.465a6.612,6.612,0,0,1,1.439,4.134v.669H47.069a6.705,6.705,0,0,1-6.7-6.7V9.57h6.312a6.638,6.638,0,0,1,3.756,1.161l1.333-1.952a8.992,8.992,0,0,0-5.089-1.573H39.551A9.006,9.006,0,0,0,34.778,8.57c-.562-4.062-4.205-7.328-4.373-7.476L29.623.4l-.782.691c-.182.16-4.448,3.98-4.448,8.509a5.228,5.228,0,0,0,6.229,5.133,9.067,9.067,0,0,0-.132,1.531v4.649H29.214a4.132,4.132,0,1,0,0,8.264H30.49V29.7a10.2,10.2,0,0,0,3.8,8.214c.217.176.445.342.678.5a9.11,9.11,0,0,0-3.323,5.537H25.955a12.654,12.654,0,0,0-12.64,12.64v24.4H72.944v-24.4A12.654,12.654,0,0,0,60.3,43.953ZM55.814,23.281h1.275a1.768,1.768,0,0,1,0,3.536H55.814ZM52.392,45.54v6.238L46.347,50.39c1.753-1.207,3.681-3.036,3.681-5.243V40.435a6.719,6.719,0,0,1,2.364,5.1Zm-13.8-5.422a16.456,16.456,0,0,0,9.07-.007v5.036c0,1.636-2.8,3.524-4.535,4.406-1.738-.882-4.535-2.77-4.535-4.406V40.118ZM43.008,52.1h.243l2.041.469-1.135,5.338H42.078l-1.135-5.333ZM39.289,14.878a8.3,8.3,0,0,1-5.458,2.058h-.978v-.669a6.708,6.708,0,0,1,5.154-6.516v.487A9,9,0,0,0,39.289,14.878ZM26.757,9.6c0-2.438,1.8-4.775,2.871-5.95,1.193,1.312,2.861,3.654,2.861,5.95a2.866,2.866,0,1,1-5.732,0Zm2.457,17.214a1.768,1.768,0,1,1,0-3.536H30.49v3.536ZM32.854,29.7V19.3h.978a10.663,10.663,0,0,0,6.926-2.569A9.03,9.03,0,0,0,47.069,19.3h6.312V29.7c0,6-5.155,8.688-10.264,8.688S32.854,35.7,32.854,29.7Zm1.013,15.84a6.721,6.721,0,0,1,2.364-5.1v4.711c0,2.207,1.929,4.036,3.681,5.243l-6.045,1.388ZM25.4,78.626v-9.6H23.036v9.6H15.679V56.593A10.287,10.287,0,0,1,25.955,46.317H31.5v8.43l7.137-1.639,1.022,4.8H23.036v8.756H25.4V60.275H60.859v18.35Zm45.18,0H63.223V57.911H46.574L47.6,53.1l7.16,1.644v-8.43H60.3A10.287,10.287,0,0,1,70.58,56.593V78.626Z" transform="translate(-13.315 -0.339)"/>
        <path id="Path_905153" data-name="Path 905153" d="M162.9,152.882h2.384v2.364H162.9Z" transform="translate(-139.329 -128.788)"/>
        <path id="Path_905154" data-name="Path 905154" d="M222.779,152.882h2.384v2.364h-2.384Z" transform="translate(-189.768 -128.788)"/>
        <path id="Path_905155" data-name="Path 905155" d="M177.149,412.44a4.742,4.742,0,1,0,4.742,4.742A4.748,4.748,0,0,0,177.149,412.44Zm0,7.121a2.378,2.378,0,1,1,2.378-2.378A2.381,2.381,0,0,1,177.149,419.561Z" transform="translate(-147.335 -347.441)"/>
        <path id="Path_905156" data-name="Path 905156" d="M350.48,6.794l-2.042,1.19A11.321,11.321,0,1,1,347.2,6.253L348.98,4.7a13.63,13.63,0,1,0,1.5,2.092Z" transform="translate(-275.878 0)"/>
        <path id="Path_905157" data-name="Path 905157" d="M404.217,126.451h2.364v2.374h-2.364Z" transform="translate(-342.612 -106.523)"/>
        <path id="Path_905158" data-name="Path 905158" d="M383.273,41.378a5.57,5.57,0,0,0,2.837-1.6,5.5,5.5,0,0,0,1.515-4.108,5.542,5.542,0,0,0-11.077.293h2.364a3.223,3.223,0,0,1,.031-.445,3.178,3.178,0,0,1,3.149-2.734h.065a3.178,3.178,0,0,1,2.239,5.365,3.15,3.15,0,0,1-2.305.991h-1.182V43.2h2.364V41.378Z" transform="translate(-319.304 -25.628)"/>
      </g>
    </g>
  </g>
</svg>
