<svg xmlns="http://www.w3.org/2000/svg" xmlns:xlink="http://www.w3.org/1999/xlink" width="108" height="108" viewBox="0 0 108 108">
  <defs>
    <filter id="Ellipse_11513" x="0" y="0" width="108" height="108" filterUnits="userSpaceOnUse">
      <feOffset dy="3" input="SourceAlpha"/>
      <feGaussianBlur stdDeviation="3" result="blur"/>
      <feFlood flood-opacity="0.161"/>
      <feComposite operator="in" in2="blur"/>
      <feComposite in="SourceGraphic"/>
    </filter>
  </defs>
  <g id="Group_1143830" data-name="Group 1143830" transform="translate(-193.194 -342)">
    <g id="Group_1143731" data-name="Group 1143731" transform="translate(0.093 1)">
      <g id="Group_1143472" data-name="Group 1143472" transform="translate(6.202 -815.899)">
        <g transform="matrix(1, 0, 0, 1, 186.9, 1156.9)" filter="url(#Ellipse_11513)">
          <g id="Ellipse_11513-2" data-name="Ellipse 11513" transform="translate(9 6)" fill="#fef9e7" stroke="#2f5b79" stroke-width="3">
            <circle cx="45" cy="45" r="45" stroke="none"/>
            <circle cx="45" cy="45" r="43.5" fill="none"/>
          </g>
        </g>
      </g>
    </g>
    <g id="engineering_2092142" transform="translate(206.694 352.5)">
      <path id="Path_905201" data-name="Path 905201" d="M60.333,73.449H9V20.783L22.036,8h38.3Z" transform="translate(1.983 1.7)" fill="#d1e7f8"/>
      <path id="Path_905202" data-name="Path 905202" d="M21.833,20.833V8L9,20.833Z" transform="translate(1.983 1.7)" fill="#2488ff"/>
      <path id="Path_905203" data-name="Path 905203" d="M62.346,20.966a10.019,10.019,0,0,1-1.1,2.644L65.1,27.473,61.473,31.1,57.61,27.242a10.019,10.019,0,0,1-2.644,1.1V33.8H49.833V28.346a10.019,10.019,0,0,1-2.644-1.1L43.327,31.1l-3.632-3.632,3.863-3.863a10.019,10.019,0,0,1-1.1-2.644H37V15.833h5.454a10.019,10.019,0,0,1,1.1-2.644L39.695,9.327l3.632-3.632L47.19,9.558a10.019,10.019,0,0,1,2.644-1.1V3h5.133V8.454a10.019,10.019,0,0,1,2.644,1.1l3.863-3.863L65.1,9.327,61.242,13.19a10.019,10.019,0,0,1,1.1,2.644H67.8v5.133Z" transform="translate(9.916 0.283)" fill="#ffb655"/>
      <circle id="Ellipse_11566" data-name="Ellipse 11566" cx="5.102" cy="5.102" r="5.102" transform="translate(57.854 12.96)" fill="#df2a47"/>
      <circle id="Ellipse_11567" data-name="Ellipse 11567" cx="2.551" cy="2.551" r="2.551" transform="translate(59.895 16.021)" fill="#ff3051"/>
      <g id="Group_1143829" data-name="Group 1143829" transform="translate(21.25 27.666)">
        <path id="Path_905204" data-name="Path 905204" d="M17,22v5.133h5.133V22Z" transform="translate(-17 -22)" fill="#7ed63e"/>
        <path id="Path_905205" data-name="Path 905205" d="M42.133,49.133V44H37v5.133Z" transform="translate(-11.334 -15.767)" fill="#7ed63e"/>
        <path id="Path_905206" data-name="Path 905206" d="M26,31h7.7v7.7H26Z" transform="translate(-14.45 -19.45)" fill="#7ed63e"/>
      </g>
      <path id="Path_905207" data-name="Path 905207" d="M55.233,38V64.95H27C42.605,64.95,55.233,52.9,55.233,38Z" transform="translate(7.083 10.199)" fill="#96c8ef"/>
      <path id="Path_905208" data-name="Path 905208" d="M41.5,61.533H40.216V60.25A16.7,16.7,0,0,0,27.383,44.016v-.449A2.567,2.567,0,0,0,24.816,41H22.25a2.567,2.567,0,0,0-2.567,2.567v.449A16.683,16.683,0,0,0,6.85,60.25v1.283H5.567a2.567,2.567,0,0,0,0,5.133H41.5a2.567,2.567,0,0,0,0-5.133Z" transform="translate(0.283 11.049)" fill="#ffcd00"/>
      <path id="Path_905209" data-name="Path 905209" d="M50.417,22.833a6.417,6.417,0,1,1,6.417-6.417,6.417,6.417,0,0,1-6.417,6.417Zm0-10.267a3.85,3.85,0,1,0,3.85,3.85A3.85,3.85,0,0,0,50.417,12.567Z" transform="translate(11.899 2.267)"/>
      <path id="Path_905210" data-name="Path 905210" d="M19.283,40.983A1.283,1.283,0,0,1,18,39.7V33.283a1.283,1.283,0,1,1,2.567,0V39.7A1.283,1.283,0,0,1,19.283,40.983Z" transform="translate(4.533 8.5)"/>
      <path id="Path_905211" data-name="Path 905211" d="M37.816,23.567H23.7V22.283A1.283,1.283,0,0,0,22.417,21H17.283A1.283,1.283,0,0,0,16,22.283v5.133A1.283,1.283,0,0,0,17.283,28.7h1.283v2.567a1.283,1.283,0,1,0,2.567,0V28.7h1.283A1.283,1.283,0,0,0,23.7,27.417V26.133H37.816a1.283,1.283,0,0,0,0-2.567ZM21.133,26.133H18.567V23.567h2.567Z" transform="translate(3.966 5.383)"/>
      <path id="Path_905212" data-name="Path 905212" d="M40.133,26.133H37.567v-3.85a1.283,1.283,0,0,0-2.567,0v5.133A1.283,1.283,0,0,0,36.283,28.7H38.85V40.25a1.283,1.283,0,0,0,2.567,0V27.417A1.283,1.283,0,0,0,40.133,26.133Z" transform="translate(9.349 5.383)"/>
      <path id="Path_905213" data-name="Path 905213" d="M34.666,55H24.4a1.283,1.283,0,0,0-1.283,1.283v1.283H20.55V56.283A1.283,1.283,0,0,0,19.267,55H10.283a1.283,1.283,0,1,0,0,2.567h7.7V58.85a1.283,1.283,0,0,0,1.283,1.283H24.4a1.283,1.283,0,0,0,1.283-1.283V57.567h8.983a1.283,1.283,0,0,0,0-2.567Z" transform="translate(1.983 15.016)"/>
      <path id="Path_905214" data-name="Path 905214" d="M77.716,14.833H73.21a11.511,11.511,0,0,0-.468-1.128l3.186-3.188a1.283,1.283,0,0,0,0-1.815L72.3,5.071a1.283,1.283,0,0,0-1.815,0L67.294,8.257a11.512,11.512,0,0,0-1.128-.468V3.283A1.283,1.283,0,0,0,64.883,2H59.749a1.283,1.283,0,0,0-1.283,1.283V7.789a11.512,11.512,0,0,0-1.128.468L54.15,5.071a1.283,1.283,0,0,0-1.815,0L48.99,8.417H23.816a1.283,1.283,0,0,0-.907.376L10.076,21.626a1.283,1.283,0,0,0-.376.907V60.148A17.948,17.948,0,0,0,5.85,71.3a3.85,3.85,0,1,0,0,7.7H41.783A3.85,3.85,0,0,0,45.4,76.432H62.316A1.283,1.283,0,0,0,63.6,75.149V35.366h1.283a1.283,1.283,0,0,0,1.283-1.283V29.577a11.512,11.512,0,0,0,1.128-.468L70.482,32.3a1.283,1.283,0,0,0,1.815,0l3.632-3.632a1.283,1.283,0,0,0,0-1.815l-3.186-3.188a11.508,11.508,0,0,0,.468-1.128h4.506A1.283,1.283,0,0,0,79,21.25V16.116a1.283,1.283,0,0,0-1.283-1.283ZM22.533,12.8V21.25H14.081Zm19.25,63.635H5.85a1.283,1.283,0,1,1,0-2.567,1.283,1.283,0,0,0,2.567,0V71.3A15.319,15.319,0,0,1,18.683,56.785v8.1a1.283,1.283,0,1,0,2.567,0V54.616a1.283,1.283,0,0,1,1.283-1.283H25.1a1.283,1.283,0,0,1,1.283,1.283V64.883a1.283,1.283,0,0,0,2.567,0V56.8A15.342,15.342,0,0,1,39.216,71.3v2.567a1.283,1.283,0,0,0,2.567,0,1.283,1.283,0,1,1,0,2.567Zm19.25-2.567H45.4A3.85,3.85,0,0,0,41.783,71.3,17.966,17.966,0,0,0,28.894,54.071a3.85,3.85,0,0,0-3.795-3.3H22.533a3.85,3.85,0,0,0-3.8,3.337,17.923,17.923,0,0,0-6.469,3.426V23.816h11.55A1.283,1.283,0,0,0,25.1,22.533V10.983H49.17l2.721,2.722a11.511,11.511,0,0,0-.468,1.128H46.916a1.283,1.283,0,0,0-1.283,1.283V21.25a1.283,1.283,0,0,0,1.283,1.283h4.506a11.511,11.511,0,0,0,.468,1.128L48.7,26.849a1.283,1.283,0,0,0,0,1.815L52.336,32.3a1.283,1.283,0,0,0,1.815,0l3.188-3.186a11.511,11.511,0,0,0,1.128.468v4.506a1.283,1.283,0,0,0,1.283,1.283h1.283Zm15.4-53.9H72.262a1.283,1.283,0,0,0-1.242.96,8.644,8.644,0,0,1-.96,2.3,1.283,1.283,0,0,0,.191,1.571L73.2,27.752l-1.813,1.821-2.952-2.952a1.283,1.283,0,0,0-1.571-.191,8.645,8.645,0,0,1-2.31.96,1.283,1.283,0,0,0-.957,1.238V32.8H61.033V28.629a1.283,1.283,0,0,0-.96-1.242,8.645,8.645,0,0,1-2.31-.96,1.283,1.283,0,0,0-1.571.191L53.24,29.569l-1.815-1.813L54.377,24.8a1.283,1.283,0,0,0,.191-1.571,8.644,8.644,0,0,1-.96-2.3,1.283,1.283,0,0,0-1.238-.964H48.2V17.4H52.37a1.283,1.283,0,0,0,1.242-.96,8.644,8.644,0,0,1,.96-2.3,1.283,1.283,0,0,0-.191-1.571L51.43,9.614l1.813-1.821,2.952,2.952a1.283,1.283,0,0,0,1.571.191,8.645,8.645,0,0,1,2.31-.96,1.283,1.283,0,0,0,.957-1.238V4.567H63.6V8.737a1.283,1.283,0,0,0,.96,1.242,8.645,8.645,0,0,1,2.31.96,1.283,1.283,0,0,0,1.571-.191L71.392,7.8,73.206,9.61l-2.952,2.952a1.283,1.283,0,0,0-.191,1.571,8.644,8.644,0,0,1,.96,2.31,1.283,1.283,0,0,0,1.238.957h4.171Z" transform="translate(0)"/>
      <path id="Path_905215" data-name="Path 905215" d="M43.833,44.133H42.55v-3.85a1.283,1.283,0,0,0-2.567,0v3.85H38.7a1.283,1.283,0,0,0-1.283,1.283V46.7H32.283a1.283,1.283,0,1,0,0,2.567h5.133V50.55A1.283,1.283,0,0,0,38.7,51.833h5.133a1.283,1.283,0,0,0,1.283-1.283V45.417A1.283,1.283,0,0,0,43.833,44.133ZM42.55,49.267H39.983V46.7H42.55Z" transform="translate(8.216 10.483)"/>
      <path id="Path_905216" data-name="Path 905216" d="M33.983,40.267h-7.7A1.283,1.283,0,0,1,25,38.983v-7.7A1.283,1.283,0,0,1,26.283,30h7.7a1.283,1.283,0,0,1,1.283,1.283v7.7A1.283,1.283,0,0,1,33.983,40.267ZM27.567,37.7H32.7V32.567H27.567Z" transform="translate(6.516 7.933)"/>
    </g>
  </g>
</svg>
