<svg xmlns="http://www.w3.org/2000/svg" width="34.965" height="37.384" viewBox="0 0 34.965 37.384">
  <g id="maestro" transform="translate(-16.568 0)">
    <path id="Path_906183" data-name="Path 906183" d="M48.566,20.564H46.695V11.434a.548.548,0,1,0-1.1,0v9.224a1.8,1.8,0,0,0-.281.122,2.361,2.361,0,0,0-3.348,2.146v.2a5.82,5.82,0,0,0-1.266-.142H38.227V20.165a6.59,6.59,0,0,0,2.4-4.554h.685a1.759,1.759,0,0,0,1.757-1.757V11.434a1.76,1.76,0,0,0-1.21-1.669V5.386A5.392,5.392,0,0,0,36.47,0H31.631a5.392,5.392,0,0,0-5.386,5.386V9.765a1.76,1.76,0,0,0-1.21,1.669v2.419a1.759,1.759,0,0,0,1.757,1.757h.685a6.59,6.59,0,0,0,2.4,4.554v2.819H26.793a5.392,5.392,0,0,0-5.386,5.386v2.542l-2.678-.472a1.278,1.278,0,0,0-1.058.245,1.125,1.125,0,0,0-.431.879V32.8a1.222,1.222,0,0,0-.241.15,1.125,1.125,0,0,0-.431.879v2.4a1.189,1.189,0,0,0,1.22,1.152h1.874a.548.548,0,1,0,0-1.1H17.788a.134.134,0,0,1-.124-.057v-2.4a.052.052,0,0,1,.02-.024.177.177,0,0,1,.147-.028l.022,0,5.973,1.084v1.422H21.852a.548.548,0,1,0,0,1.1H48.608a1.718,1.718,0,0,0,1.716-1.716v-4.3a1.124,1.124,0,0,0-.13-.525,2.966,2.966,0,0,0,1.339-2.479V23.531a2.97,2.97,0,0,0-2.967-2.967Zm-4.9,8.41V27.612a2.354,2.354,0,0,0,.662.1c.048,0,.1,0,.144,0a1.765,1.765,0,0,0,.771.966,1.755,1.755,0,0,0-.123,1.572h-.188a1.268,1.268,0,0,1-1.267-1.267Zm-.6-6.048a1.267,1.267,0,0,1,1.449-1.254,1.724,1.724,0,0,0-.123.565,1.743,1.743,0,0,0,.481,1.294,1.754,1.754,0,0,0,0,2.419,1.76,1.76,0,0,0-.393.652,1.281,1.281,0,0,1-.148.01,1.268,1.268,0,0,1-1.267-1.267V22.926ZM28.55,11.434a.057.057,0,0,1,.057-.057h3.629a.057.057,0,0,1,.057.057v1.21a.663.663,0,0,1-.662.662H29.212a.663.663,0,0,1-.662-.66Zm3.686-1.152h-2.6a2.973,2.973,0,0,0,1.284-1.929h6.266a2.973,2.973,0,0,0,1.284,1.929h-2.6a1.154,1.154,0,0,0-1.152,1.152v.057H33.389v-.057A1.154,1.154,0,0,0,32.236,10.282Zm3.572,1.152a.057.057,0,0,1,.057-.057h3.629a.057.057,0,0,1,.057.057v1.21a.663.663,0,0,1-.662.662H36.47a.663.663,0,0,1-.662-.662v-1.21Zm6.163,2.419a.663.663,0,0,1-.662.662h-.662V12.645h0v-1.21h0v-.662h.662a.663.663,0,0,1,.662.662ZM31.631,1.1H36.47a4.3,4.3,0,0,1,4.291,4.291V9.677H40.1a1.875,1.875,0,0,1-1.818-1.43A1.76,1.76,0,0,0,39.437,6.6a.548.548,0,1,0-1.1,0,.663.663,0,0,1-.662.662H30.422A.663.663,0,0,1,29.76,6.6a.548.548,0,1,0-1.1,0,1.76,1.76,0,0,0,1.157,1.651A1.875,1.875,0,0,1,28,9.677H27.34V5.386A4.3,4.3,0,0,1,31.631,1.1Zm-5.5,12.758V11.434a.663.663,0,0,1,.662-.662h.662v1.872s0,0,0,0v1.867h-.662a.663.663,0,0,1-.662-.662Zm2.419,1.21v-.792a1.747,1.747,0,0,0,.662.13h2.419a1.759,1.759,0,0,0,1.757-1.757v-.057h1.324v.057A1.759,1.759,0,0,0,36.47,14.4h2.419a1.746,1.746,0,0,0,.662-.13v.792a5.5,5.5,0,1,1-11,0Zm5.5,6.6a6.554,6.554,0,0,0,3.081-.766v2.637a3.081,3.081,0,0,1-6.163,0h0V20.894A6.554,6.554,0,0,0,34.051,21.659ZM22.5,28.369a4.3,4.3,0,0,1,4.291-4.291h.686a6.594,6.594,0,0,0,.8,2.643.548.548,0,0,0,.958-.53,5.494,5.494,0,0,1-.657-2.113h1.333a4.175,4.175,0,0,0,8.279,0h1.334a5.5,5.5,0,0,1-9.017,3.659.548.548,0,1,0-.706.837,6.6,6.6,0,0,0,10.823-4.5h.08a4.8,4.8,0,0,1,1.267.175v1.091a2.352,2.352,0,0,0,.6,1.576v2.052a2.357,2.357,0,0,0,.8,1.768,1.125,1.125,0,0,0-.193.631v4.3a1.707,1.707,0,0,0,.117.621H32.176c0-.019,0-.038,0-.057v-2.4a1.125,1.125,0,0,0-.431-.879,1.219,1.219,0,0,0-.241-.15V31.563a1.125,1.125,0,0,0-.431-.879,1.279,1.279,0,0,0-1.058-.245l-5.577.983-.025,0a.2.2,0,0,1-.086,0l-.025,0L22.5,31.1Zm2.419,4.081,5.3-.934.025,0a.176.176,0,0,1,.147.028.052.052,0,0,1,.02.024v1.195l-5.491,1v-1.3Zm-6.586.308V31.563a.052.052,0,0,1,.02-.024.178.178,0,0,1,.147-.028l.025.005,5.3.934v1.3Zm6.586,3.531V34.868l5.973-1.084.022,0a.176.176,0,0,1,.147.028.052.052,0,0,1,.02.024v2.4a.135.135,0,0,1-.124.057Zm23.687,0H44.9a.621.621,0,0,1-.621-.621V33.756h4.953v1.913a.621.621,0,0,1-.621.621Zm.584-4.953a.037.037,0,0,1,.037.037V32.66H44.275V31.373a.037.037,0,0,1,.037-.037Zm1.246-2.967a1.874,1.874,0,0,1-1.872,1.872h-1.78a.687.687,0,0,1-.7-.629.662.662,0,0,1,.659-.695h1.212a.548.548,0,1,0,0-1.1H46.147a.662.662,0,0,1,0-1.324h1.814a.548.548,0,1,0,0-1.1H46.147a.662.662,0,0,1,0-1.324h1.814a.548.548,0,1,0,0-1.1H46.147a.662.662,0,0,1-.661-.695.687.687,0,0,1,.7-.629h2.385a1.874,1.874,0,0,1,1.872,1.872Z"/>
  </g>
</svg>
