<svg xmlns="http://www.w3.org/2000/svg" xmlns:xlink="http://www.w3.org/1999/xlink" width="86" height="86" viewBox="0 0 86 86">
  <defs>
    <filter id="Ellipse_11513" x="0" y="0" width="86" height="86" filterUnits="userSpaceOnUse">
      <feOffset dy="3" input="SourceAlpha"/>
      <feGaussianBlur stdDeviation="3" result="blur"/>
      <feFlood flood-opacity="0.161"/>
      <feComposite operator="in" in2="blur"/>
      <feComposite in="SourceGraphic"/>
    </filter>
  </defs>
  <g id="Group_1144058" data-name="Group 1144058" transform="translate(-606.627 -6173)">
    <g id="Group_1143772" data-name="Group 1143772" transform="translate(-210.373 5723)">
      <g id="Group_1143465" data-name="Group 1143465" transform="translate(630 -707)">
        <g transform="matrix(1, 0, 0, 1, 187, 1157)" filter="url(#Ellipse_11513)">
          <g id="Ellipse_11513-2" data-name="Ellipse 11513" transform="translate(9 6)" fill="#f7eafc" stroke="#652180" stroke-width="3">
            <circle cx="34" cy="34" r="34" stroke="none"/>
            <circle cx="34" cy="34" r="32.5" fill="none"/>
          </g>
        </g>
      </g>
    </g>
    <g id="list_4133948" transform="translate(610.165 6181.397)">
      <rect id="Rectangle_405609" data-name="Rectangle 405609" width="39.377" height="49.449" rx="5" transform="translate(19.773 8.404)" fill="#f9502e"/>
      <path id="Path_905283" data-name="Path 905283" d="M29.759,22.043H60.918V63.274H29.759Z" transform="translate(-5.876 -9.53)" fill="#f1f1fb"/>
      <path id="Path_905284" data-name="Path 905284" d="M60.851,13.466h-15.3A1.365,1.365,0,0,1,44.187,12.1V9.357l3.051-3.051H59.166l3.048,3.051V12.1a1.365,1.365,0,0,1-1.363,1.365Z" transform="translate(-13.74 -0.953)" fill="#00d6de"/>
      <g id="Group_1143873" data-name="Group 1143873" transform="translate(18.977 4.557)">
        <path id="Path_905285" data-name="Path 905285" d="M19.773,40.3a.8.8,0,0,0,.8-.8V37.459a.8.8,0,1,0-1.592,0v2.047A.8.8,0,0,0,19.773,40.3Z" transform="translate(-18.977 -22.055)"/>
        <path id="Path_905286" data-name="Path 905286" d="M59.15,75.2a.8.8,0,0,0-.8.8v4.565a1.481,1.481,0,0,1-1.479,1.479H22.048a1.481,1.481,0,0,1-1.479-1.479V51.2a.8.8,0,0,0-1.592,0V80.563a3.075,3.075,0,0,0,3.071,3.071H56.875a3.074,3.074,0,0,0,3.071-3.071V76a.8.8,0,0,0-.8-.8Z" transform="translate(-18.977 -29.542)"/>
        <path id="Path_905287" data-name="Path 905287" d="M56.875,7.608H48.807L45.989,4.79a.8.8,0,0,0-.563-.233H33.5a.8.8,0,0,0-.563.233L30.117,7.608H22.048a3.075,3.075,0,0,0-3.071,3.071v4.889a.8.8,0,0,0,1.592,0V10.679A1.481,1.481,0,0,1,22.048,9.2h7.6v1.948a2.12,2.12,0,0,0,.086.569H23.883a.8.8,0,0,0-.8.8V53.744a.8.8,0,0,0,.8.8H55.041a.8.8,0,0,0,.8-.8V12.513a.8.8,0,0,0-.8-.8H49.187a2.12,2.12,0,0,0,.086-.569V9.2h7.6a1.481,1.481,0,0,1,1.479,1.479V46.754a.8.8,0,1,0,1.592,0V10.679a3.074,3.074,0,0,0-3.071-3.071Zm-2.63,45.34H24.679V13.309H54.245ZM31.814,11.717a.57.57,0,0,1-.569-.569V8.733L33.83,6.149H45.1l2.585,2.584v2.415a.57.57,0,0,1-.569.569Z" transform="translate(-18.977 -4.557)"/>
        <path id="Path_905288" data-name="Path 905288" d="M62.652,12.425H58.665a.8.8,0,0,0,0,1.592h3.987a.8.8,0,1,0,0-1.592Z" transform="translate(-40.174 -8.845)"/>
        <path id="Path_905289" data-name="Path 905289" d="M62.25,37.572a.8.8,0,0,0,.8.8H73.118a.8.8,0,1,0,0-1.592H63.046A.8.8,0,0,0,62.25,37.572Z" transform="translate(-42.561 -22.117)"/>
        <path id="Path_905290" data-name="Path 905290" d="M46.4,32.6l-3.422,3.422-1.506-1.506a.8.8,0,0,0-1.126,1.128l2.069,2.069a.8.8,0,0,0,1.126,0l3.982-3.987A.8.8,0,1,0,46.4,32.6Z" transform="translate(-30.496 -19.701)"/>
        <path id="Path_905291" data-name="Path 905291" d="M73.118,75.212H63.046a.8.8,0,0,0,0,1.592H73.118a.8.8,0,1,0,0-1.592Z" transform="translate(-42.561 -43.065)"/>
        <path id="Path_905292" data-name="Path 905292" d="M46.4,71.067l-3.422,3.421-1.506-1.506a.8.8,0,1,0-1.126,1.126l2.069,2.069a.8.8,0,0,0,1.126,0l3.983-3.984A.8.8,0,0,0,46.4,71.067Z" transform="translate(-30.496 -40.678)"/>
        <path id="Path_905293" data-name="Path 905293" d="M73.118,55.994H63.046a.8.8,0,1,0,0,1.592H73.118a.8.8,0,1,0,0-1.592Z" transform="translate(-42.561 -32.591)"/>
        <path id="Path_905294" data-name="Path 905294" d="M46.4,51.847l-3.422,3.421-1.506-1.506a.8.8,0,0,0-1.126,1.126l2.069,2.068a.8.8,0,0,0,1.126,0l3.983-3.985A.8.8,0,1,0,46.4,51.846Z" transform="translate(-30.496 -30.203)"/>
        <path id="Path_905295" data-name="Path 905295" d="M73.118,94.429H63.046a.8.8,0,0,0,0,1.592H73.118a.8.8,0,1,0,0-1.592Z" transform="translate(-42.561 -53.538)"/>
        <path id="Path_905296" data-name="Path 905296" d="M46.4,90.285l-3.422,3.421L41.472,92.2a.8.8,0,1,0-1.126,1.126l2.069,2.069a.8.8,0,0,0,1.126,0l3.983-3.984A.8.8,0,0,0,46.4,90.285Z" transform="translate(-30.496 -51.152)"/>
      </g>
    </g>
  </g>
</svg>
