<svg xmlns="http://www.w3.org/2000/svg" xmlns:xlink="http://www.w3.org/1999/xlink" width="91" height="91" viewBox="0 0 91 91">
  <defs>
    <filter id="Ellipse_11513" x="0" y="0" width="91" height="91" filterUnits="userSpaceOnUse">
      <feOffset dy="3" input="SourceAlpha"/>
      <feGaussianBlur stdDeviation="3" result="blur"/>
      <feFlood flood-opacity="0.161"/>
      <feComposite operator="in" in2="blur"/>
      <feComposite in="SourceGraphic"/>
    </filter>
  </defs>
  <g id="Group_1143812" data-name="Group 1143812" transform="translate(-597 -924)">
    <g id="Group_1143703" data-name="Group 1143703" transform="translate(605.919 930)">
      <g id="Group_1143465" data-name="Group 1143465">
        <g transform="matrix(1, 0, 0, 1, -8.92, -6)" filter="url(#Ellipse_11513)">
          <g id="Ellipse_11513-2" data-name="Ellipse 11513" transform="translate(9 6)" fill="#f7eafc" stroke="#652180" stroke-width="3">
            <circle cx="36.5" cy="36.5" r="36.5" stroke="none"/>
            <circle cx="36.5" cy="36.5" r="35" fill="none"/>
          </g>
        </g>
      </g>
    </g>
    <g id="lateral-thinking_12056692" transform="translate(611.379 937.178)">
      <path id="Path_905091" data-name="Path 905091" d="M112.22,154.489c.646.223,1.077.869,1.175,2.1.013.184,0,3.15-.026,3.633h12.337c-.324-10.389,9.982-18.013,8.181-27.179a14.151,14.151,0,0,0-5.311-8.549c-6.151-4.7-18.751-3.918-23.607,2.16-.991,1.477.169,1.8.306,3.05.1.941-1.088,4.346-1.349,5.85-.347,2.009,1.126,2,1.089,3.461-.019.74-.508,1.961-1.983,4.219-.42.65-.754,1.045-.663,1.737.157,1.2,1.921.62,2.493,1.786a1.493,1.493,0,0,1,.019,1.036c-.3.683-.248,1.016-.13,1.242a1.634,1.634,0,0,0,.9.63,2.338,2.338,0,0,0-.822.883,1.583,1.583,0,0,0,.167,1.122,2.171,2.171,0,0,1,.016,1.01,2.341,2.341,0,0,0,.467,2.213c.538.442,1.453.437,2.669.332q2.167-.287,4.077-.735Z" transform="translate(-88.318 -105.468)" fill="#fdb0a0" fill-rule="evenodd"/>
      <path id="Path_905092" data-name="Path 905092" d="M129.823,161.361h7.486c-.324-10.389,9.982-18.013,8.181-27.179a14.152,14.152,0,0,0-5.311-8.549,16.194,16.194,0,0,0-8.025-2.907c-4.32.46-8.424,2.155-10.75,5.066-.991,1.477.169,1.8.306,3.05.1.941-1.088,4.346-1.349,5.85-.347,2.009,1.126,2,1.089,3.461-.019.74-.508,1.961-1.983,4.219-.42.65-.754,1.045-.663,1.737.157,1.2,1.922.62,2.493,1.786a1.493,1.493,0,0,1,.02,1.036c-.3.683-.248,1.016-.13,1.242a1.634,1.634,0,0,0,.9.63,2.338,2.338,0,0,0-.823.883,1.583,1.583,0,0,0,.167,1.122,2.169,2.169,0,0,1,.016,1.01,2.341,2.341,0,0,0,.467,2.213,1.742,1.742,0,0,0,.854.343l.137-.011q2.167-.287,4.077-.735s1.034-.26,1.538-.407a23.6,23.6,0,0,0,4.561-1.826.714.714,0,0,1,.677,1.258c-3.542,1.9-3.888,1.912-3.93,6.709Z" transform="translate(-103.075 -106.607)" fill="#ffcec0" fill-rule="evenodd"/>
      <path id="Path_905093" data-name="Path 905093" d="M465.952,314.2a1.977,1.977,0,1,1-.724-2.7A1.977,1.977,0,0,1,465.952,314.2Z" transform="translate(-411.491 -275.877)" fill="#99d100" fill-rule="evenodd"/>
      <path id="Path_905094" data-name="Path 905094" d="M463.54,316.19a1.977,1.977,0,0,1-1.013-2.838,1.513,1.513,0,1,1,1.013,2.838Z" transform="translate(-411.49 -277.003)" fill="#a8e304" fill-rule="evenodd"/>
      <circle id="Ellipse_11558" data-name="Ellipse 11558" cx="2.16" cy="2.16" r="2.16" transform="translate(26.735 8.923) rotate(-86.846)" fill="#fdc72e"/>
      <g id="Group_1143811" data-name="Group 1143811" transform="translate(4.711 4.831)">
        <path id="Path_905095" data-name="Path 905095" d="M229.444,16.22a2.161,2.161,0,1,1,1.461-2.044A2.161,2.161,0,0,1,229.444,16.22Z" transform="translate(-205.836 -12.132)" fill="#ffeb87" fill-rule="evenodd"/>
        <path id="Path_905096" data-name="Path 905096" d="M354.313,347.627a2.48,2.48,0,1,1-.908-3.388,2.48,2.48,0,0,1,.908,3.388Z" transform="translate(-315.115 -310.042)" fill="#2a92fa" fill-rule="evenodd"/>
        <path id="Path_905097" data-name="Path 905097" d="M351.466,349.653a2.48,2.48,0,1,1,1.45-1.14,2.486,2.486,0,0,1-1.45,1.14Z" transform="translate(-315.116 -310.927)" fill="#4eb1fc" fill-rule="evenodd"/>
        <path id="Path_905098" data-name="Path 905098" d="M78.288,71.61a2.458,2.458,0,1,1-.9-3.357,2.458,2.458,0,0,1,.9,3.357Z" transform="translate(-67.302 -62.228)" fill="#99d100" fill-rule="evenodd"/>
        <path id="Path_905099" data-name="Path 905099" d="M75.459,73.633a2.458,2.458,0,0,1,0-4.713,2.458,2.458,0,0,1,0,4.713Z" transform="translate(-67.302 -63.124)" fill="#a8e304" fill-rule="evenodd"/>
        <path id="Path_905100" data-name="Path 905100" d="M15.837,221.1a2.458,2.458,0,1,1-3.01-1.738A2.458,2.458,0,0,1,15.837,221.1Z" transform="translate(-11.005 -198.138)" fill="#2dcffc" fill-rule="evenodd"/>
        <path id="Path_905101" data-name="Path 905101" d="M12.763,224.994a2.458,2.458,0,0,1,0-4.713,2.458,2.458,0,0,1,0,4.713Z" transform="translate(-11.004 -199.035)" fill="#66deff" fill-rule="evenodd"/>
        <path id="Path_905102" data-name="Path 905102" d="M177.118,160.566l-1.858-.366-.816-1.967,1.055-1.573-2.175-2.175-1.573,1.055-1.967-.816-.366-1.858h-3.076l-.366,1.858-1.967.816-1.574-1.055-2.175,2.175,1.055,1.573L160.5,160.2l-1.858.366v3.076l1.858.366.816,1.967-1.055,1.574,2.175,2.175,1.574-1.055,1.967.816.366,1.858h3.076l.366-1.858,1.967-.816,1.573,1.055,2.175-2.175-1.055-1.574.816-1.967,1.858-.366Z" transform="translate(-143.573 -138.501)" fill="#f23353" fill-rule="evenodd"/>
        <path id="Path_905103" data-name="Path 905103" d="M176.22,163.642l-1.857.366-.816,1.967,1.055,1.574-1.815,1.815-1.379-.925-2.521,1.046-.366,1.858h-2.178l-.366-1.858-2.521-1.046-1.379.925-1.815-1.815,1.055-1.574-.816-1.967-1.858-.366v-3.076l1.858-.366.816-1.967-1.055-1.573,1.815-1.815,1.379.925,2.521-1.046.366-1.858h2.178l.366,1.858,2.521,1.046,1.379-.925,1.815,1.815-1.055,1.573.816,1.967,1.857.366Z" transform="translate(-143.573 -138.501)" fill="#ff5471" fill-rule="evenodd"/>
      </g>
      <circle id="Ellipse_11559" data-name="Ellipse 11559" cx="4.752" cy="4.752" r="4.752" transform="translate(21.74 29.976) rotate(-58.28)" fill="#f23353"/>
      <circle id="Ellipse_11560" data-name="Ellipse 11560" cx="4.733" cy="4.733" r="4.733" transform="matrix(0.952, -0.305, 0.305, 0.952, 23.057, 25.368)" fill="#f3f3ff"/>
      <path id="Path_905104" data-name="Path 905104" d="M343.31,30.574a1.459,1.459,0,0,0,1.455,1.455h5.358a1.459,1.459,0,0,0,1.455-1.455v-2c0-4,4.134-5.129,4.134-10.511,0-4.938-4.134-7.407-8.268-7.407s-8.268,2.469-8.268,7.407c0,5.382,4.134,6.507,4.134,10.511v2Z" transform="translate(-300.967 -5.978)" fill="#fcdb35" fill-rule="evenodd"/>
      <path id="Path_905105" data-name="Path 905105" d="M343.31,30.574a1.459,1.459,0,0,0,1.455,1.455h3.715a1.459,1.459,0,0,0,1.455-1.455V28.2c0-4,4.134-5.129,4.134-10.511a7.045,7.045,0,0,0-5.194-6.931,10.3,10.3,0,0,0-1.431-.1c-4.134,0-8.268,2.469-8.268,7.407,0,5.382,4.134,6.507,4.134,10.511v2Z" transform="translate(-300.967 -5.978)" fill="#ffeb87" fill-rule="evenodd"/>
      <path id="Path_905106" data-name="Path 905106" d="M402.923,210.034V212.6a1.118,1.118,0,0,1-1.114,1.114h-2.2A1.118,1.118,0,0,1,398.5,212.6v-2.564h4.426Z" transform="translate(-354.233 -185.003)" fill="#495586" fill-rule="evenodd"/>
      <path id="Path_905107" data-name="Path 905107" d="M400.107,213.713h-.5A1.118,1.118,0,0,1,398.5,212.6v-2.564h2.724V212.6A1.118,1.118,0,0,1,400.107,213.713Z" transform="translate(-354.233 -185.003)" fill="#5d689e" fill-rule="evenodd"/>
      <path id="Path_905108" data-name="Path 905108" d="M387.92,193.214a1.461,1.461,0,0,1-1.456,1.456H381.1a1.46,1.46,0,0,1-1.456-1.456v-1.427h8.274Z" transform="translate(-337.307 -168.618)" fill="#5d689e" fill-rule="evenodd"/>
      <path id="Path_905109" data-name="Path 905109" d="M384.818,194.67H381.1a1.46,1.46,0,0,1-1.456-1.456v-1.427h6.628v1.281A1.539,1.539,0,0,1,384.818,194.67Z" transform="translate(-337.307 -168.618)" fill="#7986bf" fill-rule="evenodd"/>
      <path id="Path_905110" data-name="Path 905110" d="M53.841,37.97a1.262,1.262,0,0,1-1.723.462,1.262,1.262,0,0,1,.635-2.356,1.269,1.269,0,0,1,1.216.935,1.256,1.256,0,0,1-.128.958ZM43.292,42.06A1.767,1.767,0,1,1,41.3,39.471a1.8,1.8,0,0,1,.463-.061,1.766,1.766,0,0,1,1.526,2.649ZM36.636,54.016H25.786c.015-1.058.02-2.79.01-2.97a4.143,4.143,0,0,0-.448-1.672A25.662,25.662,0,0,0,30.674,47.3.714.714,0,0,0,30,46.04a30.177,30.177,0,0,1-10.244,2.987,3.719,3.719,0,0,1-2.131-.173c-.34-.28-.3-.9-.212-1.568a2.59,2.59,0,0,0-.079-1.4c-.01-.019-.015-.036-.025-.054a.939.939,0,0,1-.108-.517,1.646,1.646,0,0,1,.512-.513.6.6,0,0,0,.054-.04.713.713,0,0,0-.143-1.23,1.534,1.534,0,0,1-.541-.3c-.034-.06-.015-.259.148-.62a.7.7,0,0,0,.044-.141,2.184,2.184,0,0,0-.074-1.5,2.514,2.514,0,0,0-1.792-1.235c-.581-.164-.615-.212-.63-.326-.044-.329.069-.521.4-1.028.049-.072.1-.148.148-.223,1.423-2.181,2.072-3.6,2.1-4.587a2.649,2.649,0,0,0-.694-1.823,1.588,1.588,0,0,1-.4-1.53c.049-.284.138-.655.241-1.067h2.491v.824a.714.714,0,0,0,.576.7l1.482.292.527,1.261L20.8,33.482a.711.711,0,0,0,.084.9l2.176,2.176a.718.718,0,0,0,.906.088l1.255-.842,1.26.523.3,1.483a.712.712,0,0,0,.7.576h3.077a.712.712,0,0,0,.7-.576l.3-1.483,1.26-.523,1.255.842a.718.718,0,0,0,.906-.088l.581-.583,3.5,3.5-.059.1a3.194,3.194,0,0,0,.694,4.026,24.045,24.045,0,0,0-3.052,10.411ZM17.684,24.171a3.44,3.44,0,0,0-.473-1.332c-.266-.488-.349-.64.029-1.214a10.477,10.477,0,0,1,2.048-1.91L21.474,21.9l-.586.583a.712.712,0,0,0-.084.9l.842,1.256L21.12,25.9l-1.482.292a.715.715,0,0,0-.576.7v.824h-2.1a12.663,12.663,0,0,0,.719-3.548Zm8.181-7.085a17.493,17.493,0,0,0-5.336,1.848l1.954,1.955.581-.583a.718.718,0,0,1,.906-.089l1.255.843,1.26-.523.3-1.483a.712.712,0,0,1,.7-.576H28.3V16.783a21.609,21.609,0,0,0-2.437.3ZM27.573,6.875a1.445,1.445,0,1,1,1.442,1.445,1.447,1.447,0,0,1-1.442-1.445Zm2.648,14.314-.251-1.282H28.066l-.251,1.282a.72.72,0,0,1-.428.521l-1.969.816a.71.71,0,0,1-.669-.066l-1.088-.729-1.344,1.345.729,1.086a.709.709,0,0,1,.064.671L22.3,26.8a.724.724,0,0,1-.522.427l-1.285.253v1.9l1.285.253a.723.723,0,0,1,.522.427l.812,1.967a.71.71,0,0,1-.064.672l-.729,1.086,1.344,1.346,1.088-.729a.712.712,0,0,1,.669-.066l1.969.816a.721.721,0,0,1,.428.522l.251,1.282h1.905l.251-1.282a.71.71,0,0,1,.428-.522l1.969-.816a.712.712,0,0,1,.669.066l1.088.729L35.72,33.79,34.992,32.7a.725.725,0,0,1-.069-.672l.817-1.967a.723.723,0,0,1,.522-.427l1.285-.253v-1.9l-1.285-.253a.724.724,0,0,1-.522-.427l-.817-1.968a.724.724,0,0,1,.069-.671l.729-1.086-1.344-1.345-1.088.729a.71.71,0,0,1-.669.066L30.65,21.71a.71.71,0,0,1-.428-.521Zm-22.6,8.928a1.744,1.744,0,1,1-.906-3.368,1.8,1.8,0,0,1,.458-.06,1.744,1.744,0,0,1,.448,3.428Zm6.4-15.449a1.743,1.743,0,1,1-.448-3.427,1.712,1.712,0,0,1,.866.233,1.742,1.742,0,0,1-.418,3.193ZM55.347,36.642a2.652,2.652,0,0,0-1.255-1.634,2.69,2.69,0,0,0-3.672.985,2.655,2.655,0,0,0-.354,1.527l-5.6,1.955a3.207,3.207,0,0,0-.63-.728,22.929,22.929,0,0,0,2.545-7.471.714.714,0,1,0-1.418-.166,21.539,21.539,0,0,1-2.4,6.975,3.173,3.173,0,0,0-1.634.005,3.217,3.217,0,0,0-.871.378l-3.5-3.5.586-.583a.711.711,0,0,0,.084-.9l-.842-1.256.527-1.261,1.482-.292a.714.714,0,0,0,.576-.7V26.895a.715.715,0,0,0-.576-.7L36.917,25.9l-.527-1.26.842-1.257a.711.711,0,0,0-.084-.9l-2.176-2.176a.718.718,0,0,0-.906-.089l-1.255.843-1.26-.523-.3-1.483a.712.712,0,0,0-.7-.576h-.822V16.731a19.681,19.681,0,0,1,6.729,1.1.714.714,0,1,0,.487-1.343A21.117,21.117,0,0,0,29.734,15.3V9.66a2.872,2.872,0,1,0-1.432,0v5.689a23.064,23.064,0,0,0-2.7.332,18.675,18.675,0,0,0-6.119,2.207l-3.224-3.225c.015-.031.035-.062.054-.093a3.167,3.167,0,1,0-2.752,1.588,3.224,3.224,0,0,0,.827-.109,3.274,3.274,0,0,0,.861-.373l3.018,3.019a11.528,11.528,0,0,0-2.161,2.062.278.278,0,0,0-.035.048,2.243,2.243,0,0,0-.118,2.716,2.225,2.225,0,0,1,.305.807,17.364,17.364,0,0,1-.714,3.158c-.025.078-.044.156-.064.233H10.26l-.03-.106a3.17,3.17,0,1,0-6.124,1.642,3.171,3.171,0,0,0,6.153-.107H15.1c-.074.3-.138.583-.177.823a2.964,2.964,0,0,0,.679,2.644,1.276,1.276,0,0,1,.394.916c-.015.682-.645,1.974-1.866,3.845-.044.074-.093.146-.138.214a2.687,2.687,0,0,0-.63,2c.143,1.088,1.053,1.346,1.659,1.516.517.146.773.241.9.489.02.036.054.111-.025.5a2.008,2.008,0,0,0-.079,1.788,1.617,1.617,0,0,0,.335.432,2.534,2.534,0,0,0-.271.442.478.478,0,0,0-.029.079,2.238,2.238,0,0,0,.187,1.641,2.926,2.926,0,0,1-.039.627,2.977,2.977,0,0,0,.724,2.851,4.408,4.408,0,0,0,3.18.491l.029,0c1.368-.181,2.673-.412,3.9-.691a1.807,1.807,0,0,1,.541,1.394c.01.266,0,3.086-.025,3.542a.71.71,0,0,0,.714.754h12.3a.715.715,0,0,0,.714-.736c-.118-3.777,1.275-7.244,2.88-10.44a3.149,3.149,0,0,0,.8.1,3.221,3.221,0,0,0,.832-.11,3.2,3.2,0,0,0,2.348-3.439l5.6-1.955a2.731,2.731,0,0,0,.871.8,2.67,2.67,0,0,0,1.339.362,2.724,2.724,0,0,0,.7-.093,2.686,2.686,0,0,0,1.9-3.3ZM29.016,24.409a4.025,4.025,0,1,0,4.027,4.025,4.029,4.029,0,0,0-4.027-4.025Zm-5.449,4.025a5.452,5.452,0,1,0,5.449-5.454A5.459,5.459,0,0,0,23.566,28.434ZM44.3,15.295a3.325,3.325,0,0,1-1.285-1.448c-.512-1.092-.33-1.665-.236-1.721h.01a.517.517,0,0,1,.271.127A4.651,4.651,0,0,1,44.3,15.295Zm4.347,0a4.676,4.676,0,0,1,1.241-3.042.536.536,0,0,1,.271-.127h.01c.093.056.281.629-.231,1.721a3.335,3.335,0,0,1-1.29,1.448ZM46.477,5.43c3.628,0,7.537,2.089,7.537,6.676a8.87,8.87,0,0,1-2.161,5.662,8.077,8.077,0,0,0-1.964,4.667H48.539V16.944a4.892,4.892,0,0,0,2.693-2.493c.64-1.375.635-2.608-.015-3.3a1.481,1.481,0,0,0-1.679-.333c-1.039.413-2.141,1.948-2.383,5.02a4.214,4.214,0,0,1-1.359,0c-.241-3.071-1.344-4.606-2.387-5.02a1.474,1.474,0,0,0-1.674.333c-.655.69-.66,1.923-.02,3.3a4.917,4.917,0,0,0,2.7,2.493v5.491H43.065A8.081,8.081,0,0,0,41.1,17.768a8.9,8.9,0,0,1-2.156-5.662c0-4.587,3.909-6.676,7.537-6.676Zm.63,17.006H45.842V17.29a5.971,5.971,0,0,0,1.265,0Zm2.043,2.875H43.8a.738.738,0,0,1-.738-.737v-.709h6.823v.709a.738.738,0,0,1-.738.737Zm-1.58,2.65H45.379a.4.4,0,0,1-.394-.4V26.74h2.983v.824a.4.4,0,0,1-.4.4Zm-5.932-5.366v1.978a2.166,2.166,0,0,0,1.92,2.151v.839a1.826,1.826,0,0,0,1.821,1.826h2.191A1.827,1.827,0,0,0,49.4,27.564v-.839a2.17,2.17,0,0,0,1.92-2.151V22.595a6.629,6.629,0,0,1,1.7-3.994,10.2,10.2,0,0,0,2.427-6.495A7.515,7.515,0,0,0,52.591,6,10.34,10.34,0,0,0,40.358,6a7.525,7.525,0,0,0-2.845,6.1A10.2,10.2,0,0,0,39.934,18.6,6.606,6.606,0,0,1,41.638,22.595Z" transform="translate(0 0)" fill-rule="evenodd"/>
    </g>
  </g>
</svg>
