<svg xmlns="http://www.w3.org/2000/svg" xmlns:xlink="http://www.w3.org/1999/xlink" width="86" height="86" viewBox="0 0 86 86">
  <defs>
    <filter id="Ellipse_11513" x="0" y="0" width="86" height="86" filterUnits="userSpaceOnUse">
      <feOffset dy="3" input="SourceAlpha"/>
      <feGaussianBlur stdDeviation="3" result="blur"/>
      <feFlood flood-opacity="0.161"/>
      <feComposite operator="in" in2="blur"/>
      <feComposite in="SourceGraphic"/>
    </filter>
  </defs>
  <g id="Group_1143911" data-name="Group 1143911" transform="translate(-816.627 -6372)">
    <g id="Group_1143775" data-name="Group 1143775" transform="translate(-0.373 5922)">
      <g id="Group_1143465" data-name="Group 1143465" transform="translate(630 -707)">
        <g transform="matrix(1, 0, 0, 1, 187, 1157)" filter="url(#Ellipse_11513)">
          <g id="Ellipse_11513-2" data-name="Ellipse 11513" transform="translate(9 6)" fill="#f7eafc" stroke="#652180" stroke-width="3">
            <circle cx="34" cy="34" r="34" stroke="none"/>
            <circle cx="34" cy="34" r="32.5" fill="none"/>
          </g>
        </g>
      </g>
    </g>
    <g id="lightbulb_1404835" transform="translate(829.211 6378.205)">
      <path id="Path_905349" data-name="Path 905349" d="M148.277,318.644H132.506L128,304h24.783Zm0,0" transform="translate(-109.976 -261.193)" fill="#aabece"/>
      <path id="Path_905350" data-name="Path 905350" d="M115.427,90.024c0,10.888-8.826,21.4-19.714,21.4S76,100.912,76,90.024,84.826,72,95.714,72,115.427,79.136,115.427,90.024Zm0,0" transform="translate(-65.298 -61.862)" fill="#fcf05a"/>
      <path id="Path_905351" data-name="Path 905351" d="M160,408h15.771v4.506H160Zm0,0" transform="translate(-137.47 -350.549)" fill="#5a6470"/>
      <path id="Path_905352" data-name="Path 905352" d="M171.265,444.506h-6.759A4.506,4.506,0,0,1,160,440h15.771A4.506,4.506,0,0,1,171.265,444.506Zm0,0" transform="translate(-137.47 -378.043)" fill="#aabece"/>
      <path id="Path_905353" data-name="Path 905353" d="M164.035,224.778a1.126,1.126,0,0,0-1.577-.256l-2.351,1.69-2.35-1.69a1.127,1.127,0,0,0-1.316,0l-2.345,1.69-2.345-1.69a1.127,1.127,0,0,0-1.317,0l-2.343,1.69-2.34-1.69a1.127,1.127,0,0,0-1.318,1.828l3,2.162a1.126,1.126,0,0,0,1.318,0l.853-.611v13.26a1.126,1.126,0,1,0,2.253,0V227.643a1.1,1.1,0,0,0-.064-.32l1.652,1.189a1.127,1.127,0,0,0,1.316,0l1.67-1.206a1.092,1.092,0,0,0-.068.338v13.518a1.126,1.126,0,1,0,2.253,0V227.909l.839.6a1.127,1.127,0,0,0,1.316,0l3.009-2.162a1.126,1.126,0,0,0,.257-1.573Zm0,0" transform="translate(-123.692 -192.722)" fill="#e97424"/>
      <path id="Path_905354" data-name="Path 905354" d="M102.183,116.271a1.126,1.126,0,0,1-1.1-.882A16.143,16.143,0,0,1,103.94,101.5,14.941,14.941,0,0,1,115.7,95.994a1.126,1.126,0,1,1,0,2.253,12.7,12.7,0,0,0-10,4.663,13.927,13.927,0,0,0-2.413,11.99,1.126,1.126,0,0,1-.856,1.345,1.215,1.215,0,0,1-.244.026Zm0,0" transform="translate(-86.412 -82.476)" fill="#fff"/>
      <path id="Path_905355" data-name="Path 905355" d="M226.253,98.253h-1.126a1.126,1.126,0,0,1,0-2.253h1.126a1.126,1.126,0,0,1,0,2.253Zm0,0" transform="translate(-192.458 -82.482)" fill="#fff"/>
      <g id="Group_1143910" data-name="Group 1143910">
        <path id="Path_905356" data-name="Path 905356" d="M209.126,6.759A1.127,1.127,0,0,1,208,5.632V1.126a1.126,1.126,0,1,1,2.253,0V5.632A1.127,1.127,0,0,1,209.126,6.759Zm0,0" transform="translate(-178.711)" fill="#e97424"/>
        <path id="Path_905357" data-name="Path 905357" d="M340.59,365.717a1.126,1.126,0,0,1-.8-.33l-3.38-3.379a1.127,1.127,0,0,1,1.593-1.593l3.38,3.379a1.126,1.126,0,0,1-.8,1.923Zm0,0" transform="translate(-288.772 -309.392)" fill="#e97424"/>
        <path id="Path_905358" data-name="Path 905358" d="M28.59,53.717a1.127,1.127,0,0,1-.8-.33l-3.379-3.379a1.127,1.127,0,0,1,1.593-1.593l3.379,3.379a1.126,1.126,0,0,1-.8,1.923Zm0,0" transform="translate(-20.705 -41.326)" fill="#e97424"/>
        <path id="Path_905359" data-name="Path 905359" d="M57.127,365.717a1.126,1.126,0,0,1-.8-1.923l3.379-3.379a1.127,1.127,0,0,1,1.593,1.593l-3.379,3.379a1.127,1.127,0,0,1-.8.33Zm0,0" transform="translate(-48.115 -309.392)" fill="#e97424"/>
        <path id="Path_905360" data-name="Path 905360" d="M6.759,234.253H1.126a1.127,1.127,0,0,1,0-2.253H6.759a1.127,1.127,0,0,1,0,2.253Zm0,0" transform="translate(0 -199.332)" fill="#e97424"/>
        <path id="Path_905361" data-name="Path 905361" d="M369.127,53.717a1.126,1.126,0,0,1-.8-1.923l3.38-3.379a1.127,1.127,0,0,1,1.593,1.593l-3.38,3.379a1.127,1.127,0,0,1-.8.33Zm0,0" transform="translate(-316.182 -41.325)" fill="#e97424"/>
        <path id="Path_905362" data-name="Path 905362" d="M382.759,234.253h-5.632a1.127,1.127,0,1,1,0-2.253h5.632a1.127,1.127,0,1,1,0,2.253Zm0,0" transform="translate(-323.055 -199.332)" fill="#e97424"/>
      </g>
      <path id="Path_905363" data-name="Path 905363" d="M68,83.15a23.43,23.43,0,0,0,8.176,17.589l3.652,11.87v4.336a5.639,5.639,0,0,0,5.632,5.632H92.22a5.639,5.639,0,0,0,5.632-5.632v-4.336l3.652-11.87A23.43,23.43,0,0,0,109.68,83.15c0-11.1-8.764-19.15-20.84-19.15S68,72.053,68,83.15Zm27.6,32.668H82.081v-2.253H95.6Zm-3.38,4.506H85.461a3.386,3.386,0,0,1-3.187-2.253H95.407A3.386,3.386,0,0,1,92.22,120.325Zm3.675-9.012H81.786l-2.576-8.374a18.281,18.281,0,0,0,19.263,0ZM86.523,89.589l1.652,1.189a1.127,1.127,0,0,0,1.316,0l1.671-1.206a1.091,1.091,0,0,0-.068.338v13.335a13.979,13.979,0,0,1-4.506,0V89.91A1.1,1.1,0,0,0,86.523,89.589ZM88.84,66.253c10.77,0,18.587,7.107,18.587,16.9,0,9.118-6.2,17.267-14.081,19.593V90.175l.839.6a1.127,1.127,0,0,0,1.316,0l3.009-2.162a1.127,1.127,0,1,0-1.316-1.828l-2.351,1.69-2.35-1.69a1.127,1.127,0,0,0-1.316,0l-2.345,1.69-2.345-1.69a1.126,1.126,0,0,0-1.317,0l-2.343,1.69-2.34-1.69a1.127,1.127,0,0,0-1.318,1.828l3,2.162a1.126,1.126,0,0,0,1.318,0l.848-.611v12.576c-7.885-2.326-14.081-10.475-14.081-19.593,0-9.79,7.817-16.9,18.587-16.9Zm0,0" transform="translate(-58.425 -54.988)"/>
      <path id="Path_905364" data-name="Path 905364" d="M101.076,115.388a1.127,1.127,0,0,0,1.1.882,1.221,1.221,0,0,0,.245-.026,1.126,1.126,0,0,0,.856-1.345,13.927,13.927,0,0,1,2.413-11.99,12.7,12.7,0,0,1,10-4.663,1.126,1.126,0,1,0,0-2.253,14.939,14.939,0,0,0-11.762,5.505,16.144,16.144,0,0,0-2.857,13.889Zm0,0" transform="translate(-86.406 -82.475)"/>
      <path id="Path_905365" data-name="Path 905365" d="M225.126,98.253h1.126a1.126,1.126,0,0,0,0-2.253h-1.126a1.126,1.126,0,0,0,0,2.253Zm0,0" transform="translate(-192.458 -82.482)"/>
      <path id="Path_905366" data-name="Path 905366" d="M210.253,5.632V1.126a1.126,1.126,0,1,0-2.253,0V5.632a1.126,1.126,0,1,0,2.253,0Zm0,0" transform="translate(-178.711)"/>
      <path id="Path_905367" data-name="Path 905367" d="M336.333,360.333a1.127,1.127,0,0,0,0,1.593l3.379,3.38a1.127,1.127,0,0,0,1.593-1.593l-3.379-3.38A1.127,1.127,0,0,0,336.333,360.333Zm0,0" transform="translate(-288.69 -309.31)"/>
      <path id="Path_905368" data-name="Path 905368" d="M26.008,48.415a1.127,1.127,0,0,0-1.593,1.593l3.379,3.379a1.127,1.127,0,0,0,1.593-1.593Zm0,0" transform="translate(-20.705 -41.326)"/>
      <path id="Path_905369" data-name="Path 905369" d="M56.333,365.387a1.127,1.127,0,0,0,1.593,0l3.379-3.379a1.127,1.127,0,0,0-1.593-1.593l-3.379,3.379a1.127,1.127,0,0,0,0,1.593Zm0,0" transform="translate(-48.117 -309.392)"/>
      <path id="Path_905370" data-name="Path 905370" d="M6.759,232H1.126a1.127,1.127,0,0,0,0,2.253H6.759a1.127,1.127,0,0,0,0-2.253Zm0,0" transform="translate(0 -199.332)"/>
      <path id="Path_905371" data-name="Path 905371" d="M371.626,48.415l-3.379,3.379a1.127,1.127,0,1,0,1.593,1.593l3.379-3.379a1.127,1.127,0,0,0-1.593-1.593Zm0,0" transform="translate(-316.097 -41.326)"/>
      <path id="Path_905372" data-name="Path 905372" d="M376,233.126a1.127,1.127,0,0,0,1.127,1.127h5.632a1.127,1.127,0,1,0,0-2.253h-5.632A1.127,1.127,0,0,0,376,233.126Zm0,0" transform="translate(-323.055 -199.332)"/>
    </g>
  </g>
</svg>
