<svg xmlns="http://www.w3.org/2000/svg" xmlns:xlink="http://www.w3.org/1999/xlink" width="86" height="86" viewBox="0 0 86 86">
  <defs>
    <filter id="Ellipse_11540" x="0" y="0" width="86" height="86" filterUnits="userSpaceOnUse">
      <feOffset dy="3" input="SourceAlpha"/>
      <feGaussianBlur stdDeviation="3" result="blur"/>
      <feFlood flood-opacity="0.161"/>
      <feComposite operator="in" in2="blur"/>
      <feComposite in="SourceGraphic"/>
    </filter>
  </defs>
  <g id="Group_1143827" data-name="Group 1143827" transform="translate(-612 -754)">
    <g id="Group_1143711" data-name="Group 1143711" transform="translate(-0.101 -1971)">
      <g transform="matrix(1, 0, 0, 1, 612.1, 2725)" filter="url(#Ellipse_11540)">
        <g id="Ellipse_11540-2" data-name="Ellipse 11540" transform="translate(9 6)" fill="#fbedfe" stroke="#7b3289" stroke-width="3">
          <circle cx="34" cy="34" r="34" stroke="none"/>
          <circle cx="34" cy="34" r="32.5" fill="none"/>
        </g>
      </g>
    </g>
    <g id="warning_11560527" transform="translate(630.976 766.284)">
      <g id="Group_1143824" data-name="Group 1143824" transform="translate(0 2.955)">
        <path id="Path_905195" data-name="Path 905195" d="M17.657,7.156,1.788,34.642a6.625,6.625,0,0,0,5.737,9.937H39.263A6.625,6.625,0,0,0,45,34.642L29.132,7.156a6.625,6.625,0,0,0-11.474,0Z" transform="translate(-0.246 -3.201)" fill="#ffdc6e"/>
        <path id="Path_905196" data-name="Path 905196" d="M47.87,47.394H32c8.06-2.071,15.694-15.929,8.072-33.379L53.6,37.455a6.626,6.626,0,0,1-5.734,9.939Z" transform="translate(-8.852 -6.015)" opacity="0.1"/>
        <path id="Path_905197" data-name="Path 905197" d="M39.016,44.976H7.279a7.268,7.268,0,0,1-6.294-10.9L16.854,6.589a7.193,7.193,0,0,1,6.294-3.634h0a7.19,7.19,0,0,1,6.293,3.634L45.31,34.075a7.267,7.267,0,0,1-6.294,10.9ZM23.148,4.241a5.919,5.919,0,0,0-5.181,2.991L2.1,34.718a5.982,5.982,0,0,0,5.18,8.973H39.016A5.982,5.982,0,0,0,44.2,34.718L28.328,7.232a5.92,5.92,0,0,0-5.18-2.991Z" transform="translate(0 -2.955)" fill="#101016"/>
      </g>
      <g id="Group_1143826" data-name="Group 1143826" transform="translate(18.699 11.559)">
        <path id="Path_905198" data-name="Path 905198" d="M30.544,34.109h0a2.338,2.338,0,0,1-2.321-2.057L26.766,20a3.806,3.806,0,0,1,3.778-4.263h0A3.806,3.806,0,0,1,34.322,20L32.865,32.052a2.338,2.338,0,0,1-2.321,2.057Z" transform="translate(-26.095 -15.094)" fill="#3b3b44"/>
        <circle id="Ellipse_11565" data-name="Ellipse 11565" cx="2.948" cy="2.948" r="2.948" transform="translate(1.501 22.082)" fill="#3b3b44"/>
        <g id="Group_1143825" data-name="Group 1143825">
          <path id="Path_905199" data-name="Path 905199" d="M30.626,51.667a3.591,3.591,0,1,1,3.591-3.59A3.6,3.6,0,0,1,30.626,51.667Zm0-5.9a2.3,2.3,0,1,0,2.3,2.306A2.308,2.308,0,0,0,30.626,45.771Z" transform="translate(-26.177 -23.046)" fill="#101016"/>
          <path id="Path_905200" data-name="Path 905200" d="M30.3,34.506a2.984,2.984,0,0,1-2.959-2.623L25.882,19.831a4.448,4.448,0,1,1,8.833,0L33.257,31.883A2.983,2.983,0,0,1,30.3,34.506Zm0-18.372a3.162,3.162,0,0,0-3.139,3.543L28.616,31.73a1.7,1.7,0,0,0,3.365,0l1.457-12.053a3.163,3.163,0,0,0-3.14-3.543Z" transform="translate(-25.849 -14.848)" fill="#101016"/>
        </g>
      </g>
    </g>
  </g>
</svg>
