<svg xmlns="http://www.w3.org/2000/svg" xmlns:xlink="http://www.w3.org/1999/xlink" width="108" height="108" viewBox="0 0 108 108">
  <defs>
    <filter id="Ellipse_11495" x="0" y="0" width="108" height="108" filterUnits="userSpaceOnUse">
      <feOffset dy="3" input="SourceAlpha"/>
      <feGaussianBlur stdDeviation="3" result="blur"/>
      <feFlood flood-opacity="0.161"/>
      <feComposite operator="in" in2="blur"/>
      <feComposite in="SourceGraphic"/>
    </filter>
  </defs>
  <g id="Group_1144093" data-name="Group 1144093" transform="translate(-197 -483)">
    <g id="Group_1143942" data-name="Group 1143942" transform="translate(0.19 -1852)">
      <g id="Group_1143744" data-name="Group 1143744" transform="translate(-0.19 1868)">
        <g transform="matrix(1, 0, 0, 1, 197, 467)" filter="url(#Ellipse_11495)">
          <g id="Ellipse_11495-2" data-name="Ellipse 11495" transform="translate(9 6)" fill="#edf5fb" stroke="#7b3289" stroke-width="4">
            <circle cx="45" cy="45" r="45" stroke="none"/>
            <circle cx="45" cy="45" r="43" fill="none"/>
          </g>
        </g>
      </g>
    </g>
    <g id="ingenieria" transform="translate(190.594 498.837)">
      <path id="Path_906367" data-name="Path 906367" d="M84.238,285.1a17.085,17.085,0,0,1-34.17,0h-13v3.568a1.079,1.079,0,0,0,.871,1.068l6.044,1.17a23.736,23.736,0,0,0,2.682,6.47l-3.448,5.1a1.088,1.088,0,0,0,.132,1.378L48.4,308.9a1.088,1.088,0,0,0,1.378.132l5.1-3.448a23.736,23.736,0,0,0,6.47,2.682l1.17,6.044a1.088,1.088,0,0,0,1.068.881h7.136a1.088,1.088,0,0,0,1.068-.881l1.17-6.044a23.736,23.736,0,0,0,6.47-2.682l5.1,3.448a1.088,1.088,0,0,0,1.378-.132l5.046-5.046a1.088,1.088,0,0,0,.132-1.378l-3.448-5.1a23.735,23.735,0,0,0,2.682-6.47l6.044-1.17a1.059,1.059,0,0,0,.847-1.068V285.1Z" transform="translate(-6.735 -245.942)" fill="#afb4bc"/>
      <path id="Path_906368" data-name="Path 906368" d="M97.212,232.738H37.07v-5.71a2.619,2.619,0,0,1,2.617-2.628H94.556a2.653,2.653,0,0,1,2.657,2.628v5.71Z" transform="translate(-6.735 -193.578)" fill="#ff8d27"/>
      <path id="Path_906369" data-name="Path 906369" d="M94.556,224.4H86.788a2.628,2.628,0,0,1,2.628,2.628h0a2.66,2.66,0,0,1-2.66,2.66H37.07v3.05H97.212v-5.71A2.653,2.653,0,0,0,94.556,224.4Z" transform="translate(-6.735 -193.578)" fill="#ff7610"/>
      <path id="Path_906370" data-name="Path 906370" d="M95.324,45.419H92.493A24.371,24.371,0,0,0,68.122,69.79V70h51.573V69.79A24.371,24.371,0,0,0,95.324,45.419Z" transform="translate(-33.522 -39.18)" fill="#ffdc48"/>
      <path id="Path_906371" data-name="Path 906371" d="M237.235,45.419H234.83q-.987,0-1.954.077A24.586,24.586,0,0,1,255.506,70h6.313A24.584,24.584,0,0,0,237.235,45.419Z" transform="translate(-175.646 -39.18)" fill="#ffce00"/>
      <path id="Path_906372" data-name="Path 906372" d="M171.138,38.165l-1.706-5.586a1.181,1.181,0,0,1,1.129-1.526,48.153,48.153,0,0,1,21.393,0,1.23,1.23,0,0,1,.949.478,1.174,1.174,0,0,1,.18,1.047l-1.623,5.314" transform="translate(-120.87 -25.751)" fill="#ffb82e"/>
      <path id="Path_906373" data-name="Path 906373" d="M192.01,30.658l2.178,7.49,13.183-.234,2.178-7.256a48.1,48.1,0,0,0-17.54,0Z" transform="translate(-140.393 -25.752)" fill="#ffa910"/>
      <path id="Path_906374" data-name="Path 906374" d="M207.869,23.38V9.474a1.667,1.667,0,0,1,1.667-1.667h9.849a1.667,1.667,0,0,1,1.667,1.667V23.38" transform="translate(-154.074 -6.735)" fill="#ffb82e"/>
      <g id="Group_1144092" data-name="Group 1144092" transform="translate(34.6 26.366)">
        <path id="Path_906375" data-name="Path 906375" d="M224.959,196.409H214.735v-3.217a1.24,1.24,0,0,1,1.24-1.24h7.744a1.24,1.24,0,0,1,1.24,1.24Z" transform="translate(-194.597 -191.952)" fill="#ff5122"/>
        <path id="Path_906376" data-name="Path 906376" d="M73.194,191.953H68.525a24.727,24.727,0,0,0-.4,4.457h6.313v-3.217A1.24,1.24,0,0,0,73.194,191.953Z" transform="translate(-68.121 -191.953)" fill="#ff5122"/>
        <path id="Path_906377" data-name="Path 906377" d="M398.872,191.953h4.669a24.727,24.727,0,0,1,.4,4.457h-6.313v-3.217A1.24,1.24,0,0,1,398.872,191.953Z" transform="translate(-352.372 -191.953)" fill="#ff5122"/>
      </g>
      <path id="Path_906378" data-name="Path 906378" d="M97.212,285.1H84.238a17.086,17.086,0,0,1-33.844,3.336h.031A17.167,17.167,0,0,1,50.1,285.1H37.07v3.336h4.241a6.759,6.759,0,0,1,6.293,4.3,20.991,20.991,0,0,0,39.1,0,6.759,6.759,0,0,1,6.293-4.3h4.217V285.1Z" transform="translate(-6.735 -245.942)" fill="#808791"/>
      <path id="Path_906379" data-name="Path 906379" d="M87.852,29.75h-.418c-.03,0-.15.02-.173,0s-.011-.094-.013-.124c0-.1-.01-.194-.015-.292-.038-.673-.1-1.345-.195-2.012a25.484,25.484,0,0,0-1.148-4.838,1.072,1.072,0,1,0-2.028.7c.239.7.441,1.4.613,2.113H81.131a2.315,2.315,0,0,0-2.313,2.313V29.75H66.066V27.606a2.315,2.315,0,0,0-2.313-2.313H56.01A2.315,2.315,0,0,0,53.7,27.606V29.75H42.017V27.606A2.315,2.315,0,0,0,39.7,25.293H36.369A23.59,23.59,0,0,1,48.419,9.934l.854,2.794a1.072,1.072,0,1,0,2.051-.627L49.618,6.515a.108.108,0,0,1,.1-.14,1.067,1.067,0,0,0,.238-.027c.922-.21,1.858-.392,2.795-.546V16.645a1.072,1.072,0,0,0,2.145,0V2.739a.6.6,0,0,1,.594-.594h9.849a.6.6,0,0,1,.594.594V16.645a1.072,1.072,0,0,0,2.145,0V5.8c.937.155,1.873.336,2.795.546a1.066,1.066,0,0,0,.224.027.167.167,0,0,1,.1.044.1.1,0,0,1,.016.1L69.595,11.83a1.072,1.072,0,1,0,2.051.627l.771-2.524a23.8,23.8,0,0,1,9.563,9.122,1.072,1.072,0,0,0,1.856-1.075A25.957,25.957,0,0,0,73.053,7.849l.216-.707a2.232,2.232,0,0,0-.344-2,2.3,2.3,0,0,0-1.668-.908C70.21,4,69.146,3.8,68.081,3.629v-.89A2.742,2.742,0,0,0,65.343,0H55.493a2.742,2.742,0,0,0-2.739,2.739v.89c-1.062.168-2.125.37-3.171.606a2.253,2.253,0,0,0-2.017,2.907l.216.706A25.741,25.741,0,0,0,34.007,26.066a1.056,1.056,0,0,0-.026.107A25.793,25.793,0,0,0,33.64,28.8q-.037.473-.058.947h-.6a3.715,3.715,0,0,0-3.721,3.7v9.278A2.158,2.158,0,0,0,31,44.849l5.383,1.042a24.8,24.8,0,0,0,2.281,5.5L35.6,55.938a2.163,2.163,0,0,0,.262,2.737L40.9,63.721a2.164,2.164,0,0,0,2.737.262l4.545-3.071a24.794,24.794,0,0,0,5.5,2.28l1.042,5.383a2.163,2.163,0,0,0,2.121,1.75h7.136a2.163,2.163,0,0,0,2.121-1.749l.446-2.305a1.072,1.072,0,0,0-2.106-.407L64,68.169a.015.015,0,0,1-.015.012H56.85a.015.015,0,0,1-.015-.012l-1.17-6.044a1.072,1.072,0,0,0-.793-.837,22.648,22.648,0,0,1-6.177-2.561,1.073,1.073,0,0,0-1.153.031l-5.1,3.448a.015.015,0,0,1-.019,0l-5.046-5.046a.015.015,0,0,1,0-.019l3.448-5.1a1.073,1.073,0,0,0,.031-1.153,22.663,22.663,0,0,1-2.561-6.178,1.072,1.072,0,0,0-.837-.793l-6.042-1.168a.025.025,0,0,1,0-.017v-2.5H42.292a18.158,18.158,0,0,0,36.252,0H89.405v2.5a.121.121,0,0,1,0,.019l-6.021,1.165a1.072,1.072,0,0,0-.837.793,22.657,22.657,0,0,1-2.561,6.178,1.073,1.073,0,0,0,.031,1.153l3.448,5.1a.015.015,0,0,1,0,.019L78.416,62.2a.015.015,0,0,1-.019,0l-5.1-3.448a1.073,1.073,0,0,0-1.153-.031,22.654,22.654,0,0,1-6.177,2.561,1.072,1.072,0,0,0,.52,2.081,24.8,24.8,0,0,0,6.167-2.456L77.2,63.983a2.164,2.164,0,0,0,2.737-.262l5.046-5.046a2.164,2.164,0,0,0,.262-2.737L82.17,51.393a24.786,24.786,0,0,0,2.281-5.5l5.383-1.042a2.121,2.121,0,0,0,1.716-2.121V33.45A3.7,3.7,0,0,0,87.852,29.75Zm-6.888-2.144a.168.168,0,0,1,.168-.168h3.756c.11.766.186,1.539.22,2.312H80.964Zm-25.122,0a.168.168,0,0,1,.168-.168h7.744a.168.168,0,0,1,.168.168V29.75h-8.08V27.606ZM39.7,27.438a.168.168,0,0,1,.168.168V29.75H35.728c.012-.258.029-.515.049-.771,0-.036.006-.071.009-.107q.06-.722.166-1.434Zm37.8,10.65H53.443a1.072,1.072,0,1,0,0,2.145H76.394a16.012,16.012,0,0,1-31.952,0h3.5a1.072,1.072,0,1,0,0-2.145H31.408V33.45a1.568,1.568,0,0,1,1.576-1.555H87.852a1.556,1.556,0,0,1,1.553,1.555v4.638Z" transform="translate(0)"/>
    </g>
  </g>
</svg>
