<svg xmlns="http://www.w3.org/2000/svg" xmlns:xlink="http://www.w3.org/1999/xlink" width="86" height="86" viewBox="0 0 86 86">
  <defs>
    <filter id="Ellipse_11513" x="0" y="0" width="86" height="86" filterUnits="userSpaceOnUse">
      <feOffset dy="3" input="SourceAlpha"/>
      <feGaussianBlur stdDeviation="3" result="blur"/>
      <feFlood flood-opacity="0.161"/>
      <feComposite operator="in" in2="blur"/>
      <feComposite in="SourceGraphic"/>
    </filter>
  </defs>
  <g id="Group_1143909" data-name="Group 1143909" transform="translate(-186.627 -6370)">
    <g id="Group_1143774" data-name="Group 1143774" transform="translate(-630.373 5920)">
      <g id="Group_1143465" data-name="Group 1143465" transform="translate(630 -707)">
        <g transform="matrix(1, 0, 0, 1, 187, 1157)" filter="url(#Ellipse_11513)">
          <g id="Ellipse_11513-2" data-name="Ellipse 11513" transform="translate(9 6)" fill="#f7eafc" stroke="#652180" stroke-width="3">
            <circle cx="34" cy="34" r="34" stroke="none"/>
            <circle cx="34" cy="34" r="32.5" fill="none"/>
          </g>
        </g>
      </g>
    </g>
    <g id="Artboard421" transform="translate(190.625 6373.219)">
      <g id="Group_1143908" data-name="Group 1143908" transform="translate(7.002 10.437)">
        <g id="Group_1143907" data-name="Group 1143907" transform="translate(0.924 0.735)">
          <g id="Group_1143902" data-name="Group 1143902" transform="translate(9.26)">
            <path id="Path_905336" data-name="Path 905336" d="M121.926,20.495a19.023,19.023,0,0,1,5.577,2.312l3.624-1.608,4.27,4.27-1.608,3.624A19.025,19.025,0,0,1,136.1,34.67l3.7,1.423v6.041l-3.7,1.423a19.037,19.037,0,0,1-2.311,5.575l1.608,3.624-4.27,4.272-3.624-1.61a19.029,19.029,0,0,1-5.577,2.314l-1.423,3.7h-6.041l-1.423-3.7a19.04,19.04,0,0,1-5.575-2.311l-3.624,1.61-4.272-4.272,1.61-3.621a19.089,19.089,0,0,1-2.314-5.577l-3.7-1.423V36.093l3.7-1.423a19.031,19.031,0,0,1,2.314-5.577l-1.61-3.624,4.272-4.27,3.621,1.608a19.085,19.085,0,0,1,5.577-2.312l1.423-3.7H120.5Z" transform="translate(-95.168 -16.797)" fill="#ffe177" fill-rule="evenodd"/>
            <path id="Path_905337" data-name="Path 905337" d="M192.175,21.739l1.218-.54,4.27,4.27-1.608,3.624a19.026,19.026,0,0,1,2.311,5.577l3.7,1.423v6.041l-3.7,1.423a19.037,19.037,0,0,1-2.311,5.575l1.608,3.624-4.27,4.272-1.218-.54,3.732-3.732-1.61-3.624a19.037,19.037,0,0,0,2.312-5.575l3.7-1.423V36.093l-3.7-1.423a19.025,19.025,0,0,0-2.312-5.577l1.61-3.624Zm-26.61,0,.54-.54,3.621,1.608c-.256.142-.509.29-.756.445Zm18.627-1.244a19.023,19.023,0,0,1,5.577,2.312l-1,.445a24.889,24.889,0,0,0-6.336-2.757l-1.423-3.7h1.758ZM169.729,55.418l-3.624,1.61-.54-.54,3.405-1.513Q169.342,55.2,169.729,55.418Zm20.039,0a19.029,19.029,0,0,1-5.577,2.314l-1.423,3.7H181.01l1.423-3.7a24.948,24.948,0,0,0,6.339-2.757Z" transform="translate(-157.434 -16.797)" fill="#ffd064" fill-rule="evenodd"/>
          </g>
          <g id="Group_1143905" data-name="Group 1143905" transform="translate(18.227 8.967)">
            <g id="Group_1143903" data-name="Group 1143903">
              <path id="Path_905338" data-name="Path 905338" d="M186.15,121.126A13.348,13.348,0,1,0,172.8,107.779,13.372,13.372,0,0,0,186.15,121.126Z" transform="translate(-172.801 -94.43)" fill="#8ac9fe" fill-rule="evenodd"/>
              <path id="Path_905339" data-name="Path 905339" d="M283.372,121.114a13.348,13.348,0,0,0,0-26.671q.287-.012.578-.012a13.348,13.348,0,0,1,0,26.7Q283.659,121.126,283.372,121.114Z" transform="translate(-270.601 -94.43)" fill="#60b7ff" fill-rule="evenodd"/>
            </g>
            <path id="Path_905340" data-name="Path 905340" d="M183.329,119.575c1.372,4.094,4.186,4.877,4.668,5.373a2.464,2.464,0,0,1,1.025,2.116c.049,4.361,2.03,1.351,2.919,6.336.841,4.716,2.552,3.291,2.9.512.3-2.387,2.641-2.86,2.858-5.7.127-1.676-4.684-3.047-5.218-3-2.2.176-1.87.553-3.1-1.416-1.54-2.47,2.376-1,2.687-2.593.257-1.313,1.268-1.524,1.976-1.966a10.382,10.382,0,0,1,2.381-.672c.637-.171.627-.9.709-1.474.182-1.257-.091-1.447-1.2-1.6-1.838-.262-1.222-1.538-3.7-1.018-2.449.515-1.751.332-4.22-.415m.011,0a13.461,13.461,0,0,0-4.7,5.521" transform="translate(-182.113 -111.784)" fill="#6cf5c2" fill-rule="evenodd"/>
            <g id="Group_1143904" data-name="Group 1143904" transform="translate(16.954 3.402)">
              <path id="Path_905341" data-name="Path 905341" d="M324.866,123.886c-.3.271-1.958.533-2.786,1.291-.719.656-.4,2.14-.241,2.54.161.316,2.963-.077,3.308-.063,1.615.063.87,1.854.4,1.983a13.367,13.367,0,0,1-3.939-.265c-.436-.141-1.105.756-1.014.95.574,1.236-2.725,2.659.257,4.614,1.983.728,3.762-.918,3.677,3.137a9.479,9.479,0,0,1-.168,3.256c-.255,1.023,1.562,1.114,2.5.216a13.312,13.312,0,0,0-2-17.66Z" transform="translate(-319.586 -123.886)" fill="#6cf5c2" fill-rule="evenodd"/>
              <path id="Path_905342" data-name="Path 905342" d="M359.07,142.072a2.279,2.279,0,0,0,.947-.527,13.31,13.31,0,0,0-1.642-17.331,3.02,3.02,0,0,0,.8-.329,13.312,13.312,0,0,1,2,17.66A2.212,2.212,0,0,1,359.07,142.072Z" transform="translate(-353.894 -123.886)" fill="#00e499" fill-rule="evenodd"/>
            </g>
          </g>
          <g id="Group_1143906" data-name="Group 1143906" transform="translate(0 31.122)">
            <path id="Path_905343" data-name="Path 905343" d="M46.516,294.1,57.38,287.8c2.04-1.182,4.112-2.02,6.355-1.293,2.5.812,6.578,2.551,10.739,3.3a3.019,3.019,0,0,1,2.089,3.615c-.422,1.568-1.745,2.377-3.618,2.089l1.457.233a6.753,6.753,0,0,0,4.656-.812L89.5,288.853c8.12-4.728,9.312,2.547,6.614,4.211L77.159,304.735a6.958,6.958,0,0,1-5.628.792l-13.748-3.683-5.095,2.94a2.058,2.058,0,0,1-2.8-.753L45.766,296.9a2.06,2.06,0,0,1,.75-2.8Z" transform="translate(-41.971 -286.24)" fill="#f6dccd" fill-rule="evenodd"/>
            <path id="Path_905344" data-name="Path 905344" d="M228.418,334.246a2.981,2.981,0,0,1-3.369,1.437c-2.249-.6-4.5-1.2-6.751-1.807a1.131,1.131,0,1,1,.586-2.184Z" transform="translate(-194.076 -326.408)" fill="#f1cbbc" fill-rule="evenodd"/>
            <path id="Path_905345" data-name="Path 905345" d="M46.516,294.1,57.38,287.8c2.04-1.182,4.112-2.02,6.355-1.293,1.336.432,3.127,1.133,5.137,1.8L47.826,300.469,45.766,296.9A2.06,2.06,0,0,1,46.516,294.1Z" transform="translate(-41.971 -286.24)" fill="#f1cbbc" fill-rule="evenodd"/>
            <path id="Path_905346" data-name="Path 905346" d="M20.805,321.19l8.617,15.225a1.544,1.544,0,0,1-.579,2.1l-2.934,1.66a1.544,1.544,0,0,1-2.1-.583L15.2,324.363a1.538,1.538,0,0,1,.579-2.1l2.93-1.66A1.542,1.542,0,0,1,20.805,321.19Z" transform="translate(-15 -316.463)" fill="#d1d1d6" fill-rule="evenodd"/>
            <path id="Path_905347" data-name="Path 905347" d="M56.08,331.651l1.522,2.695,1.509,2.665a1.541,1.541,0,0,1-.576,2.092l1.048-.593a1.544,1.544,0,0,0,.579-2.1L58.65,333.74l-3.038-5.37L52.57,323l-1.025-1.807a1.544,1.544,0,0,0-1.791-.714l1.771,3.13,3.038,5.37,1.513,2.672Z" transform="translate(-45.74 -316.463)" fill="#b1b1b5" fill-rule="evenodd"/>
          </g>
        </g>
        <path id="Path_905348" data-name="Path 905348" d="M22.222,60.049l.885,1.564v0a2.466,2.466,0,0,1-.93,3.346l-2.921,1.655,0,0a2.466,2.466,0,0,1-3.346-.93L7.321,50.512a2.462,2.462,0,0,1,.925-3.349l2.924-1.655h0a2.468,2.468,0,0,1,3.347.927v0l.73,1.29,6.9-3.992a20.025,20.025,0,0,1-2.04-4.923L16.853,37.56a.924.924,0,0,1-.592-.862V30.66a.924.924,0,0,1,.592-.862l3.25-1.251a20.05,20.05,0,0,1,2.056-4.955l-1.416-3.185a.924.924,0,0,1,.191-1.029L25.2,15.11a.924.924,0,0,1,1.029-.191l3.185,1.416a19.908,19.908,0,0,1,4.949-2.051l1.256-3.256a.924.924,0,0,1,.862-.591h6.038a.924.924,0,0,1,.863.593l1.251,3.255a19.9,19.9,0,0,1,4.949,2.051l3.185-1.416a.924.924,0,0,1,1.029.191l4.268,4.268a.924.924,0,0,1,.191,1.028l-1.411,3.186A19.869,19.869,0,0,1,58.9,28.547l3.249,1.25a.924.924,0,0,1,.592.862V36.7a.924.924,0,0,1-.592.862L58.9,38.811a20.034,20.034,0,0,1-1.765,4.438c2.553-1,4.343-.714,5.456.033a4.022,4.022,0,0,1,1.7,3.5,3.979,3.979,0,0,1-1.733,3.291L43.66,61.7a7.825,7.825,0,0,1-6.334.9h0L23.987,59.03ZM16.159,49.335l5.153,9.105,2.083-1.2a.924.924,0,0,1,.7-.092L37.8,60.819a6.037,6.037,0,0,0,4.887-.687h0L61.588,48.5a2.054,2.054,0,0,0,.846-1.613,2.116,2.116,0,0,0-1.64-2.379c-1.12-.235-2.7.13-4.847,1.38L45.533,51.951a7.648,7.648,0,0,1-5.254.925h0l-1.292-.21-.037-.007h0C36.6,52.175,34.419,51.466,32,50.816a.924.924,0,1,1,.48-1.785c2.366.636,4.5,1.333,6.8,1.808a2.012,2.012,0,0,0,2.407-1.43h0a2.082,2.082,0,0,0-1.418-2.469c-4.171-.764-8.255-2.5-10.759-3.308h0c-1.977-.642-3.789.169-5.588,1.21Zm7.593-6.512a9.984,9.984,0,0,1,3.873-1.245A14.266,14.266,0,1,1,43.3,47.433a3.748,3.748,0,0,1,.17,2.456,4.263,4.263,0,0,1-.463,1.1,5.728,5.728,0,0,0,1.595-.64l10.414-6.065.034-.02-.088-.2a.924.924,0,0,1,.057-.857,18.229,18.229,0,0,0,2.2-5.307.924.924,0,0,1,.567-.649l3.1-1.195V31.295l-3.1-1.195a.924.924,0,0,1-.567-.649,18.031,18.031,0,0,0-2.2-5.31.924.924,0,0,1-.058-.859l1.349-3.044L52.94,16.865,49.9,18.219a.924.924,0,0,1-.86-.058,18.063,18.063,0,0,0-5.3-2.2.925.925,0,0,1-.649-.568l-1.195-3.11H37.118l-1.2,3.112a.924.924,0,0,1-.648.566,18.065,18.065,0,0,0-5.3,2.2.924.924,0,0,1-.86.058L26.06,16.865,22.69,20.236l1.353,3.044a.924.924,0,0,1-.058.86,18.207,18.207,0,0,0-2.2,5.313.924.924,0,0,1-.567.647l-3.1,1.195v4.769l3.1,1.195a.924.924,0,0,1,.566.646,18.207,18.207,0,0,0,1.972,4.919Zm6.468-.9c1.374.454,3.2,1.172,5.249,1.844a12.781,12.781,0,0,1-.4-1.659,5.114,5.114,0,0,0-.822-2.323A4.951,4.951,0,0,0,33.263,39c-.567-.471-1.1-1.155-1.126-3.379a1.688,1.688,0,0,0-.746-1.464c-.041-.024-.453-.269-.8-.479a8.87,8.87,0,0,1-3.121-3.107A12.393,12.393,0,0,0,30.22,41.921ZM39.1,44.808c.516.122,1.036.232,1.558.326a.922.922,0,0,1,.12.03,4.205,4.205,0,0,1,1.275.67,12.412,12.412,0,0,0,5.886-3.057,1.575,1.575,0,0,1-.876-.8,1.517,1.517,0,0,1-.083-1.029,8.8,8.8,0,0,0,.141-3.053,6.189,6.189,0,0,0-.1-1.427.881.881,0,0,0-.17-.421.4.4,0,0,0-.255-.084,4.954,4.954,0,0,0-.564-.029,5.856,5.856,0,0,1-1.987-.289.925.925,0,0,1-.188-.095,3.456,3.456,0,0,1-1.6-1.9,2.537,2.537,0,0,1,.251-1.868c.163-.323.376-.633.555-.928a3.719,3.719,0,0,0,.181-.366,1.035,1.035,0,0,1-.064-.462,1.891,1.891,0,0,1,.381-.878,2.4,2.4,0,0,1,1-.792,1.449,1.449,0,0,1,.252-.067.979.979,0,0,1-.279-.315c-.013-.025-.024-.051-.035-.077a4.83,4.83,0,0,1-.263-1.892,2.492,2.492,0,0,1,.739-1.672,5.081,5.081,0,0,1,1.56-.892,12.383,12.383,0,0,0-12.144-1.094,6.817,6.817,0,0,0,1.694-.248c1.684-.354,2.306-.011,2.83.379a2.08,2.08,0,0,0,1.188.629,2.484,2.484,0,0,1,1.666.719,2.368,2.368,0,0,1,.315,1.931,4.78,4.78,0,0,1-.287,1.31A1.621,1.621,0,0,1,40.7,28a9.377,9.377,0,0,0-2.132.564h0c-.23.143-.488.266-.745.4a1.313,1.313,0,0,0-.813.956,1.991,1.991,0,0,1-1.706,1.518c-.336.078-.873.176-1.2.233.029.059.062.12.1.175.28.449.473.77.636,1,.031.043.075.1.1.13.158-.017.8-.085,1.5-.141h0a4.33,4.33,0,0,1,1.123.177A13.118,13.118,0,0,1,41.291,34.6a2.647,2.647,0,0,1,1.364,2.225h0a5.8,5.8,0,0,1-1.614,3.544,4.076,4.076,0,0,0-1.248,2.2,6.217,6.217,0,0,1-.688,2.24ZM49.671,40.8a12.384,12.384,0,0,0,.864-12.82,2.386,2.386,0,0,1-.209,1.433,1.823,1.823,0,0,1-1.012.962h0a15.929,15.929,0,0,1-4.172-.2l-.052.06a2.466,2.466,0,0,1-.437,1.582c-.135.222-.293.452-.426.692a.968.968,0,0,0-.19.605c.043.276.29.52.751.832a6.989,6.989,0,0,0,1.833.164,2.341,2.341,0,0,1,1.513.6c.481.46.88,1.355.84,3.227a10.808,10.808,0,0,1-.122,3.147H48.9a1.43,1.43,0,0,0,.772-.285Zm.3-13.789A12.536,12.536,0,0,0,48.2,24.823l-.091.032a5.482,5.482,0,0,0-1.887.848h0a.657.657,0,0,0-.143.453,2.7,2.7,0,0,0,.025.595c.183,0,.4,0,.6-.017.858-.057,1.808-.167,2-.159a2.034,2.034,0,0,1,1.27.434Zm-17.749-3.4a12.534,12.534,0,0,0-3.86,4.557,7.49,7.49,0,0,0,3.592,4.165,5.06,5.06,0,0,1,.627.411,2.279,2.279,0,0,1-.409-1.691,1.561,1.561,0,0,1,1.151-1.122,10.673,10.673,0,0,1,1.307-.246,3.1,3.1,0,0,0,.413-.093,1.331,1.331,0,0,0,.158-.068,2.9,2.9,0,0,1,1.471-2.036c.308-.186.636-.323.915-.5a10.6,10.6,0,0,1,2.55-.759c.016-.057.039-.146.048-.2.027-.177.043-.36.067-.529v0a4.008,4.008,0,0,0,.034-.47c-.11-.026-.287-.065-.445-.087h0a3.288,3.288,0,0,1-1.548-.6c-.126-.09-.238-.183-.348-.272a.918.918,0,0,0-.4-.238,2.692,2.692,0,0,0-1.081.079c-2.559.538-2.019.41-4.241-.3ZM12.911,47.348v0a.614.614,0,0,0-.831-.231L9.156,48.771h0a.609.609,0,0,0-.227.829h0l8.589,15.176h0a.613.613,0,0,0,.831.229l2.919-1.654h0a.613.613,0,0,0,.229-.832ZM11.719,49a1.212,1.212,0,1,1-1.026,1.373A1.212,1.212,0,0,1,11.719,49Zm35.12-20.431a13.62,13.62,0,0,0,1.8.046l.063-.186c-.024,0-.048-.006-.07-.007h0C48.453,28.414,47.627,28.513,46.839,28.569Zm-13,5.9a4.321,4.321,0,0,1,.145,1.13h0a3.371,3.371,0,0,0,.314,1.826c.23.324.555.421.869.678.607.5,1.3,1.315,1.721,3.68a9.16,9.16,0,0,0,.472,1.792,2.26,2.26,0,0,0,.13.262,5.641,5.641,0,0,0,.468-1.493,5.036,5.036,0,0,1,1.275-2.693,4.867,4.867,0,0,0,1.579-2.962c.007-.1-.1-.157-.181-.243a4.014,4.014,0,0,0-.961-.665,17.031,17.031,0,0,0-3.127-1.1c-.641.053-1.066.122-1.376.141a2.075,2.075,0,0,1-.89-.1,1.624,1.624,0,0,1-.438-.246Z" transform="translate(-7.002 -10.437)" fill-rule="evenodd"/>
      </g>
    </g>
  </g>
</svg>
