<svg xmlns="http://www.w3.org/2000/svg" xmlns:xlink="http://www.w3.org/1999/xlink" width="91" height="91" viewBox="0 0 91 91">
  <defs>
    <filter id="Ellipse_11513" x="0" y="0" width="91" height="91" filterUnits="userSpaceOnUse">
      <feOffset dy="3" input="SourceAlpha"/>
      <feGaussianBlur stdDeviation="3" result="blur"/>
      <feFlood flood-opacity="0.161"/>
      <feComposite operator="in" in2="blur"/>
      <feComposite in="SourceGraphic"/>
    </filter>
  </defs>
  <g id="Group_1143817" data-name="Group 1143817" transform="translate(-1227 -924)">
    <g id="Group_1143705" data-name="Group 1143705" transform="translate(1236.024 930)">
      <g id="Group_1143465" data-name="Group 1143465">
        <g transform="matrix(1, 0, 0, 1, -9.02, -6)" filter="url(#Ellipse_11513)">
          <g id="Ellipse_11513-2" data-name="Ellipse 11513" transform="translate(9 6)" fill="#f7eafc" stroke="#652180" stroke-width="3">
            <circle cx="36.5" cy="36.5" r="36.5" stroke="none"/>
            <circle cx="36.5" cy="36.5" r="35" fill="none"/>
          </g>
        </g>
      </g>
    </g>
    <g id="progress_737260" transform="translate(1221.568 940.258)">
      <g id="Group_1143814" data-name="Group 1143814" transform="translate(32.468 0.784)">
        <circle id="Ellipse_11561" data-name="Ellipse 11561" cx="3.693" cy="3.693" r="3.693" transform="translate(6.591)" fill="#f0a479"/>
        <path id="Path_905126" data-name="Path 905126" d="M75.887,104.76a1.3,1.3,0,0,0-1.826-.177l-3.675,3.025-4.175-3.069c-.476-.35-.349-.252-7.305-.252v0a1.29,1.29,0,0,0-.841.282l-5.56,4.448a1.3,1.3,0,0,0-.431,1.389l1.894,6.25a1.3,1.3,0,1,0,2.483-.752l-1.639-5.41,3.356-2.685v20.07a1.245,1.245,0,0,0,1.245,1.245h1.128a1.245,1.245,0,0,0,1.245-1.245v-9.2c.044-.583.61-1.367,1.4-.955,1.146.719,2.967,1.923,4.728,3.118l-1.625,4.8a1.752,1.752,0,1,0,3.319,1.125l2.053-6.058a1.752,1.752,0,0,0-.669-2.007c-.13-.089-2.578-1.765-4.559-3.056v-7.729c3.547,2.607,3.45,2.629,4,2.629.62,0,.45.013,5.279-3.962A1.3,1.3,0,0,0,75.887,104.76Z" transform="translate(-52.019 -94.37)" fill="#f0a479"/>
      </g>
      <path id="Path_905127" data-name="Path 905127" d="M121.08,7.786a3.694,3.694,0,1,0,0,7.074A3.7,3.7,0,0,1,121.08,7.786Z" transform="translate(-77.263 -6.845)" fill="#ea976e"/>
      <path id="Path_905128" data-name="Path 905128" d="M82.722,292.746l-.711-4.655a1.814,1.814,0,0,0-1.54-1.522l-4.591-.646a1.814,1.814,0,0,0-.506,3.593l.71.1L65.05,299.929,53.1,293.539a1.814,1.814,0,0,0-2.081.262L38.646,305.146A1.814,1.814,0,1,0,41.1,307.82l11.427-10.476,11.959,6.4a1.814,1.814,0,0,0,2.094-.274l12.348-11.543.209,1.37a1.814,1.814,0,0,0,3.586-.547Z" transform="translate(-7.021 -256.597)" fill="#ea473b"/>
      <g id="Group_1143815" data-name="Group 1143815" transform="translate(31.033 29.308)">
        <path id="Path_905129" data-name="Path 905129" d="M40.462,370.806l12.375-11.345a1.814,1.814,0,0,1,1.131-.474l-.9-.484a1.814,1.814,0,0,0-2.081.262L38.607,370.111a1.815,1.815,0,0,0,1.619,3.106A1.814,1.814,0,0,1,40.462,370.806Z" transform="translate(-38.014 -350.868)" fill="#db302c"/>
        <path id="Path_905130" data-name="Path 905130" d="M313.407,291.112c.667-.624.071-.9-.142-.969-.023-.007-.047-.013-.069-.021h0a1.813,1.813,0,0,1-.965-2.6h0a2.755,2.755,0,0,1,2.261-1.275l-2.285-.322a1.814,1.814,0,0,0-.506,3.593l.71.1-11.034,10.314.452.169a2.3,2.3,0,0,0,2.222-.238Z" transform="translate(-274.378 -285.904)" fill="#db302c"/>
      </g>
      <g id="Group_1143816" data-name="Group 1143816" transform="translate(32.468 10.702)">
        <path id="Path_905131" data-name="Path 905131" d="M54.2,110.52a1.3,1.3,0,0,1,.431-1.389l5.56-4.449a1.29,1.29,0,0,1,.841-.282v0H58.906v0a1.29,1.29,0,0,0-.841.282l-5.56,4.449a1.3,1.3,0,0,0-.431,1.389l1.894,6.25a1.3,1.3,0,0,0,2.3.366C56.107,116.9,56.259,117.313,54.2,110.52Z" transform="translate(-52.018 -104.398)" fill="#ea976e"/>
        <path id="Path_905132" data-name="Path 905132" d="M114.13,154.522V136.467c0-4.006-2.127-2.015-2.127-2.015v20.07a1.245,1.245,0,0,0,1.245,1.245c1.205,0,1.321.029,1.627-.105A1.245,1.245,0,0,1,114.13,154.522Z" transform="translate(-105.854 -130.927)" fill="#ea976e"/>
      </g>
      <path id="Path_905133" data-name="Path 905133" d="M112.531,8.943a4.472,4.472,0,1,0-4.472-4.472A4.477,4.477,0,0,0,112.531,8.943Zm0-7.387a2.915,2.915,0,1,1-2.915,2.915A2.918,2.918,0,0,1,112.531,1.556Z" transform="translate(-69.846)"/>
      <path id="Path_905134" data-name="Path 905134" d="M76.491,285.651l-.712-4.66a2.578,2.578,0,0,0-2.2-2.177l-4.6-.647a2.594,2.594,0,0,0-1.5,4.9l-9.57,8.945-11.468-6.134a2.6,2.6,0,0,0-2.977.375L31.075,297.609a2.594,2.594,0,0,0,3.506,3.824l11.032-10.114L57.1,297.461a2.593,2.593,0,0,0,2.995-.392l4.493-4.2a.778.778,0,0,0-1.063-1.137l-4.493,4.2a1.037,1.037,0,0,1-1.2.157l-11.971-6.4a.778.778,0,0,0-.893.113c-12.439,11.4-11.57,10.76-12.14,10.76a1.039,1.039,0,0,1-.7-1.8L44.515,287.4a1.039,1.039,0,0,1,1.191-.15l11.959,6.4a.778.778,0,0,0,.9-.118L69.609,283.2a.779.779,0,0,0-.423-1.339l-.711-.1a1.038,1.038,0,0,1,.289-2.055l4.6.647a1.031,1.031,0,0,1,.881.871l.712,4.66a1.038,1.038,0,0,1-2.052.313l-.209-1.371a.779.779,0,0,0-1.3-.451l-5.214,4.874a.778.778,0,0,0,1.063,1.137l4.137-3.867a2.594,2.594,0,0,0,5.114-.87Z" transform="translate(0 -249.63)"/>
      <path id="Path_905135" data-name="Path 905135" d="M45.73,110.122a2.075,2.075,0,1,0,3.972-1.2l-1.486-4.906,1.68-1.344v18.45a2.026,2.026,0,0,0,2.023,2.023h1.128a2.026,2.026,0,0,0,2.023-2.023v-3.184a.778.778,0,0,0-1.556,0v3.184a.467.467,0,0,1-.467.467H51.92a.468.468,0,0,1-.467-.467v-20.07a.778.778,0,0,0-1.264-.608l-3.356,2.685a.778.778,0,0,0-.259.833l1.639,5.41a.519.519,0,1,1-.993.3l-1.894-6.25a.517.517,0,0,1,.172-.556c5.962-4.77,5.627-4.569,5.9-4.561.063,0,6.284-.006,6.35,0,.592.062-.364-.548,4.688,3.166a.778.778,0,0,0,.955-.026c3.973-3.27,3.759-3.168,4.055-3.141a.519.519,0,0,1,.279.917l-4.454,3.666a.53.53,0,0,1-.637.018L59.4,100.528a.779.779,0,0,0-1.239.627v7.729c0,.619.093.4,4.9,3.7a.977.977,0,0,1,.372,1.116l-2.053,6.058a.974.974,0,1,1-1.845-.625l1.625-4.8a.778.778,0,0,0-.3-.894c-2.782-1.887-4.679-3.1-4.8-3.163a1.784,1.784,0,0,0-2.536,1.645V114.3a.778.778,0,0,0,1.556,0c0-2.565-.063-2.446.193-2.673.164.04,3.845,2.508,4.227,2.767l-1.435,4.235a2.53,2.53,0,1,0,4.793,1.624L64.9,114.2a2.539,2.539,0,0,0-.964-2.9c-.117-.081-2.365-1.619-4.223-2.836v-5.771l2,1.467a2.075,2.075,0,0,0,2.548-.07l4.454-3.666a2.075,2.075,0,1,0-2.638-3.2l-3.208,2.64c-4.231-3.11-3.967-3.113-5.175-3.113-.042,0-6.288,0-6.33,0a2.076,2.076,0,0,0-1.274.453l-5.56,4.448a2.066,2.066,0,0,0-.689,2.222Z" transform="translate(-12.126 -86.828)"/>
    </g>
  </g>
</svg>
