<svg xmlns="http://www.w3.org/2000/svg" xmlns:xlink="http://www.w3.org/1999/xlink" width="86" height="86" viewBox="0 0 86 86">
  <defs>
    <filter id="Ellipse_11513" x="0" y="0" width="86" height="86" filterUnits="userSpaceOnUse">
      <feOffset dy="3" input="SourceAlpha"/>
      <feGaussianBlur stdDeviation="3" result="blur"/>
      <feFlood flood-opacity="0.161"/>
      <feComposite operator="in" in2="blur"/>
      <feComposite in="SourceGraphic"/>
    </filter>
  </defs>
  <g id="Group_1144057" data-name="Group 1144057" transform="translate(-186.627 -6173)">
    <g id="Group_1143771" data-name="Group 1143771" transform="translate(-0.373 5723)">
      <g id="Group_1143465" data-name="Group 1143465" transform="translate(0 -707)">
        <g transform="matrix(1, 0, 0, 1, 187, 1157)" filter="url(#Ellipse_11513)">
          <g id="Ellipse_11513-2" data-name="Ellipse 11513" transform="translate(9 6)" fill="#f7eafc" stroke="#361245" stroke-width="3">
            <circle cx="34" cy="34" r="34" stroke="none"/>
            <circle cx="34" cy="34" r="32.5" fill="none"/>
          </g>
        </g>
      </g>
    </g>
    <g id="settings_563061" transform="translate(190.626 6176)">
      <path id="Path_905074" data-name="Path 905074" d="M96.87,223.828a13.3,13.3,0,1,1-14.316-14.32,21.865,21.865,0,0,1-.832-3.787,17.148,17.148,0,1,0,18.935,18.941A21.85,21.85,0,0,1,96.87,223.828Z" transform="translate(-56.989 -176.389)" fill="#666"/>
      <g id="Group_1143809" data-name="Group 1143809" transform="translate(1.138 23.929)">
        <path id="Path_905075" data-name="Path 905075" d="M178.1,228.266c.015.053.03.106.046.159C178.134,228.372,178.119,228.319,178.1,228.266Z" transform="translate(-153.848 -219.649)" fill="#898888"/>
        <path id="Path_905076" data-name="Path 905076" d="M176.5,222.174c.011.044.022.089.033.133Z" transform="translate(-152.47 -214.426)" fill="#898888"/>
        <path id="Path_905077" data-name="Path 905077" d="M54.806,199.635l-1.141-.659a21.734,21.734,0,0,0,1.171-3.527,2.846,2.846,0,0,1-2.563.216,2.394,2.394,0,0,1-1.472-2.033v-1.421c-.062-.007-.275-.037-.29-.039a17.148,17.148,0,1,1-18.935-18.941c.006.043-.032-.228-.038-.287H30.111a2.394,2.394,0,0,1-2.033-1.472,2.847,2.847,0,0,1,.213-2.558,21.725,21.725,0,0,0-3.514,1.167l-.661-1.144a2.572,2.572,0,0,0-4.229-.011,2.393,2.393,0,0,0-.258,2.5l.71,1.229a22.312,22.312,0,0,0-4.49,4.49l-1.153-.666a2.571,2.571,0,0,0-3.668,2.105,2.394,2.394,0,0,0,1.025,2.291l1.226.708a21.794,21.794,0,0,0-1.633,6.126H10.311a2.571,2.571,0,0,0-2.124,3.657,2.393,2.393,0,0,0,2.033,1.472h1.426a21.8,21.8,0,0,0,1.633,6.131l-1.148.663a2.571,2.571,0,0,0-.011,4.229,2.394,2.394,0,0,0,2.5.258l1.231-.711a22.31,22.31,0,0,0,4.488,4.49l-.666,1.153a2.571,2.571,0,0,0,2.105,3.668,2.394,2.394,0,0,0,2.291-1.025l.708-1.226A21.8,21.8,0,0,0,30.91,212.1v1.421a2.394,2.394,0,0,0,1.472,2.033,2.571,2.571,0,0,0,3.657-2.124V212.1a21.8,21.8,0,0,0,6.133-1.635l.706,1.223a2.394,2.394,0,0,0,2.291,1.025,2.571,2.571,0,0,0,2.105-3.668l-.664-1.15a22.3,22.3,0,0,0,4.485-4.484l1.227.708a2.394,2.394,0,0,0,2.5-.258A2.571,2.571,0,0,0,54.806,199.635Z" transform="translate(-7.981 -167.829)" fill="#898888"/>
        <path id="Path_905078" data-name="Path 905078" d="M174.444,212.217l.011.062Z" transform="translate(-150.71 -205.888)" fill="#898888"/>
        <path id="Path_905079" data-name="Path 905079" d="M299.417,337.523l-.055-.009Z" transform="translate(-257.817 -313.32)" fill="#898888"/>
        <path id="Path_905080" data-name="Path 905080" d="M289.025,335.333l-.132-.033Z" transform="translate(-248.841 -311.422)" fill="#898888"/>
        <path id="Path_905081" data-name="Path 905081" d="M282.768,333.645l-.161-.046Z" transform="translate(-243.451 -309.964)" fill="#898888"/>
      </g>
      <path id="Path_905082" data-name="Path 905082" d="M195.138,30.9h-1.325a21.8,21.8,0,0,0-1.637-6.135l1.22-.7a2.393,2.393,0,0,0,1.025-2.291,2.571,2.571,0,0,0-3.668-2.105l-1.148.663a22.309,22.309,0,0,0-4.486-4.484l.708-1.226a2.394,2.394,0,0,0-.258-2.5,2.571,2.571,0,0,0-4.229.011l-.659,1.142a21.8,21.8,0,0,0-6.131-1.634v-1.33a2.571,2.571,0,0,0-3.657-2.124,2.394,2.394,0,0,0-1.472,2.033v1.421a21.8,21.8,0,0,0-6.133,1.635l-.661-1.144a2.571,2.571,0,0,0-4.229-.011,2.393,2.393,0,0,0-.258,2.5l.71,1.229a22.308,22.308,0,0,0-4.49,4.49l-1.153-.666a2.571,2.571,0,0,0-3.668,2.105,2.394,2.394,0,0,0,1.025,2.291l1.226.708A21.8,21.8,0,0,0,150.16,30.9h-1.336a2.571,2.571,0,0,0-2.124,3.657,2.394,2.394,0,0,0,2.033,1.472h1.426a21.8,21.8,0,0,0,1.633,6.131l-1.148.663a2.571,2.571,0,0,0-.011,4.229,2.394,2.394,0,0,0,2.5.258l1.231-.711a22.3,22.3,0,0,0,4.489,4.49l-.666,1.153a2.571,2.571,0,0,0,2.105,3.668,2.394,2.394,0,0,0,2.291-1.025l.708-1.226a21.8,21.8,0,0,0,6.136,1.636v1.421a2.394,2.394,0,0,0,1.472,2.033,2.571,2.571,0,0,0,3.657-2.124V55.3a21.8,21.8,0,0,0,6.133-1.635l.706,1.223a2.393,2.393,0,0,0,2.291,1.025,2.571,2.571,0,0,0,2.105-3.668l-.664-1.15a22.3,22.3,0,0,0,4.485-4.484l1.227.708a2.394,2.394,0,0,0,2.5-.258,2.571,2.571,0,0,0-.011-4.229l-1.141-.659a21.8,21.8,0,0,0,1.637-6.14h1.415a2.394,2.394,0,0,0,2.033-1.472A2.571,2.571,0,0,0,195.138,30.9ZM171.981,47.838A14.368,14.368,0,1,1,186.348,33.47,14.384,14.384,0,0,1,171.981,47.838Z" transform="translate(-125.606 -6.844)" fill="#b3b3b3"/>
      <path id="Path_905083" data-name="Path 905083" d="M230.721,98.494A17.148,17.148,0,1,1,237,75.069,17.168,17.168,0,0,1,230.721,98.494ZM215.5,72.126a13.3,13.3,0,1,0,18.166,4.867A13.313,13.313,0,0,0,215.5,72.126Z" transform="translate(-175.772 -57.016)" fill="#7f7e7d"/>
      <path id="Path_905084" data-name="Path 905084" d="M189.569,96.458a21.885,21.885,0,0,1-31.256-30.392,22.3,22.3,0,0,0-3.953,4.074l-1.153-.666a2.571,2.571,0,0,0-3.668,2.105,2.394,2.394,0,0,0,1.025,2.291l1.226.708a21.794,21.794,0,0,0-1.633,6.126h-1.336a2.571,2.571,0,0,0-2.124,3.657,2.394,2.394,0,0,0,2.033,1.472h1.426a21.8,21.8,0,0,0,1.633,6.131l-1.148.663a2.571,2.571,0,0,0-.011,4.229,2.394,2.394,0,0,0,2.5.258l1.231-.711a22.306,22.306,0,0,0,4.489,4.49l-.666,1.153a2.571,2.571,0,0,0,2.105,3.668,2.394,2.394,0,0,0,2.291-1.025l.708-1.226a21.8,21.8,0,0,0,6.136,1.636v1.421a2.394,2.394,0,0,0,1.472,2.033,2.571,2.571,0,0,0,3.657-2.124V105.1a21.8,21.8,0,0,0,6.133-1.635l.706,1.223a2.393,2.393,0,0,0,2.291,1.025,2.571,2.571,0,0,0,2.105-3.668l-.664-1.15A22.29,22.29,0,0,0,189.569,96.458Z" transform="translate(-125.605 -56.646)" fill="#a2a2a3"/>
      <path id="Path_905085" data-name="Path 905085" d="M210.453,98.566A17.173,17.173,0,0,1,215.284,76.5a17.148,17.148,0,1,0,17.04,29.513A17.175,17.175,0,0,1,210.453,98.566Z" transform="translate(-175.763 -65.59)" fill="#666"/>
      <path id="Path_905086" data-name="Path 905086" d="M51.056,234.97A21.885,21.885,0,0,1,19.8,204.579a22.3,22.3,0,0,0-3.953,4.074l-1.153-.666a2.571,2.571,0,0,0-3.668,2.105,2.394,2.394,0,0,0,1.025,2.291l1.226.708a21.8,21.8,0,0,0-1.633,6.126H10.309a2.571,2.571,0,0,0-2.124,3.657,2.394,2.394,0,0,0,2.033,1.472h1.426a21.8,21.8,0,0,0,1.633,6.131l-1.148.663a2.571,2.571,0,0,0-.011,4.229,2.394,2.394,0,0,0,2.5.258l1.231-.711a22.307,22.307,0,0,0,4.489,4.49l-.666,1.153a2.571,2.571,0,0,0,2.105,3.668,2.394,2.394,0,0,0,2.291-1.025l.708-1.226a21.8,21.8,0,0,0,6.136,1.636v1.421a2.394,2.394,0,0,0,1.472,2.033,2.571,2.571,0,0,0,3.657-2.124v-1.33a21.8,21.8,0,0,0,6.133-1.635l.706,1.223a2.394,2.394,0,0,0,2.291,1.025,2.571,2.571,0,0,0,2.105-3.668l-.664-1.15A22.3,22.3,0,0,0,51.056,234.97Z" transform="translate(-6.841 -175.41)" fill="#7f7e7d"/>
      <path id="Path_905087" data-name="Path 905087" d="M72.11,237.375a17.174,17.174,0,0,1,4.664-22.368,17.148,17.148,0,1,0,17.04,29.514A17.174,17.174,0,0,1,72.11,237.375Z" transform="translate(-57 -184.351)" fill="#5a5b5b"/>
      <path id="Path_905088" data-name="Path 905088" d="M69.212,22.918a22.878,22.878,0,0,0-1.228-4.605l.413-.238a3.433,3.433,0,0,0,1.546-3.388,3.636,3.636,0,0,0-5.258-2.861l-.343.2A23.362,23.362,0,0,0,60.976,8.66l.243-.421a3.433,3.433,0,0,0-.355-3.707,3.635,3.635,0,0,0-5.984.152l-.194.335a22.85,22.85,0,0,0-4.6-1.226A3.45,3.45,0,0,0,48.608.66,3.925,3.925,0,0,0,44.979.274a3.433,3.433,0,0,0-2.161,3.033v.488a22.87,22.87,0,0,0-4.6,1.226,3.449,3.449,0,0,0-2.843-1.97,3.929,3.929,0,0,0-3.336,1.48,3.433,3.433,0,0,0-.355,3.707l.245.424a23.359,23.359,0,0,0-3.369,3.37,3.455,3.455,0,0,0-3.457-.29,3.927,3.927,0,0,0-2.149,2.949A3.433,3.433,0,0,0,24.5,18.079l.42.242a22.862,22.862,0,0,0-1.225,4.6,3.468,3.468,0,0,0-2.949,1.228,23.032,23.032,0,0,0-2.419.767,3.442,3.442,0,0,0-2.844-1.97,3.924,3.924,0,0,0-3.336,1.48,3.433,3.433,0,0,0-.355,3.707l.245.424a23.357,23.357,0,0,0-3.369,3.369,3.455,3.455,0,0,0-3.457-.29,3.928,3.928,0,0,0-2.149,2.95,3.434,3.434,0,0,0,1.546,3.388l.42.242A22.848,22.848,0,0,0,3.8,42.81,3.456,3.456,0,0,0,.66,44.287a3.927,3.927,0,0,0-.387,3.629,3.433,3.433,0,0,0,3.033,2.161H3.8a22.863,22.863,0,0,0,1.225,4.6,3.447,3.447,0,0,0-1.973,2.845,3.929,3.929,0,0,0,1.48,3.336,3.433,3.433,0,0,0,3.707.355l.426-.246a23.353,23.353,0,0,0,3.368,3.369,3.456,3.456,0,0,0-.29,3.458,3.926,3.926,0,0,0,2.949,2.149A3.432,3.432,0,0,0,18.079,68.4l.242-.419a22.862,22.862,0,0,0,4.606,1.227v.488a3.433,3.433,0,0,0,2.161,3.033,3.927,3.927,0,0,0,3.629-.387,3.524,3.524,0,0,0,1.477-3.134,22.86,22.86,0,0,0,4.6-1.227l.24.416a3.433,3.433,0,0,0,3.388,1.546,3.636,3.636,0,0,0,2.861-5.258l-.2-.345a23.371,23.371,0,0,0,3.364-3.364l.422.243a3.433,3.433,0,0,0,3.707-.355,3.636,3.636,0,0,0-.152-5.984l-.335-.193a23,23,0,0,0,.771-2.433,3.535,3.535,0,0,0,1.222-2.938,22.863,22.863,0,0,0,4.6-1.227l.241.416a3.432,3.432,0,0,0,3.388,1.546,3.928,3.928,0,0,0,2.95-2.149,3.528,3.528,0,0,0-.288-3.455,23.344,23.344,0,0,0,3.364-3.364l.422.244a3.434,3.434,0,0,0,3.707-.355,3.927,3.927,0,0,0,1.48-3.336,3.519,3.519,0,0,0-1.966-2.842,22.864,22.864,0,0,0,1.228-4.61h.481a3.434,3.434,0,0,0,3.033-2.161,3.927,3.927,0,0,0-.387-3.629A3.52,3.52,0,0,0,69.212,22.918Zm-44.3,11.869-.341.2a3.636,3.636,0,0,0-.152,5.984,3.433,3.433,0,0,0,3.707.355l.426-.246a23.465,23.465,0,0,0,3.368,3.369l-.2.348a3.636,3.636,0,0,0,2.86,5.258,3.435,3.435,0,0,0,3.388-1.546l.242-.419c.144.055.289.108.435.16a12.238,12.238,0,0,1-19.3,8.07,1.069,1.069,0,0,0-1.264,1.726,14.383,14.383,0,0,0,22.633-9.162q.829.212,1.673.361A16.079,16.079,0,1,1,23.763,30.611q.149.845.361,1.674a14.383,14.383,0,0,0-9.729,21.806A1.07,1.07,0,0,0,16.2,52.95a12.251,12.251,0,0,1,8.553-18.6C24.809,34.5,24.861,34.643,24.915,34.787Zm22.313,24.42a1.353,1.353,0,0,1-1.286.161l-1.227-.708a1.069,1.069,0,0,0-1.391.285,21.248,21.248,0,0,1-4.27,4.269A1.07,1.07,0,0,0,38.77,64.6c.392.864,1.109,1.355.674,2.273a1.769,1.769,0,0,1-1.359.955,1.351,1.351,0,0,1-1.194-.5L36.184,66.1a1.07,1.07,0,0,0-1.35-.447A20.731,20.731,0,0,1,29,67.212a1.07,1.07,0,0,0-.947,1.062V69.6a1.517,1.517,0,0,1-2.208,1.124,1.352,1.352,0,0,1-.782-1.033V68.274a1.069,1.069,0,0,0-.947-1.062c-3.831-.442-5.7-1.643-6.258-1.643a1.07,1.07,0,0,0-.927.535l-.708,1.226a1.349,1.349,0,0,1-1.194.5,1.768,1.768,0,0,1-1.359-.955c-.436-.919.281-1.407.675-2.276a1.069,1.069,0,0,0-.285-1.391,21.255,21.255,0,0,1-4.273-4.275A1.069,1.069,0,0,0,8.4,58.652l-1.231.711a1.351,1.351,0,0,1-1.286-.16,1.516,1.516,0,0,1-.13-2.474L6.9,56.065a1.069,1.069,0,0,0,.448-1.349,20.735,20.735,0,0,1-1.553-5.831,1.07,1.07,0,0,0-1.062-.947H3.306a1.352,1.352,0,0,1-1.033-.782A1.516,1.516,0,0,1,3.4,44.949H4.733A1.069,1.069,0,0,0,5.8,44a20.739,20.739,0,0,1,1.553-5.826A1.07,1.07,0,0,0,6.9,36.827l-1.226-.708a1.352,1.352,0,0,1-.5-1.194,1.768,1.768,0,0,1,.955-1.359c.918-.436,1.406.28,2.275.675a1.069,1.069,0,0,0,1.391-.285,21.244,21.244,0,0,1,4.274-4.275,1.069,1.069,0,0,0,.285-1.391l-.71-1.229a1.352,1.352,0,0,1,.161-1.286,1.515,1.515,0,0,1,2.474-.13l.661,1.144a1.069,1.069,0,0,0,1.349.447c.521-.225,1.057-.429,1.6-.611a3.728,3.728,0,0,0,.995,2.51A18.218,18.218,0,1,0,43.867,52.116a3.718,3.718,0,0,0,2.516,1q-.275.824-.615,1.611a1.07,1.07,0,0,0,.447,1.35c.766.548,1.629.614,1.71,1.626A1.768,1.768,0,0,1,47.228,59.207Zm23.5-31.942a1.352,1.352,0,0,1-1.034.782H68.28a1.069,1.069,0,0,0-1.062.947,20.744,20.744,0,0,1-1.556,5.839,1.069,1.069,0,0,0,.447,1.35l1.141.659a1.516,1.516,0,0,1-.13,2.474,1.353,1.353,0,0,1-1.286.161l-1.227-.708a1.07,1.07,0,0,0-1.391.285,21.251,21.251,0,0,1-4.27,4.269,1.069,1.069,0,0,0-.285,1.391l.664,1.15a1.517,1.517,0,0,1-1.35,2.078,1.354,1.354,0,0,1-1.194-.5l-.706-1.223a1.07,1.07,0,0,0-1.349-.447,20.738,20.738,0,0,1-5.832,1.554,1.069,1.069,0,0,0-.947,1.062c-.095.969.335,1.9-.767,2.428-.993.481-2.223-.172-2.223-1.007V48.383a1.069,1.069,0,0,0-.947-1.062c-4.154-.478-5.632-1.723-6.382-1.635-.71.083-.872.655-1.51,1.752a1.351,1.351,0,0,1-1.194.5,1.768,1.768,0,0,1-1.359-.955c-.436-.919.281-1.407.675-2.276a1.07,1.07,0,0,0-.285-1.391,21.261,21.261,0,0,1-4.273-4.275,1.069,1.069,0,0,0-1.391-.285l-1.231.711a1.352,1.352,0,0,1-1.286-.161,1.767,1.767,0,0,1-.7-1.506c.081-1.013.945-1.078,1.717-1.63a1.07,1.07,0,0,0,.448-1.349,21.263,21.263,0,0,1-1.553-5.831,1.07,1.07,0,0,0-1.062-.947H23.2a1.351,1.351,0,0,1-1.033-.782,1.8,1.8,0,0,1,.089-1.556c.565-.964,1.409-.557,2.371-.652a1.069,1.069,0,0,0,1.062-.947,20.734,20.734,0,0,1,1.553-5.826,1.069,1.069,0,0,0-.447-1.349l-1.226-.708a1.351,1.351,0,0,1-.5-1.194,1.768,1.768,0,0,1,.955-1.359c.918-.436,1.408.281,2.275.675a1.07,1.07,0,0,0,1.391-.285,21.246,21.246,0,0,1,4.274-4.275A1.07,1.07,0,0,0,34.243,8.4l-.71-1.229a1.352,1.352,0,0,1,.16-1.286,1.769,1.769,0,0,1,1.507-.7c1.012.082,1.077.945,1.628,1.714a1.069,1.069,0,0,0,1.35.447A20.727,20.727,0,0,1,44.01,5.79a1.07,1.07,0,0,0,.947-1.062V3.307a1.351,1.351,0,0,1,.782-1.033,1.768,1.768,0,0,1,1.655.148c.836.577.46,1.356.553,2.307a1.069,1.069,0,0,0,.947,1.062,20.739,20.739,0,0,1,5.83,1.553A1.07,1.07,0,0,0,56.073,6.9c.545-.761.615-1.63,1.626-1.711a1.765,1.765,0,0,1,1.507.7,1.352,1.352,0,0,1,.161,1.286L58.659,8.4a1.07,1.07,0,0,0,.285,1.391,21.253,21.253,0,0,1,4.271,4.269,1.069,1.069,0,0,0,1.391.285c.864-.392,1.352-1.108,2.27-.672a1.769,1.769,0,0,1,.955,1.359,1.352,1.352,0,0,1-.5,1.194l-1.22.7a1.069,1.069,0,0,0-.447,1.35,20.745,20.745,0,0,1,1.556,5.834,1.07,1.07,0,0,0,1.062.947c.94.092,1.725-.283,2.3.553A1.768,1.768,0,0,1,70.728,27.265Z" transform="translate(0 0)"/>
      <path id="Path_905089" data-name="Path 905089" d="M216.127,58.472a18.236,18.236,0,0,0-15.2,28.247,1.069,1.069,0,0,0,1.784-1.181,16.076,16.076,0,1,1,29.5-8.848c0,13.653-15.989,21.014-26.37,12.343a1.069,1.069,0,0,0-1.371,1.641c11.743,9.808,29.88,1.51,29.88-13.985A18.239,18.239,0,0,0,216.127,58.472Z" transform="translate(-169.681 -50.135)"/>
      <path id="Path_905090" data-name="Path 905090" d="M239.348,114.19a14.387,14.387,0,0,0,12.6-21.267,1.069,1.069,0,0,0-1.874,1.03,12.23,12.23,0,1,1-2.925-3.541,1.069,1.069,0,0,0,1.366-1.646,14.365,14.365,0,1,0-9.167,25.423Z" transform="translate(-192.902 -73.267)"/>
    </g>
  </g>
</svg>
