<svg xmlns="http://www.w3.org/2000/svg" xmlns:xlink="http://www.w3.org/1999/xlink" width="86" height="86" viewBox="0 0 86 86">
  <defs>
    <filter id="Ellipse_11539" x="0" y="0" width="86" height="86" filterUnits="userSpaceOnUse">
      <feOffset dy="3" input="SourceAlpha"/>
      <feGaussianBlur stdDeviation="3" result="blur"/>
      <feFlood flood-opacity="0.161"/>
      <feComposite operator="in" in2="blur"/>
      <feComposite in="SourceGraphic"/>
    </filter>
  </defs>
  <g id="Group_1143823" data-name="Group 1143823" transform="translate(-193 -754)">
    <g id="Group_1143710" data-name="Group 1143710" transform="translate(-0.101 -1971)">
      <g transform="matrix(1, 0, 0, 1, 193.1, 2725)" filter="url(#Ellipse_11539)">
        <g id="Ellipse_11539-2" data-name="Ellipse 11539" transform="translate(9 6)" fill="#fbedfe" stroke="#7b3289" stroke-width="3">
          <circle cx="34" cy="34" r="34" stroke="none"/>
          <circle cx="34" cy="34" r="32.5" fill="none"/>
        </g>
      </g>
    </g>
    <g id="ok_11560453" transform="translate(211.037 769.037)">
      <circle id="Ellipse_11564" data-name="Ellipse 11564" cx="24.269" cy="24.269" r="24.269" transform="translate(0.693 0.693)" fill="#79b6ef"/>
      <path id="Path_905191" data-name="Path 905191" d="M36.029,17.989,24.835,29.183l-5.3-5.3a2.371,2.371,0,0,0-3.353,0l-2.666,2.666a2.371,2.371,0,0,0,0,3.353l9.641,9.641a2.371,2.371,0,0,0,3.353,0L42.048,24.007a2.371,2.371,0,0,0,0-3.353l-2.665-2.666a2.371,2.371,0,0,0-3.353,0Z" transform="translate(-2.82 -3.803)" fill="#f0f0fc"/>
      <path id="Path_905192" data-name="Path 905192" d="M45.6,42.939a24.274,24.274,0,0,1-29.775,3.585C34.268,44.087,47.878,30.087,38.606,3.734A24.3,24.3,0,0,1,45.6,42.939Z" transform="translate(-3.48 -0.821)" opacity="0.1"/>
      <g id="Group_1143822" data-name="Group 1143822">
        <path id="Path_905193" data-name="Path 905193" d="M24.963,49.925A24.963,24.963,0,1,1,49.925,24.963,24.991,24.991,0,0,1,24.963,49.925Zm0-48.539A23.576,23.576,0,1,0,48.539,24.963,23.6,23.6,0,0,0,24.963,1.387Z" fill="#101016"/>
        <path id="Path_905194" data-name="Path 905194" d="M24.64,40.736a3.04,3.04,0,0,1-2.167-.9L12.833,30.2a3.064,3.064,0,0,1,0-4.334L15.5,23.2a3.066,3.066,0,0,1,4.333,0l4.808,4.808,10.7-10.7a3.069,3.069,0,0,1,4.334,0l2.665,2.665a3.068,3.068,0,0,1,0,4.333L26.807,39.838a3.04,3.04,0,0,1-2.166.9ZM17.665,23.689a1.672,1.672,0,0,0-1.186.49l-2.665,2.665a1.677,1.677,0,0,0,0,2.373l9.641,9.64a1.72,1.72,0,0,0,2.372,0L41.362,23.322a1.681,1.681,0,0,0,0-2.372L38.7,18.284a1.68,1.68,0,0,0-2.373,0L25.13,29.478a.693.693,0,0,1-.981,0l-5.3-5.3a1.671,1.671,0,0,0-1.186-.49Zm18.169-5.895h.014Z" transform="translate(-2.625 -3.608)" fill="#101016"/>
      </g>
    </g>
  </g>
</svg>
