<svg xmlns="http://www.w3.org/2000/svg" xmlns:xlink="http://www.w3.org/1999/xlink" width="91" height="91" viewBox="0 0 91 91">
  <defs>
    <filter id="Ellipse_11513" x="0" y="0" width="91" height="91" filterUnits="userSpaceOnUse">
      <feOffset dy="3" input="SourceAlpha"/>
      <feGaussianBlur stdDeviation="3" result="blur"/>
      <feFlood flood-opacity="0.161"/>
      <feComposite operator="in" in2="blur"/>
      <feComposite in="SourceGraphic"/>
    </filter>
  </defs>
  <g id="Group_1143810" data-name="Group 1143810" transform="translate(-282 -924)">
    <g id="Group_1143699" data-name="Group 1143699" transform="translate(290.867 930)">
      <g id="Group_1143465" data-name="Group 1143465">
        <g transform="matrix(1, 0, 0, 1, -8.87, -6)" filter="url(#Ellipse_11513)">
          <g id="Ellipse_11513-2" data-name="Ellipse 11513" transform="translate(9 6)" fill="#f7eafc" stroke="#361245" stroke-width="3">
            <circle cx="36.5" cy="36.5" r="36.5" stroke="none"/>
            <circle cx="36.5" cy="36.5" r="35" fill="none"/>
          </g>
        </g>
      </g>
    </g>
    <g id="settings_563061" transform="translate(300.495 939.495)">
      <path id="Path_905074" data-name="Path 905074" d="M88.96,219.118a9.839,9.839,0,1,1-10.591-10.594,16.177,16.177,0,0,1-.616-2.8,12.687,12.687,0,1,0,14.009,14.013A16.166,16.166,0,0,1,88.96,219.118Z" transform="translate(-59.454 -184.02)" fill="#666"/>
      <g id="Group_1143809" data-name="Group 1143809" transform="translate(0.842 17.704)">
        <path id="Path_905075" data-name="Path 905075" d="M178.1,228.266l.034.118C178.126,228.345,178.115,228.305,178.1,228.266Z" transform="translate(-160.158 -221.891)" fill="#898888"/>
        <path id="Path_905076" data-name="Path 905076" d="M176.5,222.174l.024.1Z" transform="translate(-158.721 -216.441)" fill="#898888"/>
        <path id="Path_905077" data-name="Path 905077" d="M42.624,191.36l-.844-.487a16.08,16.08,0,0,0,.866-2.609,2.105,2.105,0,0,1-1.9.16,1.771,1.771,0,0,1-1.089-1.5v-1.051l-.215-.029a12.687,12.687,0,1,1-14.009-14.013c0,.032-.023-.169-.028-.212H24.354a1.771,1.771,0,0,1-1.5-1.089,2.107,2.107,0,0,1,.157-1.893,16.073,16.073,0,0,0-2.6.863l-.489-.847a1.9,1.9,0,0,0-3.129-.008,1.771,1.771,0,0,0-.191,1.847l.525.909A16.507,16.507,0,0,0,13.8,174.72l-.853-.492a1.9,1.9,0,0,0-2.714,1.557,1.771,1.771,0,0,0,.758,1.7L11.9,178a16.124,16.124,0,0,0-1.208,4.533H9.7a1.9,1.9,0,0,0-1.572,2.706,1.771,1.771,0,0,0,1.5,1.089h1.055a16.128,16.128,0,0,0,1.208,4.536l-.849.49a1.9,1.9,0,0,0-.008,3.129,1.771,1.771,0,0,0,1.847.191l.911-.526a16.506,16.506,0,0,0,3.321,3.322l-.493.853a1.9,1.9,0,0,0,1.557,2.714,1.771,1.771,0,0,0,1.7-.758l.524-.907a16.128,16.128,0,0,0,4.539,1.21v1.051a1.771,1.771,0,0,0,1.089,1.5,1.9,1.9,0,0,0,2.706-1.571v-.984a16.132,16.132,0,0,0,4.538-1.209l.522.9a1.771,1.771,0,0,0,1.695.758,1.9,1.9,0,0,0,1.557-2.714l-.491-.851a16.5,16.5,0,0,0,3.318-3.318l.907.524a1.771,1.771,0,0,0,1.847-.191A1.9,1.9,0,0,0,42.624,191.36Z" transform="translate(-7.981 -167.829)" fill="#898888"/>
        <path id="Path_905078" data-name="Path 905078" d="M174.444,212.217l.008.046Z" transform="translate(-156.884 -207.535)" fill="#898888"/>
        <path id="Path_905079" data-name="Path 905079" d="M299.4,337.521l-.041-.007Z" transform="translate(-268.625 -319.615)" fill="#898888"/>
        <path id="Path_905080" data-name="Path 905080" d="M288.99,335.324l-.1-.024Z" transform="translate(-259.261 -317.634)" fill="#898888"/>
        <path id="Path_905081" data-name="Path 905081" d="M282.726,333.633l-.119-.034Z" transform="translate(-253.638 -316.113)" fill="#898888"/>
      </g>
      <path id="Path_905082" data-name="Path 905082" d="M182.483,24.94h-.98a16.133,16.133,0,0,0-1.211-4.539l.9-.521a1.771,1.771,0,0,0,.758-1.7,1.9,1.9,0,0,0-2.714-1.557l-.849.49a16.506,16.506,0,0,0-3.319-3.318l.524-.907a1.771,1.771,0,0,0-.191-1.847,1.9,1.9,0,0,0-3.129.008l-.488.845a16.126,16.126,0,0,0-4.536-1.209V9.706a1.9,1.9,0,0,0-2.706-1.572,1.771,1.771,0,0,0-1.089,1.5V10.69A16.132,16.132,0,0,0,158.92,11.9l-.489-.847a1.9,1.9,0,0,0-3.129-.008,1.771,1.771,0,0,0-.191,1.847l.525.909a16.5,16.5,0,0,0-3.322,3.322l-.853-.492a1.9,1.9,0,0,0-2.714,1.557,1.771,1.771,0,0,0,.758,1.695l.907.524a16.125,16.125,0,0,0-1.208,4.533h-.988a1.9,1.9,0,0,0-1.572,2.706,1.771,1.771,0,0,0,1.5,1.089h1.055a16.127,16.127,0,0,0,1.208,4.536l-.849.49a1.9,1.9,0,0,0-.008,3.129,1.771,1.771,0,0,0,1.847.191l.911-.526a16.5,16.5,0,0,0,3.321,3.322l-.493.853a1.9,1.9,0,0,0,1.557,2.714,1.771,1.771,0,0,0,1.695-.758l.524-.907a16.13,16.13,0,0,0,4.539,1.21v1.051a1.771,1.771,0,0,0,1.089,1.5,1.9,1.9,0,0,0,2.706-1.572v-.984a16.132,16.132,0,0,0,4.538-1.209l.522.9a1.771,1.771,0,0,0,1.695.758,1.9,1.9,0,0,0,1.557-2.714l-.491-.851a16.5,16.5,0,0,0,3.318-3.318l.907.524a1.771,1.771,0,0,0,1.847-.191,1.9,1.9,0,0,0-.008-3.129l-.844-.487a16.129,16.129,0,0,0,1.211-4.543h1.047a1.771,1.771,0,0,0,1.5-1.089A1.9,1.9,0,0,0,182.483,24.94ZM165.35,37.469a10.63,10.63,0,1,1,10.63-10.63A10.642,10.642,0,0,1,165.35,37.469Z" transform="translate(-131.04 -7.14)" fill="#b3b3b3"/>
      <path id="Path_905083" data-name="Path 905083" d="M224.03,90.17a12.687,12.687,0,1,1,4.644-17.331A12.7,12.7,0,0,1,224.03,90.17ZM212.767,70.662a9.839,9.839,0,1,0,13.44,3.6A9.85,9.85,0,0,0,212.767,70.662Z" transform="translate(-183.376 -59.483)" fill="#7f7e7d"/>
      <path id="Path_905084" data-name="Path 905084" d="M178.362,88.551a16.191,16.191,0,0,1-23.124-22.485,16.5,16.5,0,0,0-2.925,3.014l-.853-.492a1.9,1.9,0,0,0-2.714,1.557,1.771,1.771,0,0,0,.758,1.695l.907.524A16.124,16.124,0,0,0,149.2,76.9h-.988a1.9,1.9,0,0,0-1.572,2.706,1.771,1.771,0,0,0,1.5,1.089H149.2a16.125,16.125,0,0,0,1.208,4.536l-.849.49a1.9,1.9,0,0,0-.008,3.129,1.771,1.771,0,0,0,1.847.191l.911-.526a16.5,16.5,0,0,0,3.321,3.322l-.493.853A1.9,1.9,0,0,0,156.7,95.4a1.771,1.771,0,0,0,1.695-.758l.524-.907a16.131,16.131,0,0,0,4.539,1.21V96a1.771,1.771,0,0,0,1.089,1.5,1.9,1.9,0,0,0,2.706-1.572v-.984a16.132,16.132,0,0,0,4.538-1.209l.522.9A1.771,1.771,0,0,0,174,95.4a1.9,1.9,0,0,0,1.557-2.714l-.491-.851A16.491,16.491,0,0,0,178.362,88.551Z" transform="translate(-131.038 -59.097)" fill="#a2a2a3"/>
      <path id="Path_905085" data-name="Path 905085" d="M209.032,92.825A12.705,12.705,0,0,1,212.606,76.5a12.687,12.687,0,1,0,12.607,21.835A12.707,12.707,0,0,1,209.032,92.825Z" transform="translate(-183.366 -68.427)" fill="#666"/>
      <path id="Path_905086" data-name="Path 905086" d="M39.85,227.064a16.191,16.191,0,0,1-23.124-22.485,16.5,16.5,0,0,0-2.925,3.014l-.853-.492a1.9,1.9,0,0,0-2.714,1.557,1.771,1.771,0,0,0,.758,1.695l.907.524a16.128,16.128,0,0,0-1.208,4.533H9.7a1.9,1.9,0,0,0-1.571,2.706,1.771,1.771,0,0,0,1.5,1.089h1.055A16.132,16.132,0,0,0,11.9,223.74l-.849.49a1.9,1.9,0,0,0-.008,3.129,1.771,1.771,0,0,0,1.847.191l.911-.526a16.5,16.5,0,0,0,3.321,3.322l-.493.853a1.9,1.9,0,0,0,1.557,2.714,1.771,1.771,0,0,0,1.695-.758l.524-.907a16.131,16.131,0,0,0,4.539,1.21v1.051a1.771,1.771,0,0,0,1.089,1.5,1.9,1.9,0,0,0,2.706-1.571v-.984a16.131,16.131,0,0,0,4.538-1.209l.522.9a1.771,1.771,0,0,0,1.695.758A1.9,1.9,0,0,0,37.05,231.2l-.491-.851A16.5,16.5,0,0,0,39.85,227.064Z" transform="translate(-7.137 -182.998)" fill="#7f7e7d"/>
      <path id="Path_905087" data-name="Path 905087" d="M70.645,231.556A12.706,12.706,0,0,1,74.1,215.007,12.687,12.687,0,1,0,86.7,236.842,12.706,12.706,0,0,1,70.645,231.556Z" transform="translate(-59.466 -192.326)" fill="#5a5b5b"/>
      <path id="Path_905088" data-name="Path 905088" d="M51.206,16.956a16.926,16.926,0,0,0-.909-3.407l.306-.176a2.54,2.54,0,0,0,1.144-2.507,2.69,2.69,0,0,0-3.89-2.116L47.6,8.9a17.284,17.284,0,0,0-2.49-2.489l.18-.311a2.54,2.54,0,0,0-.263-2.743,2.69,2.69,0,0,0-4.427.112l-.143.248a16.9,16.9,0,0,0-3.4-.907A2.553,2.553,0,0,0,35.963.489,2.9,2.9,0,0,0,33.278.2a2.54,2.54,0,0,0-1.6,2.244v.361a16.92,16.92,0,0,0-3.406.907,2.552,2.552,0,0,0-2.1-1.457A2.907,2.907,0,0,0,23.7,3.352,2.54,2.54,0,0,0,23.439,6.1l.181.314A17.282,17.282,0,0,0,21.128,8.9a2.556,2.556,0,0,0-2.558-.214,2.905,2.905,0,0,0-1.59,2.182,2.54,2.54,0,0,0,1.144,2.507l.311.179a16.914,16.914,0,0,0-.906,3.4,2.566,2.566,0,0,0-2.182.908,17.04,17.04,0,0,0-1.789.568,2.547,2.547,0,0,0-2.1-1.458,2.9,2.9,0,0,0-2.468,1.095,2.54,2.54,0,0,0-.263,2.743l.181.314a17.28,17.28,0,0,0-2.493,2.493A2.556,2.556,0,0,0,3.854,23.4a2.906,2.906,0,0,0-1.59,2.182,2.54,2.54,0,0,0,1.144,2.507l.311.179a16.9,16.9,0,0,0-.906,3.4A2.557,2.557,0,0,0,.489,32.765,2.905,2.905,0,0,0,.2,35.45a2.54,2.54,0,0,0,2.244,1.6h.365a16.915,16.915,0,0,0,.906,3.4,2.55,2.55,0,0,0-1.46,2.1,2.907,2.907,0,0,0,1.095,2.468,2.54,2.54,0,0,0,2.743.263l.315-.182A17.277,17.277,0,0,0,8.9,47.6a2.557,2.557,0,0,0-.215,2.558,2.9,2.9,0,0,0,2.182,1.59A2.539,2.539,0,0,0,13.376,50.6l.179-.31a16.914,16.914,0,0,0,3.407.908v.361a2.54,2.54,0,0,0,1.6,2.244,2.905,2.905,0,0,0,2.685-.286A2.607,2.607,0,0,0,22.339,51.2a16.913,16.913,0,0,0,3.406-.907l.178.308a2.54,2.54,0,0,0,2.507,1.144,2.69,2.69,0,0,0,2.116-3.89L30.4,47.6a17.291,17.291,0,0,0,2.489-2.489l.312.18a2.54,2.54,0,0,0,2.743-.263,2.69,2.69,0,0,0-.112-4.427l-.248-.143a17.016,17.016,0,0,0,.571-1.8,2.615,2.615,0,0,0,.9-2.174,16.915,16.915,0,0,0,3.405-.907l.178.308a2.539,2.539,0,0,0,2.507,1.144,2.906,2.906,0,0,0,2.182-1.59,2.61,2.61,0,0,0-.213-2.556A17.271,17.271,0,0,0,47.6,30.4l.312.18a2.541,2.541,0,0,0,2.743-.263,2.906,2.906,0,0,0,1.095-2.468,2.6,2.6,0,0,0-1.455-2.1,16.916,16.916,0,0,0,.909-3.411h.356a2.54,2.54,0,0,0,2.244-1.6,2.906,2.906,0,0,0-.286-2.685A2.6,2.6,0,0,0,51.206,16.956ZM18.434,25.737l-.253.146a2.69,2.69,0,0,0-.112,4.427,2.54,2.54,0,0,0,2.743.263l.315-.182a17.361,17.361,0,0,0,2.492,2.493l-.149.258a2.69,2.69,0,0,0,2.116,3.89,2.542,2.542,0,0,0,2.507-1.144l.179-.31c.107.041.214.08.322.118a9.054,9.054,0,0,1-14.28,5.97.791.791,0,0,0-.935,1.277,10.641,10.641,0,0,0,16.745-6.779q.613.156,1.238.267a11.9,11.9,0,1,1-13.78-13.784q.11.625.267,1.238a10.641,10.641,0,0,0-7.2,16.133.791.791,0,0,0,1.339-.844,9.064,9.064,0,0,1,6.328-13.758C18.355,25.524,18.393,25.631,18.434,25.737ZM34.941,43.8a1,1,0,0,1-.952.119l-.908-.524a.791.791,0,0,0-1.029.211,15.72,15.72,0,0,1-3.159,3.158.791.791,0,0,0-.211,1.029c.29.639.821,1,.5,1.681a1.308,1.308,0,0,1-1.005.707,1,1,0,0,1-.883-.373l-.522-.9a.792.792,0,0,0-1-.331,15.338,15.338,0,0,1-4.315,1.15.791.791,0,0,0-.7.786V51.5a1.122,1.122,0,0,1-1.633.832,1,1,0,0,1-.579-.765V50.512a.791.791,0,0,0-.7-.786,22.028,22.028,0,0,1-4.63-1.215.791.791,0,0,0-.686.4l-.524.907a1,1,0,0,1-.883.373,1.308,1.308,0,0,1-1.005-.707c-.323-.68.208-1.041.5-1.684a.791.791,0,0,0-.211-1.029A15.725,15.725,0,0,1,7.244,43.6a.791.791,0,0,0-1.029-.211l-.911.526a1,1,0,0,1-.952-.119,1.122,1.122,0,0,1-.1-1.831l.849-.49a.791.791,0,0,0,.331-1,15.341,15.341,0,0,1-1.149-4.314.791.791,0,0,0-.786-.7H2.446a1,1,0,0,1-.765-.579,1.121,1.121,0,0,1,.832-1.633H3.5a.791.791,0,0,0,.786-.7,15.343,15.343,0,0,1,1.149-4.31.791.791,0,0,0-.331-1L4.2,26.722a1,1,0,0,1-.373-.883,1.308,1.308,0,0,1,.707-1.005c.68-.322,1.04.207,1.683.5a.791.791,0,0,0,1.029-.211,15.717,15.717,0,0,1,3.162-3.163.791.791,0,0,0,.211-1.029l-.525-.909a1,1,0,0,1,.119-.951,1.121,1.121,0,0,1,1.83-.1l.489.847a.791.791,0,0,0,1,.331c.386-.166.782-.317,1.186-.452a2.758,2.758,0,0,0,.736,1.857,13.478,13.478,0,1,0,17,17,2.751,2.751,0,0,0,1.862.737q-.2.609-.455,1.192a.791.791,0,0,0,.331,1c.566.406,1.205.454,1.265,1.2A1.308,1.308,0,0,1,34.941,43.8ZM52.328,20.172a1,1,0,0,1-.765.578H50.516a.791.791,0,0,0-.786.7,15.347,15.347,0,0,1-1.151,4.32.791.791,0,0,0,.331,1l.844.487a1.122,1.122,0,0,1-.1,1.83,1,1,0,0,1-.952.119l-.908-.524a.791.791,0,0,0-1.029.211,15.723,15.723,0,0,1-3.159,3.158A.791.791,0,0,0,43.4,33.08l.491.851a1.122,1.122,0,0,1-1,1.537,1,1,0,0,1-.883-.373l-.522-.9a.791.791,0,0,0-1-.331,15.343,15.343,0,0,1-4.315,1.15.791.791,0,0,0-.7.786c-.07.717.248,1.406-.567,1.8-.735.356-1.645-.127-1.645-.745V35.8a.791.791,0,0,0-.7-.786c-3.073-.353-4.167-1.275-4.721-1.21-.525.061-.645.484-1.118,1.3a1,1,0,0,1-.883.373,1.308,1.308,0,0,1-1.005-.707c-.323-.68.208-1.041.5-1.684a.791.791,0,0,0-.211-1.029,15.729,15.729,0,0,1-3.162-3.163.791.791,0,0,0-1.029-.211l-.911.526a1,1,0,0,1-.951-.119,1.308,1.308,0,0,1-.517-1.115c.06-.749.7-.8,1.27-1.206a.791.791,0,0,0,.331-1A15.731,15.731,0,0,1,19,21.451a.791.791,0,0,0-.786-.7H17.163a1,1,0,0,1-.765-.579,1.329,1.329,0,0,1,.066-1.151c.418-.713,1.042-.412,1.754-.482a.791.791,0,0,0,.786-.7,15.34,15.34,0,0,1,1.149-4.31.791.791,0,0,0-.331-1l-.907-.524a1,1,0,0,1-.373-.883,1.308,1.308,0,0,1,.707-1.005c.679-.323,1.041.208,1.683.5a.791.791,0,0,0,1.029-.211,15.718,15.718,0,0,1,3.162-3.163.791.791,0,0,0,.211-1.029L24.809,5.3a1,1,0,0,1,.119-.951,1.309,1.309,0,0,1,1.115-.517c.749.06.8.7,1.2,1.268a.791.791,0,0,0,1,.331,15.335,15.335,0,0,1,4.315-1.15.791.791,0,0,0,.7-.786V2.447a1,1,0,0,1,.579-.765,1.308,1.308,0,0,1,1.224.109c.619.427.34,1,.409,1.706a.791.791,0,0,0,.7.786,15.344,15.344,0,0,1,4.313,1.149.792.792,0,0,0,1-.331c.4-.563.455-1.206,1.2-1.266a1.306,1.306,0,0,1,1.115.517,1,1,0,0,1,.119.951l-.524.907a.791.791,0,0,0,.211,1.029,15.724,15.724,0,0,1,3.16,3.159.791.791,0,0,0,1.029.211c.639-.29,1-.82,1.68-.5a1.309,1.309,0,0,1,.707,1.005,1,1,0,0,1-.373.883l-.9.521a.791.791,0,0,0-.331,1,15.347,15.347,0,0,1,1.151,4.317.791.791,0,0,0,.786.7c.7.068,1.276-.209,1.7.409A1.308,1.308,0,0,1,52.328,20.172Z" transform="translate(0)"/>
      <path id="Path_905089" data-name="Path 905089" d="M211.385,58.472a13.492,13.492,0,0,0-11.247,20.9.791.791,0,0,0,1.32-.874,11.9,11.9,0,1,1,2.313,2.586.791.791,0,0,0-1.014,1.214,13.476,13.476,0,1,0,8.628-23.825Z" transform="translate(-177.022 -52.304)"/>
      <path id="Path_905090" data-name="Path 905090" d="M235.61,106.714a10.644,10.644,0,0,0,9.322-15.734.791.791,0,0,0-1.387.762,9.048,9.048,0,1,1-2.164-2.62.791.791,0,0,0,1.011-1.217,10.628,10.628,0,1,0-6.782,18.809Z" transform="translate(-201.247 -76.437)"/>
    </g>
  </g>
</svg>
