<svg xmlns="http://www.w3.org/2000/svg" xmlns:xlink="http://www.w3.org/1999/xlink" width="86" height="86" viewBox="0 0 86 86">
  <defs>
    <filter id="Ellipse_11513" x="0" y="0" width="86" height="86" filterUnits="userSpaceOnUse">
      <feOffset dy="3" input="SourceAlpha"/>
      <feGaussianBlur stdDeviation="3" result="blur"/>
      <feFlood flood-opacity="0.161"/>
      <feComposite operator="in" in2="blur"/>
      <feComposite in="SourceGraphic"/>
    </filter>
  </defs>
  <g id="Group_1143871" data-name="Group 1143871" transform="translate(-816.627 -4571)">
    <g id="Group_1143705" data-name="Group 1143705" transform="translate(-0.373 3925)">
      <g id="Group_1143465" data-name="Group 1143465" transform="translate(630 -511)">
        <g transform="matrix(1, 0, 0, 1, 187, 1157)" filter="url(#Ellipse_11513)">
          <g id="Ellipse_11513-2" data-name="Ellipse 11513" transform="translate(9 6)" fill="#f7eafc" stroke="#652180" stroke-width="3">
            <circle cx="34" cy="34" r="34" stroke="none"/>
            <circle cx="34" cy="34" r="32.5" fill="none"/>
          </g>
        </g>
      </g>
    </g>
    <g id="interrogation-mark_5108709" transform="translate(831.829 4583.202)">
      <g id="Group_1143869" data-name="Group 1143869" transform="translate(0.814 0.814)">
        <path id="Path_905273" data-name="Path 905273" d="M66.977,34.484a26.972,26.972,0,0,1-7.371,18.529h0s-1.1.982-1.628,1.457c-4.78,4.3-10.969,6.359-17.9,6.359A25.947,25.947,0,0,1,13.681,34.484c0-7.251,2.3-13.786,6.95-18.634.619-.645,1.879-1.918,1.879-1.918h0A26.983,26.983,0,0,1,66.977,34.484Z" transform="translate(-13.01 -7.5)" fill="#ffe07d"/>
        <path id="Path_905274" data-name="Path 905274" d="M54.1,105.814A26.982,26.982,0,1,1,17,66.733a26.986,26.986,0,0,0,37.1,39.081Z" transform="translate(-7.5 -60.301)" fill="#ffd064"/>
        <circle id="Ellipse_11571" data-name="Ellipse 11571" cx="22.913" cy="22.913" r="22.913" transform="translate(4.068 4.068)" fill="#f9f8f9"/>
        <g id="Group_1143867" data-name="Group 1143867" transform="translate(17.897 9.676)">
          <path id="Path_905275" data-name="Path 905275" d="M181.4,122.671c-1.434,0-2.091-.969-2.091-2.4v-.576a12.068,12.068,0,0,1,5.018-9.957,4.341,4.341,0,0,0,1.818-3.718,5.046,5.046,0,0,0-2.816-3.971,4.554,4.554,0,0,0-1.594-.3l-.066,0a4.366,4.366,0,0,0-4.568,3.724,4.411,4.411,0,0,0-.042.609,2.6,2.6,0,0,1-1.24,2.215,7.347,7.347,0,0,1-1.362.223c-1.434,0-2.144-1.05-2.144-2.485a9.63,9.63,0,0,1,.092-1.327,8.968,8.968,0,0,1,3.346-5.789,8.551,8.551,0,0,1,6.217-2.292c.264.016.792.015.792.015a9.537,9.537,0,0,1,4.18,17.2A7.185,7.185,0,0,0,184,119.692v.576a2.6,2.6,0,0,1-2.48,2.595S181.444,122.671,181.4,122.671Z" transform="translate(-172.318 -96.605)" fill="#7dc3ee"/>
        </g>
        <g id="Group_1143868" data-name="Group 1143868" transform="translate(17.449 9.61)">
          <path id="Path_905276" data-name="Path 905276" d="M179.087,96.1A9.54,9.54,0,0,0,171,104.21a9.645,9.645,0,0,0-.091,1.326,2.6,2.6,0,0,0,1.24,2.215,2.6,2.6,0,0,1-3.954-2.215,9.645,9.645,0,0,1,.091-1.326,9.537,9.537,0,0,1,10.02-8.192C178.567,96.034,178.829,96.06,179.087,96.1Z" transform="translate(-168.191 -96.001)" fill="#64acdc"/>
          <path id="Path_905277" data-name="Path 905277" d="M241.046,149.232a5.557,5.557,0,0,1-.042.681,4.666,4.666,0,0,1-1.542,2.937c-2.616,2.287-4.667,5.494-4.667,8.957v3.171c-.039,0-.078,0-.117,0a2.6,2.6,0,0,1-2.6-2.6v-.575a12.386,12.386,0,0,1,5.117-10.082,4.341,4.341,0,0,0-2.25-7.868c-.043,0-.086,0-.128-.005h.837A5.393,5.393,0,0,1,241.046,149.232Z" transform="translate(-225.142 -138.654)" fill="#64acdc"/>
        </g>
        <circle id="Ellipse_11572" data-name="Ellipse 11572" cx="2.597" cy="2.597" r="2.597" transform="translate(24.386 39.163)" fill="#7dc3ee"/>
      </g>
      <g id="Group_1143870" data-name="Group 1143870" transform="translate(0)">
        <path id="Path_905278" data-name="Path 905278" d="M174.446,112.466a6.369,6.369,0,0,1,2.6-5.2,10.35,10.35,0,1,0-16.365-8.422,3.412,3.412,0,1,0,6.823,0,3.61,3.61,0,0,1,3.747-3.52,3.526,3.526,0,0,1,1.824,6.392,12.846,12.846,0,0,0-2.579,2.453.814.814,0,0,0,1.275,1.014,11.221,11.221,0,0,1,2.252-2.142,5.334,5.334,0,0,0,2.158-4.414,5.047,5.047,0,0,0-4.834-4.929,5.181,5.181,0,0,0-5.472,5.146,1.834,1.834,0,0,1-1.783,1.783,1.785,1.785,0,0,1-1.783-1.783,8.81,8.81,0,0,1,3.159-6.717A8.721,8.721,0,1,1,176.1,105.946a8,8,0,0,0-3.284,6.52v.576a1.783,1.783,0,1,1-3.566,0v-.576a11.747,11.747,0,0,1,.768-4.191.814.814,0,1,0-1.522-.579,13.371,13.371,0,0,0-.875,4.77v.576a3.412,3.412,0,1,0,6.823,0v-.576Z" transform="translate(-143.236 -78.889)"/>
        <path id="Path_905279" data-name="Path 905279" d="M227.993,360.661a3.412,3.412,0,1,0,3.412,3.412A3.416,3.416,0,0,0,227.993,360.661Zm0,5.195a1.783,1.783,0,1,1,1.783-1.783A1.785,1.785,0,0,1,227.993,365.856Z" transform="translate(-200.195 -321.498)"/>
        <path id="Path_905280" data-name="Path 905280" d="M41.582,123.521A26.171,26.171,0,0,1,8.331,83.783a.814.814,0,1,0-1.211-1.089A27.8,27.8,0,0,0,42.441,124.9a.814.814,0,0,0-.859-1.384Z" transform="translate(0 -73.474)"/>
        <path id="Path_905281" data-name="Path 905281" d="M126.643,8.142A27.8,27.8,0,0,0,89.126,6.5a.814.814,0,0,0,1.047,1.248,26.17,26.17,0,1,1,33.587,40.142.814.814,0,1,0,1.045,1.25,27.8,27.8,0,0,0,1.838-40.994Z" transform="translate(-79.189 0)"/>
        <path id="Path_905282" data-name="Path 905282" d="M78.818,46.569a.814.814,0,0,0,0-1.152,23.582,23.582,0,1,0,2.56,3.028.814.814,0,1,0-1.327.944,22.013,22.013,0,1,1-2.384-2.82A.815.815,0,0,0,78.818,46.569Z" transform="translate(-34.319 -34.319)"/>
      </g>
    </g>
  </g>
</svg>
