<svg xmlns="http://www.w3.org/2000/svg" xmlns:xlink="http://www.w3.org/1999/xlink" width="86" height="86" viewBox="0 0 86 86">
  <defs>
    <filter id="Ellipse_11513" x="0" y="0" width="86" height="86" filterUnits="userSpaceOnUse">
      <feOffset dy="3" input="SourceAlpha"/>
      <feGaussianBlur stdDeviation="3" result="blur"/>
      <feFlood flood-opacity="0.161"/>
      <feComposite operator="in" in2="blur"/>
      <feComposite in="SourceGraphic"/>
    </filter>
  </defs>
  <g id="Group_1143861" data-name="Group 1143861" transform="translate(-186.627 -4396)">
    <g id="Group_1143699" data-name="Group 1143699" transform="translate(-0.373 3946)">
      <g id="Group_1143465" data-name="Group 1143465" transform="translate(0 -707)">
        <g transform="matrix(1, 0, 0, 1, 187, 1157)" filter="url(#Ellipse_11513)">
          <g id="Ellipse_11513-2" data-name="Ellipse 11513" transform="translate(9 6)" fill="#f7eafc" stroke="#361245" stroke-width="3">
            <circle cx="34" cy="34" r="34" stroke="none"/>
            <circle cx="34" cy="34" r="32.5" fill="none"/>
          </g>
        </g>
      </g>
    </g>
    <g id="ux_15122114" transform="translate(205.627 4413)">
      <path id="Path_905251" data-name="Path 905251" d="M32.708,50.267H15V42H29.054Z" transform="translate(-2.6 -7.279)" fill="#8f96a2"/>
      <path id="Path_905252" data-name="Path 905252" d="M33.611,54.307l1.017,1.653H9V54.307L13.96,51H31.668l1.405,2.546a4.652,4.652,0,0,0,.537.761Z" transform="translate(-1.56 -8.839)" fill="#bfc3ce"/>
      <path id="Path_905253" data-name="Path 905253" d="M37.554,57.554a.82.82,0,0,1-.818.752H9.827A.827.827,0,0,1,9,57.48V55H33.611a8.746,8.746,0,0,0,3.943,2.554Z" transform="translate(-1.56 -9.532)" fill="#8f96a2"/>
      <path id="Path_905254" data-name="Path 905254" d="M42.335,36.827v4.96H4.307A3.307,3.307,0,0,1,1,38.48V36.827L1.827,36H41.508Z" transform="translate(-0.173 -6.239)" fill="#bfc3ce"/>
      <path id="Path_905255" data-name="Path 905255" d="M42.335,4.307V30.761H1V4.307A3.307,3.307,0,0,1,4.307,1H39.028A3.307,3.307,0,0,1,42.335,4.307Z" transform="translate(-0.173 -0.173)" fill="#5299ee"/>
      <path id="Path_905256" data-name="Path 905256" d="M53.281,34.361V41.8a9.728,9.728,0,0,1-9.92,9.92,15.144,15.144,0,0,1-4.968-.752,8.746,8.746,0,0,1-3.943-2.554,4.652,4.652,0,0,1-.537-.761l-1.405-2.546-3.654-6.614-2.538-4.588a2.466,2.466,0,0,1,.967-3.365,2.429,2.429,0,0,1,1.2-.314,2.48,2.48,0,0,1,2.174,1.281l2.786,5.043V19.481a2.48,2.48,0,0,1,4.233-1.753,2.557,2.557,0,0,1,.727,1.753V31.054a2.48,2.48,0,1,1,4.96,0v1.653a2.48,2.48,0,0,1,4.96,0v1.653a2.48,2.48,0,0,1,4.96,0Z" transform="translate(-4.506 -2.947)" fill="#e4b894"/>
      <g id="Group_1143860" data-name="Group 1143860" transform="translate(0 0)">
        <path id="Path_905257" data-name="Path 905257" d="M46.295,28.108a3.284,3.284,0,0,0-1.839.56,3.2,3.2,0,0,0-1.468-1.755V4.133A4.138,4.138,0,0,0,38.855,0H4.133A4.138,4.138,0,0,0,0,4.133V7.44a.827.827,0,0,0,1.653,0V4.133a2.48,2.48,0,0,1,2.48-2.48H38.855a2.48,2.48,0,0,1,2.48,2.48V26.454a3.284,3.284,0,0,0-1.839.56,3.307,3.307,0,0,0-4.775-1.769V16.909l2.1-1.33a.827.827,0,1,0-.886-1.4l-1.524.968a3.27,3.27,0,0,0-2.993-1.923,3.307,3.307,0,0,0-3.307,3.307v2.63L17.743,25.756a.827.827,0,1,0,.888,1.4l9.476-6.028V30.4l-1.24-2.239a3.286,3.286,0,0,0-6.185,1.6H1.653V12.4A.827.827,0,0,0,0,12.4V32.241a4.138,4.138,0,0,0,4.133,4.133h7.44v5.345L6.981,44.778a.876.876,0,0,0-.07.065.787.787,0,0,0-.083.076.75.75,0,0,0-.112.165.662.662,0,0,0-.044.083.81.81,0,0,0-.058.29v2.491A1.653,1.653,0,0,0,8.267,49.6h24.8a1.647,1.647,0,0,0,1.255-.591,16.638,16.638,0,0,0,4.532.591,10.9,10.9,0,0,0,5.362-1.353.827.827,0,0,0-.8-1.445,9.259,9.259,0,0,1-4.558,1.145,14.417,14.417,0,0,1-4.7-.708,9.957,9.957,0,0,1-1.086-.45c-.171-.083-.331-.165-.486-.248a7.139,7.139,0,0,1-2-1.6,4.169,4.169,0,0,1-.446-.627l-1.405-2.546-3.654-6.614-.01-.014-2.53-4.577a1.639,1.639,0,0,1,.652-2.242,1.694,1.694,0,0,1,2.243.646l2.786,5.043a.827.827,0,0,0,1.546-.4V16.534a1.653,1.653,0,1,1,3.307,0V28.108a.827.827,0,1,0,1.653,0,1.653,1.653,0,1,1,3.307,0v1.653a.827.827,0,0,0,1.653,0,1.653,1.653,0,1,1,3.307,0v1.653a.827.827,0,1,0,1.653,0,1.653,1.653,0,1,1,3.307,0v7.44a9.28,9.28,0,0,1-1.516,5.151.827.827,0,1,0,1.379.914A10.939,10.939,0,0,0,49.6,38.855v-7.44A3.307,3.307,0,0,0,46.295,28.108ZM26.6,41.335H13.227v-4.96H23.856ZM12.648,42.988H27.511l.913,1.653H10.168Zm-4.381,4.96V46.295h21.3l.018.018c.115.122.24.248.379.377l.066.058c.122.111.248.222.391.336.056.045.12.091.179.136.116.088.232.176.359.264.074.05.152.1.23.15.127.083.257.165.4.248.039.022.071.046.111.069ZM22.942,34.721H4.133a2.48,2.48,0,0,1-2.48-2.48v-.827H21.115Z" transform="translate(0 0)" fill="#373737"/>
        <path id="Path_905258" data-name="Path 905258" d="M5.139,27.779a.827.827,0,0,0,1.147.229L38.526,6.514a.827.827,0,1,0-.918-1.376L5.368,26.633A.827.827,0,0,0,5.139,27.779Z" transform="translate(-0.866 -0.866)" fill="#373737"/>
        <path id="Path_905259" data-name="Path 905259" d="M23.57,5.129,5.383,16.7a.827.827,0,1,0,.888,1.4L24.458,6.524a.827.827,0,1,0-.888-1.4Z" transform="translate(-0.866 -0.866)" fill="#373737"/>
        <path id="Path_905260" data-name="Path 905260" d="M12,5.126,5.388,9.259a.828.828,0,1,0,.876,1.405l6.614-4.133A.828.828,0,0,0,12,5.126Z" transform="translate(-0.866 -0.867)" fill="#373737"/>
      </g>
    </g>
  </g>
</svg>
